font.ufo
<glyph name="quotedbl" format="1">
  <advance width="398"/>
  <unicode hex="0022"/>
  <outline>
    <contour>
      <point x="160" y="595" type="line"/>
      <point x="167" y="802" type="line"/>
      <point x="64" y="802" type="line"/>
      <point x="72" y="595" type="line"/>
    </contour>
    <contour>
      <point x="327" y="595" type="line"/>
      <point x="334" y="802" type="line"/>
      <point x="231" y="802" type="line"/>
      <point x="239" y="595" type="line"/>
    </contour>
  </outline>
</glyph>
<glyph name="dollar" format="1">
  <advance width="479"/>
  <unicode hex="0024"/>
  <outline>
    <contour>
      <point x="141" y="94" type="curve"/>
      <point x="141" y="214"/>
      <point x="141" y="94"/>
      <point x="141" y="214" type="curve"/>
      <point x="61" y="214"/>
      <point x="141" y="214"/>
      <point x="61" y="214" type="curve"/>
      <point x="61" y="94"/>
      <point x="61" y="214"/>
      <point x="61" y="94" type="curve"/>
      <point x="141" y="94"/>
      <point x="61" y="94"/>
    </contour>
    <contour>
      <point x="322" y="634" type="curve"/>
      <point x="322" y="514"/>
      <point x="322" y="634"/>
      <point x="322" y="514" type="curve"/>
      <point x="402" y="514"/>
      <point x="322" y="514"/>
      <point x="402" y="514" type="curve"/>
      <point x="402" y="634"/>
      <point x="402" y="514"/>
      <point x="402" y="634" type="curve"/>
      <point x="322" y="634"/>
      <point x="402" y="634"/>
    </contour>
    <contour>
      <point x="278" y="-42" type="curve"/>
      <point x="278" y="-11"/>
      <point x="278" y="52"/>
      <point x="278" y="83" type="curve"/>
      <point x="177" y="83"/>
      <point x="278" y="83"/>
      <point x="177" y="83" type="curve"/>
      <point x="177" y="52"/>
      <point x="177" y="-11"/>
      <point x="177" y="-42" type="curve"/>
      <point x="278" y="-42"/>
      <point x="177" y="-42"/>
    </contour>
    <contour>
      <point x="287" y="646" type="curve"/>
      <point x="287" y="677"/>
      <point x="287" y="742"/>
      <point x="287" y="773" type="curve"/>
      <point x="186" y="773"/>
      <point x="287" y="773"/>
      <point x="186" y="773" type="curve"/>
      <point x="186" y="742"/>
      <point x="186" y="677"/>
      <point x="186" y="646" type="curve"/>
      <point x="287" y="646"/>
      <point x="186" y="646"/>
    </contour>
    <contour>
      <point x="61" y="94" type="curve"/>
      <point x="105" y="67"/>
      <point x="159" y="44"/>
      <point x="223" y="44" type="curve"/>
      <point x="346" y="44"/>
      <point x="435" y="110"/>
      <point x="435" y="213" type="curve"/>
      <point x="435" y="304"/>
      <point x="359" y="360"/>
      <point x="268" y="409" type="curve"/>
      <point x="208" y="442"/>
      <point x="161" y="469"/>
      <point x="161" y="528" type="curve"/>
      <point x="161" y="572"/>
      <point x="190" y="608"/>
      <point x="238" y="608" type="curve"/>
      <point x="284" y="608"/>
      <point x="315" y="592"/>
      <point x="352" y="567" type="curve"/>
      <point x="402" y="634"/>
      <point x="352" y="567"/>
      <point x="402" y="634" type="curve"/>
      <point x="351" y="668"/>
      <point x="306" y="686"/>
      <point x="242" y="686" type="curve"/>
      <point x="134" y="686"/>
      <point x="60" y="623"/>
      <point x="60" y="528" type="curve"/>
      <point x="60" y="438"/>
      <point x="120" y="385"/>
      <point x="208" y="338" type="curve"/>
      <point x="273" y="305"/>
      <point x="334" y="273"/>
      <point x="334" y="209" type="curve"/>
      <point x="334" y="157"/>
      <point x="292" y="122"/>
      <point x="232" y="122" type="curve"/>
      <point x="186" y="122"/>
      <point x="148" y="145"/>
      <point x="116" y="164" type="curve"/>
      <point x="61" y="94"/>
      <point x="116" y="164"/>
    </contour>
  </outline>
</glyph>
<glyph name="quotesingle" format="1">
  <advance width="231"/>
  <unicode hex="0027"/>
  <outline>
    <contour>
      <point x="160" y="595" type="line"/>
      <point x="167" y="802" type="line"/>
      <point x="64" y="802" type="line"/>
      <point x="72" y="595" type="line"/>
    </contour>
  </outline>
</glyph>
<glyph name="parenright" format="1">
  <advance width="315"/>
  <unicode hex="0029"/>
  <outline>
    <contour>
      <point x="62" y="-285" type="curve"/>
      <point x="206" y="-85"/>
      <point x="271" y="81"/>
      <point x="271" y="328" type="curve"/>
      <point x="271" y="569"/>
      <point x="213" y="733"/>
      <point x="65" y="923" type="curve"/>
      <point x="5" y="868"/>
      <point x="65" y="923"/>
      <point x="5" y="868" type="curve"/>
      <point x="135" y="694"/>
      <point x="172" y="541"/>
      <point x="172" y="325" type="curve"/>
      <point x="172" y="104"/>
      <point x="127" y="-51"/>
      <point x="1" y="-234" type="curve"/>
      <point x="62" y="-285"/>
      <point x="1" y="-234"/>
    </contour>
  </outline>
</glyph>
<glyph name="hyphen" format="1">
  <advance width="355"/>
  <unicode hex="002D"/>
  <outline>
    <contour>
      <point x="71" y="236" type="curve"/>
      <point x="142" y="236"/>
      <point x="213" y="236"/>
      <point x="284" y="236" type="curve"/>
      <point x="284" y="323"/>
      <point x="284" y="236"/>
      <point x="284" y="323" type="curve"/>
      <point x="213" y="323"/>
      <point x="142" y="323"/>
      <point x="71" y="323" type="curve"/>
      <point x="71" y="236"/>
      <point x="71" y="323"/>
    </contour>
  </outline>
</glyph>
<glyph name="period" format="1">
  <advance width="240"/>
  <unicode hex="002E"/>
  <outline>
    <contour>
      <point x="174" y="44" type="curve"/>
      <point x="174" y="79"/>
      <point x="151" y="97"/>
      <point x="119" y="97" type="curve"/>
      <point x="87" y="97"/>
      <point x="66" y="77"/>
      <point x="66" y="44" type="curve"/>
      <point x="174" y="44"/>
      <point x="66" y="44"/>
      <point x="174" y="44" type="curve"/>
      <point x="174" y="9"/>
      <point x="151" y="-8"/>
      <point x="119" y="-8" type="curve"/>
      <point x="86" y="-8"/>
      <point x="66" y="10"/>
      <point x="66" y="44" type="curve"/>
      <point x="174" y="44"/>
      <point x="66" y="44"/>
    </contour>
  </outline>
</glyph>
<glyph name="slash" format="1">
  <advance width="470"/>
  <unicode hex="002F"/>
  <outline>
    <contour>
      <point x="129" y="-32" type="curve"/>
      <point x="233" y="246"/>
      <point x="337" y="525"/>
      <point x="441" y="804" type="curve"/>
      <point x="340" y="804"/>
      <point x="441" y="804"/>
      <point x="340" y="804" type="curve"/>
      <point x="236" y="525"/>
      <point x="132" y="246"/>
      <point x="28" y="-32" type="curve"/>
      <point x="129" y="-32"/>
      <point x="28" y="-32"/>
    </contour>
  </outline>
</glyph>
<glyph name="zero" format="1">
  <advance width="602"/>
  <unicode hex="0030"/>
  <outline>
    <contour>
      <point x="154" y="360" type="curve"/>
      <point x="154" y="514"/>
      <point x="167" y="645"/>
      <point x="298" y="645" type="curve"/>
      <point x="429" y="645"/>
      <point x="449" y="517"/>
      <point x="449" y="363" type="curve"/>
      <point x="449" y="209"/>
      <point x="434" y="78"/>
      <point x="306" y="78" type="curve"/>
      <point x="177" y="78"/>
      <point x="154" y="206"/>
      <point x="154" y="360" type="curve"/>
      <point x="57" y="360"/>
      <point x="153" y="360"/>
      <point x="56" y="360" type="curve"/>
      <point x="56" y="154"/>
      <point x="117" y="-5"/>
      <point x="301" y="-5" type="curve"/>
      <point x="487" y="-5"/>
      <point x="546" y="154"/>
      <point x="546" y="363" type="curve"/>
      <point x="546" y="568"/>
      <point x="489" y="727"/>
      <point x="307" y="727" type="curve"/>
      <point x="120" y="727"/>
      <point x="56" y="569"/>
      <point x="56" y="360" type="curve"/>
      <point x="153" y="360"/>
      <point x="57" y="360"/>
    </contour>
  </outline>
</glyph>
<glyph name="semicolon" format="1">
  <advance width="276"/>
  <unicode hex="003B"/>
  <outline>
    <contour>
      <point x="73" y="-175" type="line"/>
      <point x="150" y="-167"/>
      <point x="201" y="-112"/>
      <point x="201" y="-27" type="curve"/>
      <point x="201" y="38"/>
      <point x="176" y="74"/>
      <point x="137" y="74" type="curve"/>
      <point x="102" y="74"/>
      <point x="78" y="55"/>
      <point x="78" y="21" type="curve"/>
      <point x="78" y="-7"/>
      <point x="94" y="-29"/>
      <point x="126" y="-30" type="curve"/>
      <point x="126" y="-55"/>
      <point x="121" y="-103"/>
      <point x="67" y="-119" type="curve"/>
    </contour>
    <contour>
      <point x="193" y="395" type="curve"/>
      <point x="193" y="429"/>
      <point x="169" y="447"/>
      <point x="138" y="447" type="curve"/>
      <point x="106" y="447"/>
      <point x="85" y="428"/>
      <point x="85" y="395" type="curve"/>
      <point x="193" y="395"/>
      <point x="85" y="395"/>
      <point x="193" y="395" type="curve"/>
      <point x="193" y="359"/>
      <point x="170" y="343"/>
      <point x="138" y="343" type="curve"/>
      <point x="105" y="343"/>
      <point x="85" y="360"/>
      <point x="85" y="395" type="curve"/>
      <point x="193" y="395"/>
      <point x="85" y="395"/>
    </contour>
  </outline>
</glyph>
<glyph name="question" format="1">
  <advance width="453"/>
  <unicode hex="003F"/>
  <outline>
    <contour>
      <point x="167" y="364" type="curve"/>
      <point x="167" y="327"/>
      <point x="167" y="258"/>
      <point x="167" y="221" type="curve"/>
      <point x="259" y="221"/>
      <point x="167" y="221"/>
      <point x="259" y="221" type="curve"/>
      <point x="259" y="258"/>
      <point x="259" y="327"/>
      <point x="259" y="364" type="curve"/>
      <point x="167" y="364"/>
      <point x="259" y="364"/>
    </contour>
    <contour>
      <point x="97" y="595" type="line"/>
      <point x="124" y="630"/>
      <point x="154" y="653"/>
      <point x="200" y="653" type="curve"/>
      <point x="272" y="653"/>
      <point x="306" y="595"/>
      <point x="306" y="518" type="curve"/>
      <point x="306" y="430"/>
      <point x="262" y="364"/>
      <point x="178" y="364" type="curve"/>
      <point x="178" y="330"/>
      <point x="177" y="320"/>
      <point x="177" y="287" type="curve"/>
      <point x="318" y="287"/>
      <point x="403" y="380"/>
      <point x="403" y="518" type="curve"/>
      <point x="403" y="650"/>
      <point x="327" y="737"/>
      <point x="205" y="737" type="curve"/>
      <point x="131" y="737"/>
      <point x="79" y="708"/>
      <point x="42" y="658" type="curve"/>
    </contour>
    <contour>
      <point x="268" y="44" type="curve"/>
      <point x="268" y="79"/>
      <point x="245" y="97"/>
      <point x="213" y="97" type="curve"/>
      <point x="181" y="97"/>
      <point x="160" y="77"/>
      <point x="160" y="44" type="curve"/>
      <point x="268" y="44"/>
      <point x="160" y="44"/>
      <point x="268" y="44" type="curve"/>
      <point x="268" y="9"/>
      <point x="246" y="-8"/>
      <point x="213" y="-8" type="curve"/>
      <point x="181" y="-8"/>
      <point x="160" y="10"/>
      <point x="160" y="44" type="curve"/>
      <point x="268" y="44"/>
      <point x="160" y="44"/>
    </contour>
  </outline>
</glyph>
<glyph name="at" format="1">
  <advance width="688"/>
  <unicode hex="0040"/>
  <outline>
    <contour>
      <point x="453" y="-40" type="curve"/>
      <point x="421" y="-62"/>
      <point x="396" y="-70"/>
      <point x="357" y="-70" type="curve"/>
      <point x="212" y="-70"/>
      <point x="140" y="46"/>
      <point x="140" y="205" type="curve"/>
      <point x="140" y="358"/>
      <point x="209" y="471"/>
      <point x="349" y="471" type="curve"/>
      <point x="482" y="471"/>
      <point x="548" y="359"/>
      <point x="548" y="211" type="curve"/>
      <point x="548" y="151"/>
      <point x="548" y="97"/>
      <point x="519" y="97" type="curve"/>
      <point x="489" y="97"/>
      <point x="489" y="148"/>
      <point x="489" y="209" type="curve"/>
      <point x="489" y="317"/>
      <point x="444" y="396"/>
      <point x="344" y="396" type="curve"/>
      <point x="237" y="396"/>
      <point x="195" y="320"/>
      <point x="195" y="207" type="curve"/>
      <point x="195" y="92"/>
      <point x="231" y="10"/>
      <point x="336" y="10" type="curve"/>
      <point x="431" y="10"/>
      <point x="464" y="89"/>
      <point x="475" y="193" type="curve"/>
      <point x="412" y="208"/>
      <point x="475" y="193"/>
      <point x="412" y="208" type="curve"/>
      <point x="400" y="149"/>
      <point x="400" y="89"/>
      <point x="347" y="89" type="curve"/>
      <point x="295" y="89"/>
      <point x="284" y="144"/>
      <point x="284" y="211" type="curve"/>
      <point x="284" y="269"/>
      <point x="292" y="317"/>
      <point x="339" y="317" type="curve"/>
      <point x="394" y="317"/>
      <point x="398" y="267"/>
      <point x="398" y="205" type="curve"/>
      <point x="398" y="103"/>
      <point x="420" y="22"/>
      <point x="511" y="22" type="curve"/>
      <point x="608" y="22"/>
      <point x="634" y="106"/>
      <point x="634" y="215" type="curve"/>
      <point x="634" y="415"/>
      <point x="540" y="553"/>
      <point x="351" y="553" type="curve"/>
      <point x="151" y="553"/>
      <point x="50" y="412"/>
      <point x="50" y="201" type="curve"/>
      <point x="50" y="-8"/>
      <point x="154" y="-149"/>
      <point x="353" y="-149" type="curve"/>
      <point x="411" y="-149"/>
      <point x="445" y="-140"/>
      <point x="493" y="-107" type="curve"/>
      <point x="453" y="-40"/>
      <point x="493" y="-107"/>
    </contour>
  </outline>
</glyph>
<glyph name="D" format="1">
  <advance width="655"/>
  <unicode hex="0044"/>
  <outline>
    <contour>
      <point x="292" y="796" type="move" name="top"/>
    </contour>
    <contour>
      <point x="183" y="79" type="curve"/>
      <point x="48" y="79"/>
      <point x="190" y="79"/>
      <point x="55" y="79" type="curve"/>
      <point x="55" y="0"/>
      <point x="55" y="79"/>
      <point x="55" y="0" type="curve"/>
      <point x="100" y="0"/>
      <point x="139" y="0"/>
      <point x="183" y="0" type="curve"/>
      <point x="183" y="79"/>
      <point x="183" y="0"/>
    </contour>
    <contour>
      <point x="183" y="722" type="curve"/>
      <point x="139" y="722"/>
      <point x="100" y="722"/>
      <point x="55" y="722" type="curve"/>
      <point x="55" y="643"/>
      <point x="55" y="722"/>
      <point x="55" y="643" type="curve"/>
      <point x="190" y="643"/>
      <point x="48" y="643"/>
      <point x="183" y="643" type="curve"/>
      <point x="183" y="722"/>
      <point x="183" y="643"/>
    </contour>
    <contour>
      <point x="132" y="722" type="curve"/>
      <point x="132" y="481"/>
      <point x="132" y="241"/>
      <point x="132" y="0" type="curve"/>
      <point x="232" y="0"/>
      <point x="132" y="0"/>
      <point x="232" y="0" type="curve"/>
      <point x="232" y="241"/>
      <point x="232" y="481"/>
      <point x="232" y="722" type="curve"/>
      <point x="132" y="722"/>
      <point x="232" y="722"/>
    </contour>
    <contour>
      <point x="183" y="0" type="curve"/>
      <point x="230" y="0"/>
      <point x="271" y="0"/>
      <point x="319" y="0" type="curve"/>
      <point x="518" y="0"/>
      <point x="602" y="141"/>
      <point x="602" y="355" type="curve"/>
      <point x="602" y="575"/>
      <point x="519" y="722"/>
      <point x="314" y="722" type="curve"/>
      <point x="269" y="722"/>
      <point x="229" y="722"/>
      <point x="183" y="722" type="curve"/>
      <point x="183" y="648"/>
      <point x="183" y="717"/>
      <point x="183" y="643" type="curve"/>
      <point x="227" y="643"/>
      <point x="266" y="643"/>
      <point x="310" y="643" type="curve"/>
      <point x="459" y="643"/>
      <point x="501" y="521"/>
      <point x="501" y="353" type="curve"/>
      <point x="501" y="196"/>
      <point x="465" y="79"/>
      <point x="328" y="79" type="curve"/>
      <point x="278" y="79"/>
      <point x="233" y="79"/>
      <point x="183" y="79" type="curve"/>
      <point x="183" y="5"/>
      <point x="183" y="74"/>
    </contour>
  </outline>
</glyph>
<glyph name="G" format="1">
  <advance width="633"/>
  <unicode hex="0047"/>
  <outline>
    <contour>
      <point x="332" y="796" type="move" name="top"/>
    </contour>
    <contour>
      <point x="368" y="-28" type="move" name="bottom"/>
    </contour>
    <contour>
      <point x="479" y="644" type="curve"/>
      <point x="479" y="511"/>
      <point x="479" y="647"/>
      <point x="479" y="515" type="curve"/>
      <point x="559" y="515"/>
      <point x="479" y="515"/>
      <point x="559" y="515" type="curve"/>
      <point x="559" y="647"/>
      <point x="559" y="511"/>
      <point x="559" y="644" type="curve"/>
      <point x="479" y="644"/>
      <point x="559" y="644"/>
    </contour>
    <contour>
      <point x="544" y="352" type="curve"/>
      <point x="491" y="352"/>
      <point x="437" y="352"/>
      <point x="383" y="352" type="curve"/>
      <point x="383" y="273"/>
      <point x="383" y="352"/>
      <point x="383" y="273" type="curve"/>
      <point x="437" y="273"/>
      <point x="491" y="273"/>
      <point x="544" y="273" type="curve"/>
      <point x="544" y="352"/>
      <point x="544" y="273"/>
    </contour>
    <contour>
      <point x="571" y="78" type="curve"/>
      <point x="571" y="170"/>
      <point x="571" y="261"/>
      <point x="571" y="352" type="curve"/>
      <point x="479" y="352"/>
      <point x="571" y="352"/>
      <point x="479" y="352" type="curve"/>
      <point x="479" y="261"/>
      <point x="479" y="170"/>
      <point x="479" y="78" type="curve"/>
      <point x="571" y="78"/>
      <point x="479" y="78"/>
    </contour>
    <contour>
      <point x="559" y="644" type="curve"/>
      <point x="491" y="700"/>
      <point x="423" y="727"/>
      <point x="335" y="727" type="curve"/>
      <point x="139" y="727"/>
      <point x="53" y="576"/>
      <point x="53" y="362" type="curve"/>
      <point x="53" y="144"/>
      <point x="144" y="-5"/>
      <point x="343" y="-5" type="curve"/>
      <point x="437" y="-5"/>
      <point x="495" y="24"/>
      <point x="571" y="78" type="curve"/>
      <point x="520" y="139"/>
      <point x="571" y="78"/>
      <point x="520" y="139" type="curve"/>
      <point x="468" y="99"/>
      <point x="415" y="78"/>
      <point x="343" y="78" type="curve"/>
      <point x="198" y="78"/>
      <point x="154" y="204"/>
      <point x="154" y="370" type="curve"/>
      <point x="154" y="524"/>
      <point x="199" y="644"/>
      <point x="335" y="644" type="curve"/>
      <point x="404" y="644"/>
      <point x="455" y="621"/>
      <point x="508" y="577" type="curve"/>
      <point x="559" y="644"/>
      <point x="508" y="577"/>
    </contour>
  </outline>
</glyph>
<glyph name="H" format="1">
  <advance width="697"/>
  <unicode hex="0048"/>
  <outline>
    <contour>
      <point x="531" y="643" type="curve"/>
      <point x="666" y="643"/>
      <point x="524" y="643"/>
      <point x="659" y="643" type="curve"/>
      <point x="659" y="722"/>
      <point x="659" y="643"/>
      <point x="659" y="722" type="curve"/>
      <point x="614" y="722"/>
      <point x="576" y="722"/>
      <point x="531" y="722" type="curve"/>
      <point x="531" y="643"/>
      <point x="531" y="722"/>
    </contour>
    <contour>
      <point x="531" y="0" type="curve"/>
      <point x="576" y="0"/>
      <point x="614" y="0"/>
      <point x="659" y="0" type="curve"/>
      <point x="659" y="79"/>
      <point x="659" y="0"/>
      <point x="659" y="79" type="curve"/>
      <point x="524" y="79"/>
      <point x="666" y="79"/>
      <point x="531" y="79" type="curve"/>
      <point x="531" y="0"/>
      <point x="531" y="79"/>
    </contour>
    <contour>
      <point x="531" y="79" type="curve"/>
      <point x="396" y="79"/>
      <point x="538" y="79"/>
      <point x="403" y="79" type="curve"/>
      <point x="403" y="0"/>
      <point x="403" y="79"/>
      <point x="403" y="0" type="curve"/>
      <point x="448" y="0"/>
      <point x="486" y="0"/>
      <point x="531" y="0" type="curve"/>
      <point x="531" y="79"/>
      <point x="531" y="0"/>
    </contour>
    <contour>
      <point x="531" y="722" type="curve"/>
      <point x="486" y="722"/>
      <point x="448" y="722"/>
      <point x="403" y="722" type="curve"/>
      <point x="403" y="643"/>
      <point x="403" y="722"/>
      <point x="403" y="643" type="curve"/>
      <point x="538" y="643"/>
      <point x="396" y="643"/>
      <point x="531" y="643" type="curve"/>
      <point x="531" y="722"/>
      <point x="531" y="643"/>
    </contour>
    <contour>
      <point x="167" y="643" type="curve"/>
      <point x="303" y="643"/>
      <point x="160" y="643"/>
      <point x="296" y="643" type="curve"/>
      <point x="296" y="722"/>
      <point x="296" y="643"/>
      <point x="296" y="722" type="curve"/>
      <point x="250" y="722"/>
      <point x="212" y="722"/>
      <point x="167" y="722" type="curve"/>
      <point x="167" y="643"/>
      <point x="167" y="722"/>
    </contour>
    <contour>
      <point x="167" y="722" type="curve"/>
      <point x="122" y="722"/>
      <point x="84" y="722"/>
      <point x="39" y="722" type="curve"/>
      <point x="39" y="643"/>
      <point x="39" y="722"/>
      <point x="39" y="643" type="curve"/>
      <point x="174" y="643"/>
      <point x="32" y="643"/>
      <point x="167" y="643" type="curve"/>
      <point x="167" y="722"/>
      <point x="167" y="643"/>
    </contour>
    <contour>
      <point x="167" y="0" type="curve"/>
      <point x="212" y="0"/>
      <point x="160" y="0"/>
      <point x="296" y="0" type="curve"/>
      <point x="296" y="79"/>
      <point x="296" y="0"/>
      <point x="296" y="79" type="curve"/>
      <point x="160" y="79"/>
      <point x="303" y="79"/>
      <point x="167" y="79" type="curve"/>
      <point x="167" y="0"/>
      <point x="167" y="79"/>
    </contour>
    <contour>
      <point x="167" y="79" type="curve"/>
      <point x="32" y="79"/>
      <point x="174" y="79"/>
      <point x="39" y="79" type="curve"/>
      <point x="39" y="0"/>
      <point x="39" y="79"/>
      <point x="39" y="0" type="curve"/>
      <point x="84" y="0"/>
      <point x="122" y="0"/>
      <point x="167" y="0" type="curve"/>
      <point x="167" y="79"/>
      <point x="167" y="0"/>
    </contour>
    <contour>
      <point x="217" y="0" type="curve"/>
      <point x="217" y="722" type="line"/>
      <point x="117" y="722"/>
      <point x="217" y="722"/>
      <point x="117" y="722" type="curve"/>
      <point x="117" y="481"/>
      <point x="117" y="241"/>
      <point x="117" y="0" type="curve"/>
      <point x="217" y="0"/>
      <point x="117" y="0"/>
    </contour>
    <contour>
      <point x="529" y="402" type="curve"/>
      <point x="408" y="402"/>
      <point x="287" y="402"/>
      <point x="167" y="402" type="curve"/>
      <point x="167" y="323"/>
      <point x="167" y="402"/>
      <point x="167" y="323" type="curve"/>
      <point x="287" y="323"/>
      <point x="408" y="323"/>
      <point x="529" y="323" type="curve"/>
      <point x="529" y="402"/>
      <point x="529" y="323"/>
    </contour>
    <contour>
      <point x="581" y="31" type="curve"/>
      <point x="581" y="251"/>
      <point x="581" y="471"/>
      <point x="581" y="691" type="curve"/>
      <point x="480" y="691"/>
      <point x="581" y="691"/>
      <point x="480" y="691" type="curve"/>
      <point x="480" y="31" type="line"/>
      <point x="581" y="31"/>
      <point x="480" y="31"/>
    </contour>
  </outline>
</glyph>
<glyph name="P" format="1">
  <advance width="538"/>
  <unicode hex="0050"/>
  <outline>
    <contour>
      <point x="183" y="722" type="curve"/>
      <point x="138" y="722"/>
      <point x="100" y="722"/>
      <point x="55" y="722" type="curve"/>
      <point x="55" y="643"/>
      <point x="55" y="722"/>
      <point x="55" y="643" type="curve"/>
      <point x="190" y="643"/>
      <point x="47" y="643"/>
      <point x="183" y="643" type="curve"/>
      <point x="183" y="722"/>
      <point x="183" y="643"/>
    </contour>
    <contour>
      <point x="183" y="79" type="curve"/>
      <point x="47" y="79"/>
      <point x="190" y="79"/>
      <point x="55" y="79" type="curve"/>
      <point x="55" y="0"/>
      <point x="55" y="79"/>
      <point x="55" y="0" type="curve"/>
      <point x="100" y="0"/>
      <point x="138" y="0"/>
      <point x="183" y="0" type="curve"/>
      <point x="183" y="79"/>
      <point x="183" y="0"/>
    </contour>
    <contour>
      <point x="183" y="0" type="curve"/>
      <point x="228" y="0"/>
      <point x="176" y="0"/>
      <point x="311" y="0" type="curve"/>
      <point x="311" y="79"/>
      <point x="311" y="0"/>
      <point x="311" y="79" type="curve"/>
      <point x="176" y="79"/>
      <point x="318" y="79"/>
      <point x="183" y="79" type="curve"/>
      <point x="183" y="0"/>
      <point x="183" y="79"/>
    </contour>
    <contour>
      <point x="168" y="308" type="curve"/>
      <point x="212" y="279"/>
      <point x="259" y="262"/>
      <point x="314" y="262" type="curve"/>
      <point x="430" y="264"/>
      <point x="498" y="348"/>
      <point x="498" y="482" type="curve"/>
      <point x="498" y="622"/>
      <point x="419" y="722"/>
      <point x="284" y="722" type="curve"/>
      <point x="251" y="722"/>
      <point x="218" y="722"/>
      <point x="185" y="722" type="curve"/>
      <point x="185" y="643"/>
      <point x="185" y="722"/>
      <point x="185" y="643" type="curve"/>
      <point x="214" y="643"/>
      <point x="242" y="643"/>
      <point x="271" y="643" type="curve"/>
      <point x="355" y="643"/>
      <point x="397" y="574"/>
      <point x="397" y="485" type="curve"/>
      <point x="397" y="403"/>
      <point x="370" y="338"/>
      <point x="301" y="338" type="curve"/>
      <point x="260" y="338"/>
      <point x="234" y="352"/>
      <point x="200" y="374" type="curve"/>
      <point x="169" y="310"/>
      <point x="200" y="373"/>
    </contour>
    <contour>
      <point x="232" y="0" type="curve"/>
      <point x="232" y="241"/>
      <point x="232" y="481"/>
      <point x="232" y="722" type="curve"/>
      <point x="132" y="722"/>
      <point x="232" y="722"/>
      <point x="132" y="722" type="curve"/>
      <point x="132" y="481"/>
      <point x="132" y="241"/>
      <point x="132" y="0" type="curve"/>
      <point x="232" y="0"/>
      <point x="132" y="0"/>
    </contour>
  </outline>
</glyph>
<glyph name="X" format="1">
  <advance width="592"/>
  <unicode hex="0058"/>
  <outline>
    <contour>
      <point x="138" y="0" type="curve"/>
      <point x="179" y="0"/>
      <point x="134" y="0"/>
      <point x="259" y="0" type="curve"/>
      <point x="259" y="79"/>
      <point x="259" y="0"/>
      <point x="259" y="79" type="curve"/>
      <point x="134" y="79"/>
      <point x="263" y="79"/>
      <point x="138" y="79" type="curve"/>
      <point x="138" y="0"/>
      <point x="138" y="79"/>
    </contour>
    <contour>
      <point x="125" y="79" type="curve"/>
      <point x="6" y="79"/>
      <point x="128" y="79"/>
      <point x="10" y="79" type="curve"/>
      <point x="9" y="0"/>
      <point x="10" y="79"/>
      <point x="9" y="0" type="curve"/>
      <point x="48" y="0"/>
      <point x="85" y="0"/>
      <point x="125" y="0" type="curve"/>
      <point x="125" y="79"/>
      <point x="125" y="0"/>
    </contour>
    <contour>
      <point x="464" y="0" type="curve"/>
      <point x="504" y="0"/>
      <point x="541" y="0"/>
      <point x="579" y="0" type="curve"/>
      <point x="579" y="79"/>
      <point x="579" y="0"/>
      <point x="579" y="79" type="curve"/>
      <point x="461" y="79"/>
      <point x="583" y="79"/>
      <point x="464" y="79" type="curve"/>
      <point x="464" y="0"/>
      <point x="464" y="79"/>
    </contour>
    <contour>
      <point x="451" y="79" type="curve"/>
      <point x="326" y="79"/>
      <point x="454" y="79"/>
      <point x="330" y="79" type="curve"/>
      <point x="330" y="0"/>
      <point x="330" y="79"/>
      <point x="330" y="0" type="curve"/>
      <point x="371" y="0"/>
      <point x="410" y="0"/>
      <point x="451" y="0" type="curve"/>
      <point x="451" y="79"/>
      <point x="451" y="0"/>
    </contour>
    <contour>
      <point x="449" y="643" type="curve"/>
      <point x="567" y="643"/>
      <point x="446" y="643"/>
      <point x="564" y="643" type="curve"/>
      <point x="564" y="722"/>
      <point x="564" y="643"/>
      <point x="564" y="722" type="curve"/>
      <point x="525" y="722"/>
      <point x="487" y="722"/>
      <point x="449" y="722" type="curve"/>
      <point x="449" y="643"/>
      <point x="449" y="722"/>
    </contour>
    <contour>
      <point x="458" y="722" type="curve"/>
      <point x="415" y="722"/>
      <point x="374" y="722"/>
      <point x="330" y="722" type="curve"/>
      <point x="330" y="643"/>
      <point x="330" y="722"/>
      <point x="330" y="643" type="curve"/>
      <point x="462" y="643"/>
      <point x="326" y="643"/>
      <point x="458" y="643" type="curve"/>
      <point x="458" y="722"/>
      <point x="458" y="643"/>
    </contour>
    <contour>
      <point x="143" y="722" type="curve"/>
      <point x="105" y="722"/>
      <point x="67" y="722"/>
      <point x="28" y="722" type="curve"/>
      <point x="28" y="643"/>
      <point x="28" y="722"/>
      <point x="28" y="643" type="curve"/>
      <point x="146" y="643"/>
      <point x="25" y="643"/>
      <point x="143" y="643" type="curve"/>
      <point x="143" y="722"/>
      <point x="143" y="643"/>
    </contour>
    <contour>
      <point x="134" y="643" type="curve"/>
      <point x="266" y="643"/>
      <point x="130" y="643"/>
      <point x="262" y="643" type="curve"/>
      <point x="262" y="722"/>
      <point x="262" y="643"/>
      <point x="262" y="722" type="curve"/>
      <point x="218" y="722"/>
      <point x="177" y="722"/>
      <point x="134" y="722" type="curve"/>
      <point x="134" y="643"/>
      <point x="134" y="722"/>
    </contour>
    <contour>
      <point x="422" y="722" type="curve"/>
      <point x="300" y="481"/>
      <point x="178" y="241"/>
      <point x="56" y="0" type="curve"/>
      <point x="157" y="0"/>
      <point x="56" y="0"/>
      <point x="157" y="0" type="curve"/>
      <point x="278" y="241"/>
      <point x="399" y="481"/>
      <point x="520" y="722" type="curve"/>
      <point x="422" y="722"/>
      <point x="520" y="722"/>
    </contour>
    <contour>
      <point x="74" y="722" type="curve"/>
      <point x="194" y="481"/>
      <point x="314" y="241"/>
      <point x="434" y="0" type="curve"/>
      <point x="534" y="0"/>
      <point x="434" y="0"/>
      <point x="534" y="0" type="curve"/>
      <point x="413" y="241"/>
      <point x="293" y="481"/>
      <point x="172" y="722" type="curve"/>
      <point x="74" y="722"/>
      <point x="172" y="722"/>
    </contour>
  </outline>
</glyph>
<glyph name="backslash" format="1">
  <advance width="452"/>
  <unicode hex="005C"/>
  <outline>
    <contour>
      <point x="422" y="-68" type="curve"/>
      <point x="327" y="236"/>
      <point x="231" y="540"/>
      <point x="135" y="844" type="curve"/>
      <point x="30" y="844"/>
      <point x="135" y="844"/>
      <point x="30" y="844" type="curve"/>
      <point x="126" y="540"/>
      <point x="221" y="236"/>
      <point x="317" y="-68" type="curve"/>
      <point x="422" y="-68"/>
      <point x="317" y="-68"/>
    </contour>
  </outline>
</glyph>
<glyph name="asciicircum" format="1">
  <advance width="462"/>
  <unicode hex="005E"/>
  <outline>
    <contour>
      <point x="153" y="458" type="curve"/>
      <point x="196" y="564"/>
      <point x="239" y="669"/>
      <point x="281" y="774" type="curve"/>
      <point x="181" y="774"/>
      <point x="281" y="774"/>
      <point x="181" y="774" type="curve"/>
      <point x="138" y="669"/>
      <point x="95" y="564"/>
      <point x="53" y="458" type="curve"/>
      <point x="153" y="458"/>
      <point x="53" y="458"/>
    </contour>
    <contour>
      <point x="410" y="458" type="curve"/>
      <point x="368" y="561"/>
      <point x="323" y="670"/>
      <point x="281" y="774" type="curve"/>
      <point x="181" y="774"/>
      <point x="281" y="774"/>
      <point x="181" y="774" type="curve"/>
      <point x="222" y="670"/>
      <point x="267" y="561"/>
      <point x="309" y="458" type="curve"/>
      <point x="410" y="458"/>
      <point x="309" y="458"/>
    </contour>
  </outline>
</glyph>
<glyph name="underscore" format="1">
  <advance width="499"/>
  <unicode hex="005F"/>
  <outline>
    <contour>
      <point x="0" y="-193" type="curve"/>
      <point x="166" y="-193"/>
      <point x="333" y="-193"/>
      <point x="499" y="-193" type="curve"/>
      <point x="499" y="-113"/>
      <point x="499" y="-193"/>
      <point x="499" y="-113" type="curve"/>
      <point x="333" y="-113"/>
      <point x="166" y="-113"/>
      <point x="0" y="-113" type="curve"/>
      <point x="0" y="-193"/>
      <point x="0" y="-113"/>
    </contour>
  </outline>
</glyph>
<glyph name="grave" format="1">
  <advance width="334"/>
  <unicode hex="0060"/>
  <outline>
    <contour>
      <point x="206" y="590" type="move" name="_top"/>
    </contour>
    <contour>
      <point x="255" y="591" type="line"/>
      <point x="178" y="757" type="line"/>
      <point x="54" y="757" type="line"/>
      <point x="160" y="591" type="line"/>
    </contour>
  </outline>
</glyph>
<glyph name="a" format="1">
  <advance width="494"/>
  <unicode hex="0061"/>
  <outline>
    <contour>
      <point x="241" y="632" type="move" name="top"/>
    </contour>
    <contour>
      <point x="404" y="3" type="move" name="bottom"/>
    </contour>
    <contour>
      <point x="72" y="462" type="curve"/>
      <point x="72" y="347"/>
      <point x="72" y="466"/>
      <point x="72" y="351" type="curve"/>
      <point x="151" y="351"/>
      <point x="72" y="351"/>
      <point x="151" y="351" type="curve"/>
      <point x="151" y="466"/>
      <point x="151" y="347"/>
      <point x="151" y="462" type="curve"/>
      <point x="72" y="462"/>
      <point x="151" y="462"/>
    </contour>
    <contour>
      <point x="406" y="0" type="curve"/>
      <point x="406" y="125"/>
      <point x="406" y="252"/>
      <point x="406" y="377" type="curve"/>
      <point x="406" y="487"/>
      <point x="343" y="538"/>
      <point x="238" y="538" type="curve"/>
      <point x="162" y="538"/>
      <point x="109" y="504"/>
      <point x="72" y="462" type="curve"/>
      <point x="111" y="396"/>
      <point x="72" y="462"/>
      <point x="111" y="396" type="curve"/>
      <point x="136" y="423"/>
      <point x="171" y="456"/>
      <point x="225" y="456" type="curve"/>
      <point x="280" y="456"/>
      <point x="305" y="422"/>
      <point x="305" y="363" type="curve"/>
      <point x="305" y="242"/>
      <point x="305" y="121"/>
      <point x="305" y="0" type="curve"/>
      <point x="406" y="0"/>
      <point x="305" y="0"/>
    </contour>
    <contour>
      <point x="357" y="0" type="curve"/>
      <point x="397" y="0"/>
      <point x="435" y="0"/>
      <point x="475" y="0" type="curve"/>
      <point x="475" y="79"/>
      <point x="475" y="0"/>
      <point x="475" y="79" type="curve"/>
      <point x="354" y="79"/>
      <point x="479" y="79"/>
      <point x="357" y="79" type="curve"/>
      <point x="357" y="0"/>
      <point x="357" y="79"/>
    </contour>
    <contour>
      <point x="352" y="340" type="curve"/>
      <point x="296" y="330"/>
      <point x="264" y="327"/>
      <point x="207" y="317" type="curve"/>
      <point x="110" y="301"/>
      <point x="49" y="254"/>
      <point x="49" y="156" type="curve"/>
      <point x="49" y="57"/>
      <point x="95" y="-5"/>
      <point x="192" y="-5" type="curve"/>
      <point x="292" y="-5"/>
      <point x="331" y="79"/>
      <point x="382" y="152" type="curve"/>
      <point x="330" y="197"/>
      <point x="382" y="152"/>
      <point x="330" y="197" type="curve"/>
      <point x="306" y="133"/>
      <point x="279" y="74"/>
      <point x="215" y="74" type="curve"/>
      <point x="163" y="74"/>
      <point x="146" y="108"/>
      <point x="146" y="161" type="curve"/>
      <point x="146" y="206"/>
      <point x="172" y="239"/>
      <point x="210" y="246" type="curve"/>
      <point x="271" y="257"/>
      <point x="297" y="262"/>
      <point x="357" y="272" type="curve"/>
      <point x="352" y="340"/>
      <point x="357" y="272"/>
    </contour>
  </outline>
</glyph>
<glyph name="f" format="1">
  <advance width="383"/>
  <unicode hex="0066"/>
  <outline>
    <contour>
      <point x="286" y="772" type="curve"/>
      <point x="286" y="655"/>
      <point x="286" y="775"/>
      <point x="286" y="659" type="curve"/>
      <point x="366" y="659"/>
      <point x="286" y="659"/>
      <point x="366" y="659" type="curve"/>
      <point x="366" y="775"/>
      <point x="366" y="655"/>
      <point x="366" y="772" type="curve"/>
      <point x="286" y="772"/>
      <point x="366" y="772"/>
    </contour>
    <contour>
      <point x="164" y="-1" type="curve"/>
      <point x="207" y="-1"/>
      <point x="248" y="0"/>
      <point x="291" y="0" type="curve"/>
      <point x="291" y="79"/>
      <point x="291" y="0"/>
      <point x="291" y="79" type="curve"/>
      <point x="161" y="79"/>
      <point x="294" y="79"/>
      <point x="164" y="79" type="curve"/>
      <point x="164" y="-1"/>
      <point x="164" y="79"/>
    </contour>
    <contour>
      <point x="164" y="79" type="curve"/>
      <point x="33" y="79"/>
      <point x="167" y="79"/>
      <point x="37" y="79" type="curve"/>
      <point x="37" y="0"/>
      <point x="37" y="79"/>
      <point x="37" y="0" type="curve"/>
      <point x="81" y="0"/>
      <point x="121" y="-1"/>
      <point x="164" y="-1" type="curve"/>
      <point x="164" y="79"/>
      <point x="164" y="-1"/>
    </contour>
    <contour>
      <point x="28" y="454" type="curve"/>
      <point x="326" y="454" type="line"/>
      <point x="326" y="533"/>
      <point x="326" y="454"/>
      <point x="326" y="533" type="curve"/>
      <point x="28" y="533" type="line"/>
      <point x="28" y="454"/>
      <point x="28" y="533"/>
    </contour>
    <contour>
      <point x="214" y="0" type="curve"/>
      <point x="214" y="617" type="line"/>
      <point x="214" y="676"/>
      <point x="220" y="729"/>
      <point x="270" y="729" type="curve"/>
      <point x="291" y="729"/>
      <point x="308" y="720"/>
      <point x="325" y="709" type="curve"/>
      <point x="366" y="772"/>
      <point x="325" y="709"/>
      <point x="366" y="772" type="curve"/>
      <point x="338" y="791"/>
      <point x="305" y="805"/>
      <point x="270" y="805" type="curve"/>
      <point x="167" y="805"/>
      <point x="112" y="725"/>
      <point x="113" y="617" type="curve"/>
      <point x="113" y="0" type="line"/>
      <point x="214" y="0"/>
      <point x="113" y="0"/>
    </contour>
  </outline>
</glyph>
<glyph name="g" format="1">
  <advance width="470"/>
  <unicode hex="0067"/>
  <outline>
    <contour>
      <point x="242" y="632" type="move" name="top"/>
    </contour>
    <contour>
      <point x="335" y="452" type="curve"/>
      <point x="444" y="517" type="line"/>
      <point x="439" y="524"/>
      <point x="406" y="582"/>
      <point x="401" y="589" type="curve"/>
      <point x="280" y="515" type="line"/>
      <point x="335" y="452"/>
      <point x="280" y="515"/>
    </contour>
    <contour>
      <point x="166" y="344" type="curve"/>
      <point x="166" y="405"/>
      <point x="189" y="459"/>
      <point x="244" y="459" type="curve"/>
      <point x="300" y="459"/>
      <point x="319" y="405"/>
      <point x="319" y="344" type="curve"/>
      <point x="319" y="287"/>
      <point x="299" y="236"/>
      <point x="244" y="236" type="curve"/>
      <point x="192" y="236"/>
      <point x="166" y="285"/>
      <point x="166" y="344" type="curve"/>
      <point x="65" y="340"/>
      <point x="166" y="344"/>
      <point x="65" y="340" type="curve"/>
      <point x="65" y="233"/>
      <point x="133" y="157"/>
      <point x="239" y="157" type="curve"/>
      <point x="349" y="157"/>
      <point x="420" y="235"/>
      <point x="420" y="347" type="curve"/>
      <point x="420" y="458"/>
      <point x="352" y="537"/>
      <point x="244" y="537" type="curve"/>
      <point x="132" y="537"/>
      <point x="65" y="454"/>
      <point x="65" y="340" type="curve"/>
      <point x="166" y="344"/>
      <point x="65" y="340"/>
    </contour>
    <contour>
      <point x="146" y="240" type="curve"/>
      <point x="99" y="207"/>
      <point x="68" y="169"/>
      <point x="68" y="111" type="curve"/>
      <point x="68" y="25"/>
      <point x="140" y="-17"/>
      <point x="231" y="-27" type="curve"/>
      <point x="303" y="-34"/>
      <point x="364" y="-58"/>
      <point x="364" y="-128" type="curve"/>
      <point x="364" y="-193"/>
      <point x="311" y="-226"/>
      <point x="242" y="-226" type="curve"/>
      <point x="177" y="-226"/>
      <point x="134" y="-181"/>
      <point x="134" y="-115" type="curve"/>
      <point x="134" y="-62"/>
      <point x="150" y="-17"/>
      <point x="194" y="6" type="curve"/>
      <point x="144" y="54"/>
      <point x="194" y="6"/>
      <point x="144" y="54" type="curve"/>
      <point x="74" y="18"/>
      <point x="33" y="-38"/>
      <point x="33" y="-118" type="curve"/>
      <point x="33" y="-235"/>
      <point x="119" y="-305"/>
      <point x="238" y="-305" type="curve"/>
      <point x="362" y="-305"/>
      <point x="458" y="-239"/>
      <point x="456" y="-120" type="curve"/>
      <point x="456" y="-11"/>
      <point x="363" y="37"/>
      <point x="250" y="49" type="curve"/>
      <point x="204" y="53"/>
      <point x="169" y="75"/>
      <point x="169" y="119" type="curve"/>
      <point x="169" y="149"/>
      <point x="176" y="169"/>
      <point x="199" y="188" type="curve"/>
      <point x="146" y="240"/>
      <point x="199" y="188"/>
    </contour>
  </outline>
</glyph>
<glyph name="h" format="1">
  <advance width="539"/>
  <unicode hex="0068"/>
  <outline>
    <contour>
      <point x="407" y="-1" type="curve"/>
      <point x="451" y="-1"/>
      <point x="492" y="0"/>
      <point x="535" y="0" type="curve"/>
      <point x="535" y="79"/>
      <point x="535" y="0"/>
      <point x="535" y="79" type="curve"/>
      <point x="404" y="79"/>
      <point x="539" y="79"/>
      <point x="407" y="79" type="curve"/>
      <point x="407" y="-1"/>
      <point x="407" y="79"/>
    </contour>
    <contour>
      <point x="136" y="-1" type="curve"/>
      <point x="173" y="-1"/>
      <point x="133" y="-1"/>
      <point x="245" y="0" type="curve"/>
      <point x="245" y="79"/>
      <point x="245" y="0"/>
      <point x="245" y="79" type="curve"/>
      <point x="133" y="79"/>
      <point x="248" y="79"/>
      <point x="136" y="79" type="curve"/>
      <point x="136" y="-1"/>
      <point x="136" y="79"/>
    </contour>
    <contour>
      <point x="136" y="799" type="curve"/>
      <point x="92" y="799"/>
      <point x="51" y="800"/>
      <point x="8" y="800" type="curve"/>
      <point x="7" y="721"/>
      <point x="8" y="800"/>
      <point x="7" y="721" type="curve"/>
      <point x="139" y="721"/>
      <point x="4" y="721"/>
      <point x="136" y="721" type="curve"/>
      <point x="136" y="799"/>
      <point x="136" y="721"/>
    </contour>
    <contour>
      <point x="136" y="79" type="curve"/>
      <point x="4" y="79"/>
      <point x="139" y="79"/>
      <point x="8" y="79" type="curve"/>
      <point x="7" y="0"/>
      <point x="8" y="79"/>
      <point x="7" y="0" type="curve"/>
      <point x="51" y="0"/>
      <point x="92" y="-1"/>
      <point x="136" y="-1" type="curve"/>
      <point x="136" y="79"/>
      <point x="136" y="-1"/>
    </contour>
    <contour>
      <point x="163" y="320" type="curve"/>
      <point x="180" y="384"/>
      <point x="219" y="456"/>
      <point x="283" y="456" type="curve"/>
      <point x="351" y="456"/>
      <point x="358" y="395"/>
      <point x="358" y="320" type="curve"/>
      <point x="358" y="213"/>
      <point x="358" y="107"/>
      <point x="358" y="0" type="curve"/>
      <point x="458" y="0"/>
      <point x="358" y="0"/>
      <point x="458" y="0" type="curve"/>
      <point x="458" y="109"/>
      <point x="458" y="219"/>
      <point x="458" y="328" type="curve"/>
      <point x="458" y="448"/>
      <point x="426" y="535"/>
      <point x="311" y="535" type="curve"/>
      <point x="222" y="535"/>
      <point x="154" y="454"/>
      <point x="136" y="361" type="curve"/>
      <point x="164" y="321"/>
      <point x="134" y="360"/>
    </contour>
    <contour>
      <point x="186" y="0" type="curve"/>
      <point x="186" y="267"/>
      <point x="186" y="533"/>
      <point x="186" y="800" type="curve"/>
      <point x="85" y="800"/>
      <point x="186" y="800"/>
      <point x="85" y="800" type="curve"/>
      <point x="85" y="533"/>
      <point x="85" y="267"/>
      <point x="85" y="0" type="curve"/>
      <point x="186" y="0"/>
      <point x="85" y="0"/>
    </contour>
  </outline>
</glyph>
<glyph name="i" format="1">
  <advance width="295"/>
  <unicode hex="0069"/>
  <outline>
    <contour>
      <point x="154" y="632" type="move" name="top"/>
    </contour>
    <contour>
      <point x="203" y="3" type="move" name="bottom"/>
    </contour>
    <contour>
      <point x="158" y="79" type="curve"/>
      <point x="26" y="79"/>
      <point x="161" y="79"/>
      <point x="29" y="79" type="curve"/>
      <point x="29" y="0"/>
      <point x="29" y="79"/>
      <point x="29" y="0" type="curve"/>
      <point x="73" y="0"/>
      <point x="114" y="0"/>
      <point x="158" y="0" type="curve"/>
      <point x="158" y="79"/>
      <point x="158" y="0"/>
    </contour>
    <contour>
      <point x="158" y="0" type="curve"/>
      <point x="198" y="0"/>
      <point x="237" y="0"/>
      <point x="279" y="0" type="curve"/>
      <point x="279" y="79"/>
      <point x="279" y="0"/>
      <point x="279" y="79" type="curve"/>
      <point x="154" y="79"/>
      <point x="282" y="79"/>
      <point x="158" y="79" type="curve"/>
      <point x="158" y="0"/>
      <point x="158" y="79"/>
    </contour>
    <contour>
      <point x="158" y="533" type="curve"/>
      <point x="114" y="533"/>
      <point x="73" y="533"/>
      <point x="29" y="533" type="curve"/>
      <point x="29" y="454"/>
      <point x="29" y="533"/>
      <point x="29" y="454" type="curve"/>
      <point x="161" y="454"/>
      <point x="26" y="454"/>
      <point x="158" y="454" type="curve"/>
      <point x="158" y="533"/>
      <point x="158" y="454"/>
    </contour>
    <contour>
      <point x="211" y="0" type="curve"/>
      <point x="211" y="178"/>
      <point x="211" y="355"/>
      <point x="211" y="533" type="curve"/>
      <point x="105" y="533"/>
      <point x="211" y="533"/>
      <point x="105" y="533" type="curve"/>
      <point x="105" y="355"/>
      <point x="105" y="178"/>
      <point x="105" y="0" type="curve"/>
      <point x="211" y="0"/>
      <point x="105" y="0"/>
    </contour>
    <contour>
      <point x="208" y="680" type="curve"/>
      <point x="208" y="715"/>
      <point x="185" y="733"/>
      <point x="154" y="733" type="curve"/>
      <point x="121" y="733"/>
      <point x="101" y="714"/>
      <point x="101" y="680" type="curve"/>
      <point x="208" y="680"/>
      <point x="101" y="680"/>
      <point x="208" y="680" type="curve"/>
      <point x="208" y="645"/>
      <point x="186" y="629"/>
      <point x="154" y="629" type="curve"/>
      <point x="121" y="629"/>
      <point x="101" y="646"/>
      <point x="101" y="680" type="curve"/>
      <point x="208" y="680"/>
      <point x="101" y="680"/>
    </contour>
  </outline>
</glyph>
<glyph name="p" format="1">
  <advance width="543"/>
  <unicode hex="0070"/>
  <outline>
    <contour>
      <point x="134" y="-221" type="curve"/>
      <point x="3" y="-221"/>
      <point x="137" y="-221"/>
      <point x="6" y="-221" type="curve"/>
      <point x="6" y="-300"/>
      <point x="6" y="-221"/>
      <point x="6" y="-300" type="curve"/>
      <point x="50" y="-300"/>
      <point x="90" y="-300"/>
      <point x="134" y="-300" type="curve"/>
      <point x="134" y="-221"/>
      <point x="134" y="-300"/>
    </contour>
    <contour>
      <point x="134" y="-300" type="curve"/>
      <point x="176" y="-300"/>
      <point x="214" y="-300"/>
      <point x="255" y="-300" type="curve"/>
      <point x="255" y="-221"/>
      <point x="255" y="-300"/>
      <point x="255" y="-221" type="curve"/>
      <point x="131" y="-221"/>
      <point x="258" y="-221"/>
      <point x="134" y="-221" type="curve"/>
      <point x="134" y="-300"/>
      <point x="134" y="-221"/>
    </contour>
    <contour>
      <point x="135" y="533" type="curve"/>
      <point x="91" y="533"/>
      <point x="51" y="533"/>
      <point x="7" y="533" type="curve"/>
      <point x="7" y="454"/>
      <point x="7" y="533"/>
      <point x="7" y="454" type="curve"/>
      <point x="138" y="454"/>
      <point x="4" y="454"/>
      <point x="135" y="454" type="curve"/>
      <point x="135" y="533"/>
      <point x="135" y="454"/>
    </contour>
    <contour>
      <point x="163" y="335" type="curve"/>
      <point x="179" y="392"/>
      <point x="226" y="457"/>
      <point x="284" y="457" type="curve"/>
      <point x="380" y="457"/>
      <point x="397" y="367"/>
      <point x="397" y="266" type="curve"/>
      <point x="398" y="165"/>
      <point x="378" y="74"/>
      <point x="286" y="74" type="curve"/>
      <point x="233" y="74"/>
      <point x="196" y="104"/>
      <point x="167" y="148" type="curve"/>
      <point x="129" y="105"/>
      <point x="167" y="148"/>
      <point x="129" y="105" type="curve"/>
      <point x="174" y="36"/>
      <point x="227" y="-5"/>
      <point x="306" y="-5" type="curve"/>
      <point x="451" y="-5"/>
      <point x="497" y="122"/>
      <point x="497" y="271" type="curve"/>
      <point x="497" y="414"/>
      <point x="450" y="539"/>
      <point x="307" y="539" type="curve"/>
      <point x="225" y="539"/>
      <point x="165" y="469"/>
      <point x="135" y="401" type="curve"/>
      <point x="163" y="335"/>
      <point x="135" y="401"/>
    </contour>
    <contour>
      <point x="185" y="-300" type="curve"/>
      <point x="185" y="-22"/>
      <point x="185" y="255"/>
      <point x="185" y="533" type="curve"/>
      <point x="84" y="533"/>
      <point x="185" y="533"/>
      <point x="84" y="533" type="curve"/>
      <point x="84" y="255"/>
      <point x="84" y="-22"/>
      <point x="84" y="-300" type="curve"/>
      <point x="185" y="-300"/>
      <point x="84" y="-300"/>
    </contour>
  </outline>
</glyph>
<glyph name="q" format="1">
  <advance width="558"/>
  <unicode hex="0071"/>
  <outline>
    <contour>
      <point x="411" y="454" type="curve"/>
      <point x="533" y="454"/>
      <point x="408" y="454"/>
      <point x="531" y="454" type="curve"/>
      <point x="531" y="533"/>
      <point x="531" y="454"/>
      <point x="531" y="533" type="curve"/>
      <point x="490" y="533"/>
      <point x="452" y="533"/>
      <point x="411" y="533" type="curve"/>
      <point x="411" y="454"/>
      <point x="411" y="533"/>
    </contour>
    <contour>
      <point x="409" y="-221" type="curve"/>
      <point x="278" y="-221"/>
      <point x="413" y="-221"/>
      <point x="281" y="-221" type="curve"/>
      <point x="281" y="-300"/>
      <point x="281" y="-221"/>
      <point x="281" y="-300" type="curve"/>
      <point x="325" y="-300"/>
      <point x="366" y="-300"/>
      <point x="409" y="-300" type="curve"/>
      <point x="409" y="-221"/>
      <point x="409" y="-300"/>
    </contour>
    <contour>
      <point x="409" y="-300" type="curve"/>
      <point x="451" y="-300"/>
      <point x="489" y="-300"/>
      <point x="531" y="-300" type="curve"/>
      <point x="531" y="-221"/>
      <point x="531" y="-300"/>
      <point x="531" y="-221" type="curve"/>
      <point x="406" y="-221"/>
      <point x="534" y="-221"/>
      <point x="409" y="-221" type="curve"/>
      <point x="409" y="-300"/>
      <point x="409" y="-221"/>
    </contour>
    <contour>
      <point x="413" y="409" type="curve"/>
      <point x="378" y="488"/>
      <point x="313" y="538"/>
      <point x="238" y="538" type="curve"/>
      <point x="93" y="538"/>
      <point x="46" y="412"/>
      <point x="47" y="265" type="curve"/>
      <point x="47" y="117"/>
      <point x="99" y="-5"/>
      <point x="243" y="-5" type="curve"/>
      <point x="317" y="-5"/>
      <point x="377" y="54"/>
      <point x="411" y="123" type="curve"/>
      <point x="379" y="167"/>
      <point x="412" y="125"/>
      <point x="380" y="169" type="curve"/>
      <point x="355" y="117"/>
      <point x="312" y="73"/>
      <point x="258" y="73" type="curve"/>
      <point x="168" y="73"/>
      <point x="148" y="166"/>
      <point x="148" y="269" type="curve"/>
      <point x="148" y="367"/>
      <point x="169" y="457"/>
      <point x="256" y="457" type="curve"/>
      <point x="305" y="457"/>
      <point x="347" y="430"/>
      <point x="384" y="363" type="curve"/>
      <point x="406" y="410"/>
      <point x="390" y="362"/>
    </contour>
    <contour>
      <point x="462" y="-300" type="curve"/>
      <point x="462" y="-22"/>
      <point x="462" y="255"/>
      <point x="462" y="533" type="curve"/>
      <point x="357" y="533"/>
      <point x="462" y="533"/>
      <point x="357" y="533" type="curve"/>
      <point x="357" y="255"/>
      <point x="357" y="-22"/>
      <point x="357" y="-300" type="curve"/>
      <point x="462" y="-300"/>
      <point x="357" y="-300"/>
    </contour>
  </outline>
</glyph>
<glyph name="w" format="1">
  <advance width="776"/>
  <unicode hex="0077"/>
  <outline>
    <contour>
      <point x="651" y="454" type="curve"/>
      <point x="770" y="454"/>
      <point x="648" y="454"/>
      <point x="767" y="454" type="curve"/>
      <point x="767" y="533"/>
      <point x="767" y="454"/>
      <point x="767" y="533" type="curve"/>
      <point x="727" y="533"/>
      <point x="690" y="533"/>
      <point x="651" y="533" type="curve"/>
      <point x="651" y="454"/>
      <point x="651" y="533"/>
    </contour>
    <contour>
      <point x="651" y="533" type="curve"/>
      <point x="611" y="533"/>
      <point x="580" y="533"/>
      <point x="540" y="533" type="curve"/>
      <point x="540" y="454"/>
      <point x="540" y="533"/>
      <point x="540" y="454" type="curve"/>
      <point x="661" y="454"/>
      <point x="530" y="454"/>
      <point x="651" y="454" type="curve"/>
      <point x="651" y="533"/>
      <point x="651" y="454"/>
    </contour>
    <contour>
      <point x="127" y="533" type="curve"/>
      <point x="87" y="533"/>
      <point x="50" y="533"/>
      <point x="11" y="533" type="curve"/>
      <point x="11" y="454"/>
      <point x="11" y="533"/>
      <point x="11" y="454" type="curve"/>
      <point x="130" y="454"/>
      <point x="7" y="454"/>
      <point x="127" y="454" type="curve"/>
      <point x="127" y="533"/>
      <point x="127" y="454"/>
    </contour>
    <contour>
      <point x="127" y="454" type="curve"/>
      <point x="245" y="454"/>
      <point x="120" y="454"/>
      <point x="238" y="454" type="curve"/>
      <point x="238" y="533"/>
      <point x="238" y="454"/>
      <point x="238" y="533" type="curve"/>
      <point x="199" y="533"/>
      <point x="165" y="533"/>
      <point x="127" y="533" type="curve"/>
      <point x="127" y="454"/>
      <point x="127" y="533"/>
    </contour>
    <contour>
      <point x="287" y="0" type="curve"/>
      <point x="337" y="178"/>
      <point x="386" y="355"/>
      <point x="436" y="533" type="curve"/>
      <point x="347" y="533"/>
      <point x="436" y="533"/>
      <point x="347" y="533" type="curve"/>
      <point x="298" y="355"/>
      <point x="249" y="178"/>
      <point x="201" y="0" type="curve"/>
      <point x="287" y="0"/>
      <point x="201" y="0"/>
    </contour>
    <contour>
      <point x="623" y="533" type="curve"/>
      <point x="577" y="355"/>
      <point x="531" y="178"/>
      <point x="487" y="0" type="curve"/>
      <point x="572" y="0"/>
      <point x="487" y="0"/>
      <point x="572" y="0" type="curve"/>
      <point x="619" y="178"/>
      <point x="666" y="355"/>
      <point x="712" y="533" type="curve"/>
      <point x="623" y="533"/>
      <point x="712" y="533"/>
    </contour>
    <contour>
      <point x="352" y="533" type="curve"/>
      <point x="396" y="355"/>
      <point x="441" y="178"/>
      <point x="486" y="0" type="curve"/>
      <point x="572" y="0"/>
      <point x="486" y="0"/>
      <point x="572" y="0" type="curve"/>
      <point x="528" y="178"/>
      <point x="483" y="355"/>
      <point x="439" y="533" type="curve"/>
      <point x="352" y="533"/>
      <point x="439" y="533"/>
    </contour>
    <contour>
      <point x="67" y="533" type="curve"/>
      <point x="111" y="355"/>
      <point x="156" y="178"/>
      <point x="200" y="0" type="curve"/>
      <point x="286" y="0"/>
      <point x="200" y="0"/>
      <point x="286" y="0" type="curve"/>
      <point x="242" y="178"/>
      <point x="198" y="355"/>
      <point x="154" y="533" type="curve"/>
      <point x="67" y="533"/>
      <point x="154" y="533"/>
    </contour>
  </outline>
</glyph>
<glyph name="y" format="1">
  <advance width="584"/>
  <unicode hex="0079"/>
  <outline>
    <contour>
      <point x="300" y="632" type="move" name="top"/>
    </contour>
    <contour>
      <point x="197" y="-220" type="curve"/>
      <point x="85" y="-221"/>
      <point x="200" y="-220"/>
      <point x="88" y="-221" type="curve"/>
      <point x="88" y="-300"/>
      <point x="88" y="-221"/>
      <point x="88" y="-300" type="curve"/>
      <point x="126" y="-300"/>
      <point x="160" y="-299"/>
      <point x="197" y="-299" type="curve"/>
      <point x="197" y="-220"/>
      <point x="197" y="-299"/>
    </contour>
    <contour>
      <point x="124" y="534" type="curve"/>
      <point x="87" y="534"/>
      <point x="51" y="533"/>
      <point x="14" y="533" type="curve"/>
      <point x="13" y="454"/>
      <point x="14" y="533"/>
      <point x="13" y="454" type="curve"/>
      <point x="127" y="455"/>
      <point x="10" y="454"/>
      <point x="124" y="455" type="curve"/>
      <point x="124" y="534"/>
      <point x="124" y="455"/>
    </contour>
    <contour>
      <point x="124" y="455" type="curve"/>
      <point x="252" y="454"/>
      <point x="121" y="455"/>
      <point x="249" y="454" type="curve"/>
      <point x="249" y="533"/>
      <point x="249" y="454"/>
      <point x="249" y="533" type="curve"/>
      <point x="206" y="533"/>
      <point x="167" y="534"/>
      <point x="124" y="534" type="curve"/>
      <point x="124" y="455"/>
      <point x="124" y="534"/>
    </contour>
    <contour>
      <point x="470" y="534" type="curve"/>
      <point x="429" y="534"/>
      <point x="390" y="533"/>
      <point x="348" y="533" type="curve"/>
      <point x="348" y="454"/>
      <point x="348" y="533"/>
      <point x="348" y="454" type="curve"/>
      <point x="473" y="455"/>
      <point x="345" y="454"/>
      <point x="470" y="455" type="curve"/>
      <point x="470" y="534"/>
      <point x="470" y="455"/>
    </contour>
    <contour>
      <point x="470" y="455" type="curve"/>
      <point x="579" y="454"/>
      <point x="467" y="455"/>
      <point x="576" y="454" type="curve"/>
      <point x="576" y="533"/>
      <point x="576" y="454"/>
      <point x="576" y="533" type="curve"/>
      <point x="540" y="533"/>
      <point x="506" y="534"/>
      <point x="470" y="534" type="curve"/>
      <point x="470" y="455"/>
      <point x="470" y="534"/>
    </contour>
    <contour>
      <point x="338" y="-13" type="curve"/>
      <point x="299" y="107"/>
      <point x="205" y="413"/>
      <point x="166" y="533" type="curve"/>
      <point x="62" y="533"/>
      <point x="166" y="533"/>
      <point x="62" y="533" type="curve"/>
      <point x="104" y="414"/>
      <point x="203" y="103"/>
      <point x="245" y="-16" type="curve"/>
      <point x="338" y="-16"/>
      <point x="245" y="-13"/>
    </contour>
    <contour>
      <point x="240" y="-300" type="curve"/>
      <point x="305" y="-121"/>
      <point x="465" y="354"/>
      <point x="530" y="533" type="curve"/>
      <point x="427" y="533"/>
      <point x="530" y="533"/>
      <point x="427" y="533" type="curve"/>
      <point x="361" y="354"/>
      <point x="201" y="-121"/>
      <point x="136" y="-300" type="curve"/>
      <point x="240" y="-300"/>
      <point x="136" y="-300"/>
    </contour>
  </outline>
</glyph>
<glyph name="braceleft" format="1">
  <advance width="251"/>
  <unicode hex="007B"/>
  <outline>
    <contour>
      <point x="205" y="-35" type="curve"/>
      <point x="165" y="-35"/>
      <point x="166" y="7"/>
      <point x="166" y="52" type="curve"/>
      <point x="166" y="106"/>
      <point x="166" y="159"/>
      <point x="166" y="213" type="curve"/>
      <point x="166" y="309"/>
      <point x="124" y="382"/>
      <point x="36" y="382" type="curve"/>
      <point x="36" y="299"/>
      <point x="36" y="382"/>
      <point x="36" y="299" type="curve"/>
      <point x="71" y="299"/>
      <point x="74" y="262"/>
      <point x="74" y="221" type="curve"/>
      <point x="74" y="166"/>
      <point x="74" y="110"/>
      <point x="74" y="56" type="curve"/>
      <point x="74" y="-42"/>
      <point x="115" y="-114"/>
      <point x="205" y="-114" type="curve"/>
      <point x="205" y="-35"/>
      <point x="205" y="-114"/>
    </contour>
    <contour>
      <point x="205" y="794" type="curve"/>
      <point x="115" y="794"/>
      <point x="74" y="723"/>
      <point x="74" y="627" type="curve"/>
      <point x="74" y="570"/>
      <point x="74" y="513"/>
      <point x="74" y="456" type="curve"/>
      <point x="74" y="416"/>
      <point x="70" y="382"/>
      <point x="36" y="382" type="curve"/>
      <point x="36" y="299"/>
      <point x="36" y="382"/>
      <point x="36" y="299" type="curve"/>
      <point x="125" y="299"/>
      <point x="166" y="371"/>
      <point x="166" y="468" type="curve"/>
      <point x="166" y="521"/>
      <point x="166" y="574"/>
      <point x="166" y="627" type="curve"/>
      <point x="166" y="673"/>
      <point x="164" y="714"/>
      <point x="205" y="714" type="curve"/>
      <point x="205" y="794"/>
      <point x="205" y="714"/>
    </contour>
  </outline>
</glyph>
<glyph name="braceright" format="1">
  <advance width="251"/>
  <unicode hex="007D"/>
  <outline>
    <contour>
      <point x="46" y="-114" type="curve"/>
      <point x="136" y="-114"/>
      <point x="177" y="-42"/>
      <point x="177" y="56" type="curve"/>
      <point x="177" y="110"/>
      <point x="177" y="166"/>
      <point x="177" y="221" type="curve"/>
      <point x="177" y="262"/>
      <point x="180" y="299"/>
      <point x="215" y="299" type="curve"/>
      <point x="215" y="382"/>
      <point x="215" y="299"/>
      <point x="215" y="382" type="curve"/>
      <point x="127" y="382"/>
      <point x="86" y="309"/>
      <point x="86" y="213" type="curve"/>
      <point x="86" y="159"/>
      <point x="86" y="106"/>
      <point x="86" y="52" type="curve"/>
      <point x="86" y="7"/>
      <point x="86" y="-35"/>
      <point x="46" y="-35" type="curve"/>
      <point x="46" y="-114"/>
      <point x="46" y="-35"/>
    </contour>
    <contour>
      <point x="46" y="714" type="curve"/>
      <point x="87" y="714"/>
      <point x="86" y="673"/>
      <point x="86" y="627" type="curve"/>
      <point x="86" y="574"/>
      <point x="86" y="521"/>
      <point x="86" y="468" type="curve"/>
      <point x="86" y="371"/>
      <point x="126" y="299"/>
      <point x="215" y="299" type="curve"/>
      <point x="215" y="382"/>
      <point x="215" y="299"/>
      <point x="215" y="382" type="curve"/>
      <point x="181" y="382"/>
      <point x="177" y="416"/>
      <point x="177" y="456" type="curve"/>
      <point x="177" y="513"/>
      <point x="177" y="570"/>
      <point x="177" y="627" type="curve"/>
      <point x="177" y="723"/>
      <point x="136" y="794"/>
      <point x="46" y="794" type="curve"/>
      <point x="46" y="714"/>
      <point x="46" y="794"/>
    </contour>
  </outline>
</glyph>
<glyph name="asciitilde" format="1">
  <advance width="570"/>
  <unicode hex="007E"/>
  <outline>
    <contour>
      <point x="424" y="367" type="curve"/>
      <point x="414" y="328"/>
      <point x="402" y="285"/>
      <point x="372" y="285" type="curve"/>
      <point x="348" y="285"/>
      <point x="335" y="297"/>
      <point x="319" y="315" type="curve"/>
      <point x="283" y="354"/>
      <point x="256" y="376"/>
      <point x="203" y="376" type="curve"/>
      <point x="119" y="376"/>
      <point x="85" y="321"/>
      <point x="66" y="236" type="curve"/>
      <point x="103" y="224"/>
      <point x="112" y="220"/>
      <point x="148" y="209" type="curve"/>
      <point x="156" y="252"/>
      <point x="168" y="292"/>
      <point x="201" y="292" type="curve"/>
      <point x="225" y="292"/>
      <point x="237" y="281"/>
      <point x="253" y="264" type="curve"/>
      <point x="290" y="224"/>
      <point x="319" y="203"/>
      <point x="373" y="202" type="curve"/>
      <point x="455" y="202"/>
      <point x="482" y="261"/>
      <point x="505" y="343" type="curve"/>
      <point x="469" y="353"/>
      <point x="460" y="357"/>
    </contour>
  </outline>
</glyph>
<glyph name="sterling" format="1">
  <advance width="412"/>
  <unicode hex="00A3"/>
  <outline>
    <contour>
      <point x="346" y="79" type="curve"/>
      <point x="247" y="79"/>
      <point x="144" y="79"/>
      <point x="46" y="79" type="curve"/>
      <point x="46" y="0"/>
      <point x="46" y="79"/>
      <point x="46" y="0" type="curve"/>
      <point x="144" y="0"/>
      <point x="248" y="0"/>
      <point x="346" y="0" type="curve"/>
      <point x="346" y="79"/>
      <point x="346" y="0"/>
    </contour>
    <contour>
      <point x="307" y="415" type="curve"/>
      <point x="228" y="415"/>
      <point x="142" y="415"/>
      <point x="65" y="415" type="curve"/>
      <point x="65" y="336"/>
      <point x="65" y="415"/>
      <point x="65" y="336" type="curve"/>
      <point x="142" y="336"/>
      <point x="228" y="336"/>
      <point x="307" y="336" type="curve"/>
      <point x="307" y="415"/>
      <point x="307" y="336"/>
    </contour>
    <contour>
      <point x="370" y="666" type="curve"/>
      <point x="333" y="707"/>
      <point x="300" y="722"/>
      <point x="252" y="722" type="curve"/>
      <point x="98" y="722"/>
      <point x="78" y="558"/>
      <point x="110" y="367" type="curve"/>
      <point x="133" y="219"/>
      <point x="142" y="79"/>
      <point x="46" y="79" type="curve"/>
      <point x="46" y="0"/>
      <point x="46" y="79"/>
      <point x="46" y="0" type="curve"/>
      <point x="216" y="0"/>
      <point x="232" y="178"/>
      <point x="200" y="384" type="curve"/>
      <point x="178" y="518"/>
      <point x="168" y="646"/>
      <point x="247" y="646" type="curve"/>
      <point x="278" y="646"/>
      <point x="296" y="629"/>
      <point x="318" y="609" type="curve"/>
      <point x="370" y="666"/>
      <point x="318" y="609"/>
    </contour>
  </outline>
</glyph>
<glyph name="section" format="1">
  <advance width="447"/>
  <unicode hex="00A7"/>
  <outline>
    <contour>
      <point x="351" y="702" type="curve"/>
      <point x="309" y="734"/>
      <point x="277" y="749"/>
      <point x="227" y="749" type="curve"/>
      <point x="135" y="749"/>
      <point x="80" y="693"/>
      <point x="80" y="606" type="curve"/>
      <point x="80" y="528"/>
      <point x="119" y="478"/>
      <point x="191" y="447" type="curve"/>
      <point x="242" y="424"/>
      <point x="294" y="410"/>
      <point x="294" y="361" type="curve"/>
      <point x="294" y="310"/>
      <point x="270" y="275"/>
      <point x="220" y="263" type="curve"/>
      <point x="280" y="199"/>
      <point x="220" y="263"/>
      <point x="280" y="199" type="curve"/>
      <point x="358" y="222"/>
      <point x="395" y="280"/>
      <point x="395" y="361" type="curve"/>
      <point x="394" y="450"/>
      <point x="326" y="487"/>
      <point x="241" y="522" type="curve"/>
      <point x="203" y="538"/>
      <point x="175" y="564"/>
      <point x="175" y="606" type="curve"/>
      <point x="175" y="640"/>
      <point x="191" y="671"/>
      <point x="227" y="671" type="curve"/>
      <point x="262" y="671"/>
      <point x="279" y="658"/>
      <point x="304" y="640" type="curve"/>
      <point x="351" y="702"/>
      <point x="304" y="640"/>
    </contour>
    <contour>
      <point x="168" y="523" type="curve"/>
      <point x="94" y="494"/>
      <point x="54" y="444"/>
      <point x="54" y="366" type="curve"/>
      <point x="54" y="281"/>
      <point x="110" y="236"/>
      <point x="192" y="203" type="curve"/>
      <point x="235" y="184"/>
      <point x="276" y="168"/>
      <point x="276" y="121" type="curve"/>
      <point x="276" y="82"/>
      <point x="258" y="51"/>
      <point x="224" y="51" type="curve"/>
      <point x="185" y="51"/>
      <point x="165" y="68"/>
      <point x="136" y="94" type="curve"/>
      <point x="80" y="38"/>
      <point x="136" y="94"/>
      <point x="80" y="38" type="curve"/>
      <point x="124" y="-8"/>
      <point x="164" y="-27"/>
      <point x="222" y="-27" type="curve"/>
      <point x="314" y="-27"/>
      <point x="374" y="29"/>
      <point x="374" y="121" type="curve"/>
      <point x="373" y="200"/>
      <point x="330" y="248"/>
      <point x="256" y="278" type="curve"/>
      <point x="204" y="300"/>
      <point x="155" y="316"/>
      <point x="155" y="366" type="curve"/>
      <point x="155" y="413"/>
      <point x="175" y="446"/>
      <point x="218" y="464" type="curve"/>
      <point x="168" y="523"/>
      <point x="218" y="464"/>
    </contour>
    <contour>
      <point x="160" y="38" type="curve"/>
      <point x="160" y="158"/>
      <point x="160" y="34"/>
      <point x="160" y="154" type="curve"/>
      <point x="80" y="154"/>
      <point x="160" y="154"/>
      <point x="80" y="154" type="curve"/>
      <point x="80" y="34"/>
      <point x="80" y="158"/>
      <point x="80" y="38" type="curve"/>
      <point x="160" y="38"/>
      <point x="80" y="38"/>
    </contour>
    <contour>
      <point x="351" y="585" type="curve"/>
      <point x="351" y="705"/>
      <point x="351" y="582"/>
      <point x="351" y="702" type="curve"/>
      <point x="271" y="702"/>
      <point x="351" y="702"/>
      <point x="271" y="702" type="curve"/>
      <point x="271" y="582"/>
      <point x="271" y="705"/>
      <point x="271" y="585" type="curve"/>
      <point x="351" y="585"/>
      <point x="271" y="585"/>
    </contour>
  </outline>
</glyph>
<glyph name="dieresis" format="1">
  <advance width="359"/>
  <unicode hex="00A8"/>
  <outline>
    <contour>
      <point x="166" y="623" type="move" name="_top"/>
    </contour>
    <contour>
      <point x="141" y="670" type="curve"/>
      <point x="141" y="704"/>
      <point x="118" y="722"/>
      <point x="86" y="722" type="curve"/>
      <point x="54" y="722"/>
      <point x="33" y="703"/>
      <point x="33" y="670" type="curve"/>
      <point x="141" y="670"/>
      <point x="33" y="670"/>
      <point x="141" y="670" type="curve"/>
      <point x="141" y="634"/>
      <point x="119" y="618"/>
      <point x="86" y="618" type="curve"/>
      <point x="54" y="618"/>
      <point x="33" y="635"/>
      <point x="33" y="670" type="curve"/>
      <point x="141" y="670"/>
      <point x="33" y="670"/>
    </contour>
    <contour>
      <point x="300" y="670" type="curve"/>
      <point x="300" y="704"/>
      <point x="277" y="722"/>
      <point x="245" y="722" type="curve"/>
      <point x="213" y="722"/>
      <point x="192" y="703"/>
      <point x="192" y="670" type="curve"/>
      <point x="300" y="670"/>
      <point x="192" y="670"/>
      <point x="300" y="670" type="curve"/>
      <point x="300" y="634"/>
      <point x="278" y="618"/>
      <point x="245" y="618" type="curve"/>
      <point x="213" y="618"/>
      <point x="192" y="635"/>
      <point x="192" y="670" type="curve"/>
      <point x="300" y="670"/>
      <point x="192" y="670"/>
    </contour>
  </outline>
</glyph>
<glyph name="copyright" format="1">
  <advance width="635"/>
  <unicode hex="00A9"/>
  <outline>
    <contour>
      <point x="136" y="322" type="curve"/>
      <point x="136" y="463"/>
      <point x="194" y="581"/>
      <point x="321" y="581" type="curve"/>
      <point x="445" y="581"/>
      <point x="501" y="461"/>
      <point x="501" y="321" type="curve"/>
      <point x="501" y="184"/>
      <point x="448" y="67"/>
      <point x="327" y="67" type="curve"/>
      <point x="201" y="67"/>
      <point x="136" y="182"/>
      <point x="136" y="322" type="curve"/>
      <point x="53" y="322"/>
      <point x="138" y="322"/>
      <point x="55" y="322" type="curve"/>
      <point x="55" y="143"/>
      <point x="153" y="2"/>
      <point x="323" y="2" type="curve"/>
      <point x="490" y="2"/>
      <point x="581" y="144"/>
      <point x="581" y="324" type="curve"/>
      <point x="581" y="503"/>
      <point x="488" y="645"/>
      <point x="321" y="645" type="curve"/>
      <point x="151" y="645"/>
      <point x="55" y="504"/>
      <point x="55" y="322" type="curve"/>
      <point x="138" y="322"/>
      <point x="53" y="322"/>
    </contour>
    <contour>
      <point x="362" y="429" type="curve"/>
      <point x="362" y="415"/>
      <point x="362" y="391"/>
      <point x="362" y="373" type="curve"/>
      <point x="437" y="373"/>
      <point x="362" y="373"/>
      <point x="437" y="373" type="curve"/>
      <point x="437" y="403"/>
      <point x="437" y="439"/>
      <point x="437" y="463" type="curve"/>
      <point x="362" y="429"/>
      <point x="437" y="463"/>
    </contour>
    <contour>
      <point x="437" y="463" type="curve"/>
      <point x="406" y="495"/>
      <point x="371" y="507"/>
      <point x="327" y="507" type="curve"/>
      <point x="225" y="507"/>
      <point x="179" y="429"/>
      <point x="179" y="322" type="curve"/>
      <point x="179" y="217"/>
      <point x="218" y="141"/>
      <point x="315" y="141" type="curve"/>
      <point x="366" y="141"/>
      <point x="402" y="152"/>
      <point x="437" y="201" type="curve"/>
      <point x="385" y="239"/>
      <point x="437" y="201"/>
      <point x="385" y="239" type="curve"/>
      <point x="365" y="219"/>
      <point x="348" y="206"/>
      <point x="318" y="206" type="curve"/>
      <point x="264" y="206"/>
      <point x="255" y="261"/>
      <point x="255" y="325" type="curve"/>
      <point x="255" y="389"/>
      <point x="267" y="442"/>
      <point x="323" y="442" type="curve"/>
      <point x="340" y="442"/>
      <point x="352" y="438"/>
      <point x="362" y="429" type="curve"/>
      <point x="437" y="463"/>
      <point x="362" y="429"/>
    </contour>
  </outline>
</glyph>
<glyph name="ordfeminine" format="1">
  <advance width="380"/>
  <unicode hex="00AA"/>
  <outline>
    <contour>
      <point x="71" y="720" type="curve"/>
      <point x="71" y="666"/>
      <point x="71" y="708"/>
      <point x="71" y="655" type="curve"/>
      <point x="121" y="655"/>
      <point x="76" y="655"/>
      <point x="126" y="655" type="curve"/>
      <point x="126" y="708"/>
      <point x="126" y="666"/>
      <point x="126" y="720" type="curve"/>
      <point x="76" y="720"/>
      <point x="121" y="720"/>
    </contour>
    <contour>
      <point x="288" y="426" type="curve"/>
      <point x="288" y="510"/>
      <point x="288" y="585"/>
      <point x="288" y="669" type="curve"/>
      <point x="288" y="736"/>
      <point x="244" y="769"/>
      <point x="178" y="769" type="curve"/>
      <point x="130" y="769"/>
      <point x="97" y="748"/>
      <point x="71" y="720" type="curve"/>
      <point x="96" y="679"/>
      <point x="75" y="716"/>
      <point x="99" y="675" type="curve"/>
      <point x="115" y="693"/>
      <point x="136" y="713"/>
      <point x="169" y="713" type="curve"/>
      <point x="202" y="713"/>
      <point x="221" y="693"/>
      <point x="221" y="660" type="curve"/>
      <point x="221" y="578"/>
      <point x="221" y="507"/>
      <point x="221" y="426" type="curve"/>
      <point x="283" y="426"/>
      <point x="226" y="426"/>
    </contour>
    <contour>
      <point x="255" y="426" type="curve"/>
      <point x="278" y="426"/>
      <point x="300" y="426"/>
      <point x="323" y="426" type="curve"/>
      <point x="323" y="475"/>
      <point x="323" y="431"/>
      <point x="323" y="480" type="curve"/>
      <point x="265" y="480"/>
      <point x="313" y="480"/>
      <point x="255" y="480" type="curve"/>
      <point x="255" y="431"/>
      <point x="255" y="475"/>
    </contour>
    <contour>
      <point x="253" y="643" type="curve"/>
      <point x="217" y="638"/>
      <point x="196" y="635"/>
      <point x="161" y="629" type="curve"/>
      <point x="98" y="619"/>
      <point x="55" y="589"/>
      <point x="55" y="526" type="curve"/>
      <point x="55" y="463"/>
      <point x="89" y="424"/>
      <point x="152" y="424" type="curve"/>
      <point x="213" y="424"/>
      <point x="238" y="472"/>
      <point x="271" y="518" type="curve"/>
      <point x="240" y="544"/>
      <point x="269" y="521"/>
      <point x="237" y="547" type="curve"/>
      <point x="220" y="509"/>
      <point x="206" y="477"/>
      <point x="168" y="477" type="curve"/>
      <point x="136" y="477"/>
      <point x="121" y="498"/>
      <point x="121" y="530" type="curve"/>
      <point x="121" y="557"/>
      <point x="138" y="577"/>
      <point x="162" y="582" type="curve"/>
      <point x="199" y="588"/>
      <point x="218" y="591"/>
      <point x="255" y="598" type="curve"/>
      <point x="253" y="639"/>
      <point x="255" y="602"/>
    </contour>
  </outline>
</glyph>
<glyph name="logicalnot" format="1">
  <advance width="554"/>
  <unicode hex="00AC"/>
  <outline>
    <contour>
      <point x="82" y="270" type="curve"/>
      <point x="481" y="270" type="line"/>
      <point x="481" y="356"/>
      <point x="481" y="270"/>
      <point x="481" y="356" type="curve"/>
      <point x="82" y="356" type="line"/>
      <point x="82" y="270"/>
      <point x="82" y="356"/>
    </contour>
    <contour>
      <point x="481" y="143" type="curve"/>
      <point x="481" y="356" type="line"/>
      <point x="381" y="356"/>
      <point x="482" y="356"/>
      <point x="381" y="356" type="curve"/>
      <point x="381" y="143" type="line"/>
      <point x="482" y="143"/>
      <point x="381" y="143"/>
    </contour>
  </outline>
</glyph>
<glyph name="macron" format="1">
  <advance width="256"/>
  <unicode hex="00AF"/>
  <outline>
    <contour>
      <point x="112" y="605" type="move" name="_top"/>
    </contour>
    <contour>
      <point x="193" y="683" type="curve"/>
      <point x="139" y="683"/>
      <point x="83" y="683"/>
      <point x="28" y="683" type="curve"/>
      <point x="28" y="605"/>
      <point x="28" y="683"/>
      <point x="28" y="605" type="curve"/>
      <point x="83" y="605"/>
      <point x="139" y="605"/>
      <point x="193" y="605" type="curve"/>
      <point x="193" y="683"/>
      <point x="193" y="605"/>
    </contour>
  </outline>
</glyph>
<glyph name="twosuperior" format="1">
  <advance width="400"/>
  <unicode hex="00B2"/>
  <outline>
    <contour>
      <point x="213" y="783" type="move" name="_top"/>
    </contour>
    <contour>
      <point x="195" y="357" type="move" name="_bottom"/>
    </contour>
    <contour>
      <point x="341" y="357" type="curve"/>
      <point x="341" y="400"/>
      <point x="341" y="432"/>
      <point x="341" y="476" type="curve"/>
      <point x="266" y="476"/>
      <point x="354" y="476"/>
      <point x="279" y="476" type="curve"/>
      <point x="279" y="454"/>
      <point x="279" y="443"/>
      <point x="279" y="421" type="curve"/>
      <point x="354" y="357"/>
      <point x="266" y="421"/>
    </contour>
    <contour>
      <point x="65" y="357" type="curve"/>
      <point x="155" y="357"/>
      <point x="260" y="357"/>
      <point x="341" y="357" type="curve"/>
      <point x="266" y="421"/>
      <point x="354" y="357"/>
      <point x="279" y="421" type="curve"/>
      <point x="212" y="421"/>
      <point x="132" y="421"/>
      <point x="65" y="421" type="curve"/>
      <point x="65" y="357"/>
      <point x="65" y="421"/>
    </contour>
    <contour>
      <point x="144" y="658" type="curve"/>
      <point x="154" y="690"/>
      <point x="167" y="718"/>
      <point x="201" y="718" type="curve"/>
      <point x="235" y="718"/>
      <point x="249" y="688"/>
      <point x="249" y="649" type="curve"/>
      <point x="249" y="610"/>
      <point x="228" y="587"/>
      <point x="202" y="558" type="curve"/>
      <point x="157" y="512"/>
      <point x="111" y="467"/>
      <point x="65" y="421" type="curve"/>
      <point x="69" y="357"/>
      <point x="65" y="421"/>
      <point x="69" y="357" type="curve"/>
      <point x="128" y="407"/>
      <point x="204" y="456"/>
      <point x="255" y="507" type="curve"/>
      <point x="297" y="553"/>
      <point x="328" y="589"/>
      <point x="328" y="652" type="curve"/>
      <point x="328" y="731"/>
      <point x="281" y="782"/>
      <point x="205" y="782" type="curve"/>
      <point x="143" y="782"/>
      <point x="103" y="754"/>
      <point x="84" y="680" type="curve"/>
      <point x="144" y="658"/>
      <point x="84" y="680"/>
    </contour>
  </outline>
</glyph>
<glyph name="threesuperior" format="1">
  <advance width="363"/>
  <unicode hex="00B3"/>
  <outline>
    <contour>
      <point x="182" y="780" type="move" name="_top"/>
    </contour>
    <contour>
      <point x="177" y="350" type="move" name="_bottom"/>
    </contour>
    <contour>
      <point x="110" y="682" type="curve"/>
      <point x="124" y="699"/>
      <point x="138" y="715"/>
      <point x="161" y="715" type="curve"/>
      <point x="193" y="715"/>
      <point x="210" y="691"/>
      <point x="210" y="657" type="curve"/>
      <point x="210" y="618"/>
      <point x="174" y="600"/>
      <point x="131" y="596" type="curve"/>
      <point x="131" y="541"/>
      <point x="131" y="596"/>
      <point x="131" y="541" type="curve"/>
      <point x="221" y="544"/>
      <point x="292" y="581"/>
      <point x="292" y="662" type="curve"/>
      <point x="292" y="737"/>
      <point x="244" y="780"/>
      <point x="169" y="780" type="curve"/>
      <point x="125" y="780"/>
      <point x="85" y="757"/>
      <point x="61" y="723" type="curve"/>
      <point x="110" y="682"/>
      <point x="61" y="723"/>
    </contour>
    <contour>
      <point x="59" y="385" type="curve"/>
      <point x="88" y="363"/>
      <point x="119" y="350"/>
      <point x="155" y="350" type="curve"/>
      <point x="245" y="348"/>
      <point x="304" y="391"/>
      <point x="304" y="477" type="curve"/>
      <point x="304" y="560"/>
      <point x="225" y="584"/>
      <point x="131" y="588" type="curve"/>
      <point x="131" y="539"/>
      <point x="131" y="588"/>
      <point x="131" y="539" type="curve"/>
      <point x="182" y="536"/>
      <point x="221" y="515"/>
      <point x="221" y="473" type="curve"/>
      <point x="221" y="437"/>
      <point x="199" y="412"/>
      <point x="162" y="414" type="curve"/>
      <point x="140" y="414"/>
      <point x="119" y="420"/>
      <point x="100" y="434" type="curve"/>
      <point x="59" y="385"/>
      <point x="100" y="434"/>
    </contour>
  </outline>
</glyph>
<glyph name="acute" format="1">
  <advance width="360"/>
  <unicode hex="00B4"/>
  <outline>
    <contour>
      <point x="86" y="591" type="move" name="_top"/>
    </contour>
    <contour>
      <point x="131" y="591" type="line"/>
      <point x="237" y="757" type="line"/>
      <point x="113" y="757" type="line"/>
      <point x="35" y="591" type="line"/>
    </contour>
  </outline>
</glyph>
<glyph name="Atilde" format="1">
  <advance width="647"/>
  <unicode hex="00C3"/>
  <outline>
    <contour>
      <point x="112" y="79" type="curve"/>
      <point x="-24" y="79"/>
      <point x="126" y="79"/>
      <point x="-10" y="79" type="curve"/>
      <point x="-10" y="0"/>
      <point x="-10" y="79"/>
      <point x="-10" y="0" type="curve"/>
      <point x="35" y="0"/>
      <point x="67" y="0"/>
      <point x="112" y="0" type="curve"/>
      <point x="112" y="79"/>
      <point x="112" y="0"/>
    </contour>
    <contour>
      <point x="112" y="0" type="curve"/>
      <point x="165" y="0"/>
      <point x="105" y="0"/>
      <point x="263" y="0" type="curve"/>
      <point x="263" y="79"/>
      <point x="263" y="0"/>
      <point x="263" y="79" type="curve"/>
      <point x="105" y="79"/>
      <point x="270" y="79"/>
      <point x="112" y="79" type="curve"/>
      <point x="112" y="0"/>
      <point x="112" y="79"/>
    </contour>
    <contour>
      <point x="513" y="0" type="curve"/>
      <point x="557" y="0"/>
      <point x="589" y="0"/>
      <point x="634" y="0" type="curve"/>
      <point x="634" y="79"/>
      <point x="634" y="0"/>
      <point x="634" y="79" type="curve"/>
      <point x="499" y="79"/>
      <point x="648" y="79"/>
      <point x="513" y="79" type="curve"/>
      <point x="513" y="0"/>
      <point x="513" y="79"/>
    </contour>
    <contour>
      <point x="513" y="79" type="curve"/>
      <point x="354" y="79"/>
      <point x="520" y="79"/>
      <point x="361" y="79" type="curve"/>
      <point x="361" y="0"/>
      <point x="361" y="79"/>
      <point x="361" y="0" type="curve"/>
      <point x="414" y="0"/>
      <point x="459" y="0"/>
      <point x="513" y="0" type="curve"/>
      <point x="513" y="79"/>
      <point x="513" y="0"/>
    </contour>
    <contour>
      <point x="433" y="288" type="curve"/>
      <point x="358" y="288"/>
      <point x="282" y="288"/>
      <point x="207" y="288" type="curve"/>
      <point x="165" y="204"/>
      <point x="207" y="288"/>
      <point x="165" y="204" type="curve"/>
      <point x="265" y="204"/>
      <point x="365" y="204"/>
      <point x="465" y="204" type="curve"/>
      <point x="433" y="288"/>
      <point x="465" y="204"/>
    </contour>
    <contour>
      <point x="573" y="0" type="curve"/>
      <point x="507" y="241"/>
      <point x="436" y="481"/>
      <point x="370" y="722" type="curve"/>
      <point x="278" y="722"/>
      <point x="370" y="722"/>
      <point x="278" y="722" type="curve"/>
      <point x="343" y="482"/>
      <point x="403" y="240"/>
      <point x="468" y="0" type="curve"/>
      <point x="573" y="0"/>
      <point x="468" y="0"/>
    </contour>
    <contour>
      <point x="158" y="0" type="curve"/>
      <point x="231" y="240"/>
      <point x="296" y="482"/>
      <point x="369" y="722" type="curve"/>
      <point x="277" y="722"/>
      <point x="369" y="722"/>
      <point x="277" y="722" type="curve"/>
      <point x="203" y="480"/>
      <point x="122" y="242"/>
      <point x="48" y="0" type="curve"/>
      <point x="158" y="0"/>
      <point x="48" y="0"/>
    </contour>
    <contour>
      <point x="424" y="964" type="curve"/>
      <point x="410" y="923"/>
      <point x="400" y="901"/>
      <point x="379" y="901" type="curve"/>
      <point x="352" y="901"/>
      <point x="340" y="912"/>
      <point x="323" y="931" type="curve"/>
      <point x="299" y="955"/>
      <point x="285" y="969"/>
      <point x="254" y="969" type="curve"/>
      <point x="189" y="969"/>
      <point x="163" y="904"/>
      <point x="147" y="841" type="curve"/>
      <point x="221" y="799"/>
      <point x="147" y="841"/>
      <point x="221" y="799" type="curve"/>
      <point x="237" y="844"/>
      <point x="249" y="866"/>
      <point x="275" y="866" type="curve"/>
      <point x="298" y="866"/>
      <point x="308" y="853"/>
      <point x="322" y="837" type="curve"/>
      <point x="348" y="810"/>
      <point x="365" y="795"/>
      <point x="401" y="795" type="curve"/>
      <point x="466" y="795"/>
      <point x="483" y="858"/>
      <point x="505" y="924" type="curve"/>
      <point x="424" y="964"/>
      <point x="505" y="924"/>
    </contour>
  </outline>
</glyph>
<glyph name="AE" format="1">
  <advance width="791"/>
  <unicode hex="00C6"/>
  <outline>
    <contour>
      <point x="100" y="79" type="curve"/>
      <point x="-8" y="79"/>
      <point x="103" y="79"/>
      <point x="-5" y="79" type="curve"/>
      <point x="-5" y="0"/>
      <point x="-5" y="79"/>
      <point x="-5" y="0" type="curve"/>
      <point x="31" y="0"/>
      <point x="63" y="0"/>
      <point x="100" y="0" type="curve"/>
      <point x="100" y="79"/>
      <point x="100" y="0"/>
    </contour>
    <contour>
      <point x="100" y="0" type="curve"/>
      <point x="149" y="0"/>
      <point x="95" y="0"/>
      <point x="241" y="0" type="curve"/>
      <point x="241" y="79"/>
      <point x="241" y="0"/>
      <point x="241" y="79" type="curve"/>
      <point x="95" y="79"/>
      <point x="247" y="79"/>
      <point x="100" y="79" type="curve"/>
      <point x="100" y="0"/>
      <point x="100" y="79"/>
    </contour>
    <contour>
      <point x="415" y="277" type="curve"/>
      <point x="340" y="277"/>
      <point x="282" y="277"/>
      <point x="207" y="277" type="curve"/>
      <point x="166" y="193"/>
      <point x="207" y="277"/>
      <point x="166" y="193" type="curve"/>
      <point x="265" y="193"/>
      <point x="348" y="193"/>
      <point x="447" y="193" type="curve"/>
      <point x="415" y="277"/>
      <point x="447" y="193"/>
    </contour>
    <contour>
      <point x="147" y="0" type="curve"/>
      <point x="493" y="722" type="line"/>
      <point x="401" y="722"/>
      <point x="493" y="722"/>
      <point x="401" y="722" type="curve"/>
      <point x="37" y="0" type="line"/>
      <point x="147" y="0"/>
      <point x="37" y="0"/>
    </contour>
    <contour>
      <point x="750" y="39" type="curve"/>
      <point x="750" y="159"/>
      <point x="750" y="36"/>
      <point x="750" y="156" type="curve"/>
      <point x="670" y="156"/>
      <point x="750" y="156"/>
      <point x="670" y="156" type="curve"/>
      <point x="670" y="36"/>
      <point x="670" y="159"/>
      <point x="670" y="39" type="curve"/>
      <point x="750" y="39"/>
      <point x="670" y="39"/>
    </contour>
    <contour>
      <point x="646" y="683" type="curve"/>
      <point x="646" y="563"/>
      <point x="646" y="686"/>
      <point x="646" y="566" type="curve"/>
      <point x="725" y="566"/>
      <point x="646" y="566"/>
      <point x="725" y="566" type="curve"/>
      <point x="725" y="686"/>
      <point x="725" y="563"/>
      <point x="725" y="683" type="curve"/>
      <point x="646" y="683"/>
      <point x="725" y="683"/>
    </contour>
    <contour>
      <point x="437" y="79" type="curve"/>
      <point x="301" y="79"/>
      <point x="444" y="79"/>
      <point x="308" y="79" type="curve"/>
      <point x="308" y="0"/>
      <point x="308" y="79"/>
      <point x="308" y="0" type="curve"/>
      <point x="354" y="0"/>
      <point x="392" y="0"/>
      <point x="437" y="0" type="curve"/>
      <point x="437" y="79"/>
      <point x="437" y="0"/>
    </contour>
    <contour>
      <point x="437" y="722" type="curve"/>
      <point x="392" y="722"/>
      <point x="354" y="722"/>
      <point x="308" y="722" type="curve"/>
      <point x="308" y="643"/>
      <point x="308" y="722"/>
      <point x="308" y="643" type="curve"/>
      <point x="444" y="643"/>
      <point x="301" y="643"/>
      <point x="437" y="643" type="curve"/>
      <point x="437" y="722"/>
      <point x="437" y="643"/>
    </contour>
    <contour>
      <point x="439" y="333" type="curve"/>
      <point x="519" y="333"/>
      <point x="599" y="333"/>
      <point x="680" y="333" type="curve"/>
      <point x="680" y="413"/>
      <point x="680" y="333"/>
      <point x="680" y="413" type="curve"/>
      <point x="599" y="413"/>
      <point x="519" y="413"/>
      <point x="439" y="413" type="curve"/>
      <point x="439" y="333"/>
      <point x="439" y="413"/>
    </contour>
    <contour>
      <point x="428" y="643" type="curve"/>
      <point x="527" y="643"/>
      <point x="626" y="643"/>
      <point x="725" y="643" type="curve"/>
      <point x="725" y="722"/>
      <point x="725" y="643"/>
      <point x="725" y="722" type="curve"/>
      <point x="626" y="722"/>
      <point x="527" y="722"/>
      <point x="428" y="722" type="curve"/>
      <point x="428" y="643"/>
      <point x="428" y="722"/>
    </contour>
    <contour>
      <point x="487" y="0" type="curve"/>
      <point x="487" y="722" type="line"/>
      <point x="386" y="722"/>
      <point x="487" y="722"/>
      <point x="386" y="722" type="curve"/>
      <point x="386" y="481"/>
      <point x="386" y="241"/>
      <point x="386" y="0" type="curve"/>
      <point x="487" y="0"/>
      <point x="386" y="0"/>
    </contour>
    <contour>
      <point x="428" y="0" type="curve"/>
      <point x="535" y="0"/>
      <point x="643" y="0"/>
      <point x="750" y="0" type="curve"/>
      <point x="750" y="79"/>
      <point x="750" y="0"/>
      <point x="750" y="79" type="curve"/>
      <point x="643" y="79"/>
      <point x="535" y="79"/>
      <point x="428" y="79" type="curve"/>
      <point x="428" y="0"/>
      <point x="428" y="79"/>
    </contour>
  </outline>
</glyph>
<glyph name="Ecircumflex" format="1">
  <advance width="538"/>
  <unicode hex="00CA"/>
  <outline>
    <contour>
      <point x="496" y="39" type="curve"/>
      <point x="496" y="159"/>
      <point x="496" y="36"/>
      <point x="496" y="156" type="curve"/>
      <point x="416" y="156"/>
      <point x="496" y="156"/>
      <point x="416" y="156" type="curve"/>
      <point x="416" y="36"/>
      <point x="416" y="159"/>
      <point x="416" y="39" type="curve"/>
      <point x="496" y="39"/>
      <point x="416" y="39"/>
    </contour>
    <contour>
      <point x="392" y="683" type="curve"/>
      <point x="392" y="563"/>
      <point x="392" y="686"/>
      <point x="392" y="566" type="curve"/>
      <point x="472" y="566"/>
      <point x="392" y="566"/>
      <point x="472" y="566" type="curve"/>
      <point x="472" y="686"/>
      <point x="472" y="563"/>
      <point x="472" y="683" type="curve"/>
      <point x="392" y="683"/>
      <point x="472" y="683"/>
    </contour>
    <contour>
      <point x="183" y="79" type="curve"/>
      <point x="48" y="79"/>
      <point x="190" y="79"/>
      <point x="55" y="79" type="curve"/>
      <point x="55" y="0"/>
      <point x="55" y="79"/>
      <point x="55" y="0" type="curve"/>
      <point x="100" y="0"/>
      <point x="138" y="0"/>
      <point x="183" y="0" type="curve"/>
      <point x="183" y="79"/>
      <point x="183" y="0"/>
    </contour>
    <contour>
      <point x="183" y="722" type="curve"/>
      <point x="138" y="722"/>
      <point x="100" y="722"/>
      <point x="55" y="722" type="curve"/>
      <point x="55" y="643"/>
      <point x="55" y="722"/>
      <point x="55" y="643" type="curve"/>
      <point x="190" y="643"/>
      <point x="48" y="643"/>
      <point x="183" y="643" type="curve"/>
      <point x="183" y="722"/>
      <point x="183" y="643"/>
    </contour>
    <contour>
      <point x="186" y="333" type="curve"/>
      <point x="265" y="333"/>
      <point x="346" y="333"/>
      <point x="426" y="333" type="curve"/>
      <point x="426" y="413"/>
      <point x="426" y="333"/>
      <point x="426" y="413" type="curve"/>
      <point x="346" y="413"/>
      <point x="265" y="413"/>
      <point x="186" y="413" type="curve"/>
      <point x="186" y="333"/>
      <point x="186" y="413"/>
    </contour>
    <contour>
      <point x="174" y="643" type="curve"/>
      <point x="274" y="643"/>
      <point x="372" y="643"/>
      <point x="472" y="643" type="curve"/>
      <point x="472" y="722"/>
      <point x="472" y="643"/>
      <point x="472" y="722" type="curve"/>
      <point x="372" y="722"/>
      <point x="274" y="722"/>
      <point x="174" y="722" type="curve"/>
      <point x="174" y="643"/>
      <point x="174" y="722"/>
    </contour>
    <contour>
      <point x="233" y="0" type="curve"/>
      <point x="233" y="722" type="line"/>
      <point x="132" y="722"/>
      <point x="233" y="722"/>
      <point x="132" y="722" type="curve"/>
      <point x="132" y="481"/>
      <point x="132" y="241"/>
      <point x="132" y="0" type="curve"/>
      <point x="233" y="0"/>
      <point x="132" y="0"/>
    </contour>
    <contour>
      <point x="174" y="0" type="curve"/>
      <point x="282" y="0"/>
      <point x="389" y="0"/>
      <point x="496" y="0" type="curve"/>
      <point x="496" y="79"/>
      <point x="496" y="0"/>
      <point x="496" y="79" type="curve"/>
      <point x="389" y="79"/>
      <point x="282" y="79"/>
      <point x="174" y="79" type="curve"/>
      <point x="174" y="0"/>
      <point x="174" y="79"/>
    </contour>
    <contour>
      <point x="221" y="796" type="line"/>
      <point x="326" y="962" type="line"/>
      <point x="203" y="962" type="line"/>
      <point x="125" y="796" type="line"/>
    </contour>
    <contour>
      <point x="443" y="796" type="line"/>
      <point x="365" y="962" type="line"/>
      <point x="242" y="962" type="line"/>
      <point x="347" y="796" type="line"/>
    </contour>
  </outline>
</glyph>
<glyph name="Icircumflex" format="1">
  <advance width="332"/>
  <unicode hex="00CE"/>
  <outline>
    <contour>
      <point x="165" y="722" type="curve"/>
      <point x="119" y="722"/>
      <point x="81" y="722"/>
      <point x="36" y="722" type="curve"/>
      <point x="36" y="643"/>
      <point x="36" y="722"/>
      <point x="36" y="643" type="curve"/>
      <point x="172" y="643"/>
      <point x="29" y="643"/>
      <point x="165" y="643" type="curve"/>
      <point x="165" y="722"/>
      <point x="165" y="643"/>
    </contour>
    <contour>
      <point x="165" y="643" type="curve"/>
      <point x="300" y="643"/>
      <point x="157" y="643"/>
      <point x="293" y="643" type="curve"/>
      <point x="293" y="722"/>
      <point x="293" y="643"/>
      <point x="293" y="722" type="curve"/>
      <point x="247" y="722"/>
      <point x="209" y="722"/>
      <point x="165" y="722" type="curve"/>
      <point x="165" y="643"/>
      <point x="165" y="722"/>
    </contour>
    <contour>
      <point x="165" y="0" type="curve"/>
      <point x="209" y="0"/>
      <point x="247" y="0"/>
      <point x="293" y="0" type="curve"/>
      <point x="293" y="79"/>
      <point x="293" y="0"/>
      <point x="293" y="79" type="curve"/>
      <point x="157" y="79"/>
      <point x="300" y="79"/>
      <point x="165" y="79" type="curve"/>
      <point x="165" y="0"/>
      <point x="165" y="79"/>
    </contour>
    <contour>
      <point x="165" y="79" type="curve"/>
      <point x="29" y="79"/>
      <point x="172" y="79"/>
      <point x="36" y="79" type="curve"/>
      <point x="36" y="0"/>
      <point x="36" y="79"/>
      <point x="36" y="0" type="curve"/>
      <point x="81" y="0"/>
      <point x="119" y="0"/>
      <point x="165" y="0" type="curve"/>
      <point x="165" y="79"/>
      <point x="165" y="0"/>
    </contour>
    <contour>
      <point x="214" y="0" type="curve"/>
      <point x="214" y="241"/>
      <point x="214" y="481"/>
      <point x="214" y="722" type="curve"/>
      <point x="113" y="722"/>
      <point x="214" y="722"/>
      <point x="113" y="722" type="curve"/>
      <point x="113" y="481"/>
      <point x="113" y="241"/>
      <point x="113" y="0" type="curve"/>
      <point x="214" y="0"/>
      <point x="113" y="0"/>
    </contour>
    <contour>
      <point x="102" y="796" type="line"/>
      <point x="208" y="962" type="line"/>
      <point x="84" y="962" type="line"/>
      <point x="6" y="796" type="line"/>
    </contour>
    <contour>
      <point x="324" y="796" type="line"/>
      <point x="247" y="962" type="line"/>
      <point x="123" y="962" type="line"/>
      <point x="229" y="796" type="line"/>
    </contour>
  </outline>
</glyph>
<glyph name="Ntilde" format="1">
  <advance width="715"/>
  <unicode hex="00D1"/>
  <outline>
    <contour>
      <point x="166" y="722" type="curve"/>
      <point x="121" y="722"/>
      <point x="84" y="722"/>
      <point x="40" y="722" type="curve"/>
      <point x="40" y="643"/>
      <point x="40" y="722"/>
      <point x="40" y="643" type="curve"/>
      <point x="173" y="643"/>
      <point x="33" y="643"/>
      <point x="166" y="643" type="curve"/>
      <point x="166" y="722"/>
      <point x="166" y="643"/>
    </contour>
    <contour>
      <point x="561" y="643" type="curve"/>
      <point x="693" y="643"/>
      <point x="554" y="643"/>
      <point x="686" y="643" type="curve"/>
      <point x="686" y="722"/>
      <point x="686" y="643"/>
      <point x="686" y="722" type="curve"/>
      <point x="642" y="722"/>
      <point x="605" y="722"/>
      <point x="561" y="722" type="curve"/>
      <point x="561" y="643"/>
      <point x="561" y="722"/>
    </contour>
    <contour>
      <point x="561" y="722" type="curve"/>
      <point x="518" y="722"/>
      <point x="482" y="722"/>
      <point x="439" y="722" type="curve"/>
      <point x="439" y="643"/>
      <point x="439" y="722"/>
      <point x="439" y="643" type="curve"/>
      <point x="568" y="643"/>
      <point x="432" y="643"/>
      <point x="561" y="643" type="curve"/>
      <point x="561" y="722"/>
      <point x="561" y="643"/>
    </contour>
    <contour>
      <point x="165" y="79" type="curve"/>
      <point x="32" y="79"/>
      <point x="172" y="79"/>
      <point x="39" y="79" type="curve"/>
      <point x="39" y="0"/>
      <point x="39" y="79"/>
      <point x="39" y="0" type="curve"/>
      <point x="83" y="0"/>
      <point x="120" y="0"/>
      <point x="165" y="0" type="curve"/>
      <point x="165" y="79"/>
      <point x="165" y="0"/>
    </contour>
    <contour>
      <point x="165" y="0" type="curve"/>
      <point x="207" y="0"/>
      <point x="158" y="0"/>
      <point x="287" y="0" type="curve"/>
      <point x="287" y="79"/>
      <point x="287" y="0"/>
      <point x="287" y="79" type="curve"/>
      <point x="158" y="79"/>
      <point x="294" y="79"/>
      <point x="165" y="79" type="curve"/>
      <point x="165" y="0"/>
      <point x="165" y="79"/>
    </contour>
    <contour>
      <point x="611" y="0" type="curve"/>
      <point x="480" y="241"/>
      <point x="349" y="481"/>
      <point x="219" y="722" type="curve"/>
      <point x="114" y="722"/>
      <point x="220" y="722"/>
      <point x="114" y="722" type="curve"/>
      <point x="244" y="481"/>
      <point x="375" y="241"/>
      <point x="506" y="0" type="curve"/>
      <point x="611" y="0"/>
      <point x="505" y="0"/>
    </contour>
    <contour>
      <point x="510" y="722" type="curve"/>
      <point x="510" y="481"/>
      <point x="510" y="241"/>
      <point x="510" y="0" type="curve"/>
      <point x="610" y="0"/>
      <point x="510" y="0"/>
      <point x="610" y="0" type="curve"/>
      <point x="610" y="241"/>
      <point x="610" y="481"/>
      <point x="610" y="722" type="curve"/>
      <point x="510" y="722"/>
      <point x="610" y="722"/>
    </contour>
    <contour>
      <point x="215" y="0" type="curve"/>
      <point x="215" y="241"/>
      <point x="215" y="481"/>
      <point x="215" y="722" type="curve"/>
      <point x="114" y="722"/>
      <point x="215" y="722"/>
      <point x="114" y="722" type="curve"/>
      <point x="114" y="481"/>
      <point x="114" y="241"/>
      <point x="114" y="0" type="curve"/>
      <point x="215" y="0"/>
      <point x="114" y="0"/>
    </contour>
    <contour>
      <point x="468" y="964" type="curve"/>
      <point x="453" y="923"/>
      <point x="444" y="901"/>
      <point x="423" y="901" type="curve"/>
      <point x="396" y="901"/>
      <point x="384" y="912"/>
      <point x="366" y="931" type="curve"/>
      <point x="343" y="955"/>
      <point x="329" y="969"/>
      <point x="298" y="969" type="curve"/>
      <point x="233" y="969"/>
      <point x="207" y="904"/>
      <point x="191" y="841" type="curve"/>
      <point x="265" y="799"/>
      <point x="191" y="841"/>
      <point x="265" y="799" type="curve"/>
      <point x="280" y="844"/>
      <point x="293" y="866"/>
      <point x="319" y="866" type="curve"/>
      <point x="342" y="866"/>
      <point x="352" y="853"/>
      <point x="366" y="837" type="curve"/>
      <point x="392" y="810"/>
      <point x="409" y="795"/>
      <point x="445" y="795" type="curve"/>
      <point x="509" y="795"/>
      <point x="527" y="858"/>
      <point x="548" y="924" type="curve"/>
      <point x="468" y="964"/>
      <point x="548" y="924"/>
    </contour>
  </outline>
</glyph>
<glyph name="Oacute" format="1">
  <advance width="632"/>
  <unicode hex="00D3"/>
  <outline>
    <contour>
      <point x="155" y="360" type="curve"/>
      <point x="155" y="512"/>
      <point x="180" y="645"/>
      <point x="313" y="645" type="curve"/>
      <point x="444" y="645"/>
      <point x="477" y="515"/>
      <point x="477" y="363" type="curve"/>
      <point x="477" y="211"/>
      <point x="451" y="78"/>
      <point x="318" y="78" type="curve"/>
      <point x="186" y="78"/>
      <point x="155" y="207"/>
      <point x="155" y="360" type="curve"/>
      <point x="54" y="360"/>
      <point x="155" y="360"/>
      <point x="54" y="360" type="curve"/>
      <point x="54" y="155"/>
      <point x="129" y="-5"/>
      <point x="314" y="-5" type="curve"/>
      <point x="501" y="-5"/>
      <point x="578" y="156"/>
      <point x="578" y="363" type="curve"/>
      <point x="578" y="566"/>
      <point x="504" y="727"/>
      <point x="318" y="727" type="curve"/>
      <point x="132" y="727"/>
      <point x="54" y="566"/>
      <point x="54" y="360" type="curve"/>
      <point x="155" y="360"/>
      <point x="54" y="360"/>
    </contour>
    <contour>
      <point x="362" y="795" type="line"/>
      <point x="467" y="961" type="line"/>
      <point x="344" y="961" type="line"/>
      <point x="266" y="795" type="line"/>
    </contour>
  </outline>
</glyph>
<glyph name="multiply" format="1">
  <advance width="578"/>
  <unicode hex="00D7"/>
  <outline>
    <contour>
      <point x="117" y="73" type="line"/>
      <point x="519" y="489" type="line"/>
      <point x="461" y="547" type="line"/>
      <point x="58" y="132" type="line"/>
    </contour>
    <contour>
      <point x="519" y="130" type="line"/>
      <point x="117" y="545" type="line"/>
      <point x="58" y="487" type="line"/>
      <point x="461" y="71" type="line"/>
    </contour>
  </outline>
</glyph>
<glyph name="Oslash" format="1">
  <advance width="632"/>
  <unicode hex="00D8"/>
  <outline>
    <contour>
      <point x="188" y="-62" type="line"/>
      <point x="514" y="749" type="line"/>
      <point x="447" y="773" type="line"/>
      <point x="122" y="-31" type="line"/>
    </contour>
    <contour>
      <point x="155" y="360" type="curve"/>
      <point x="155" y="512"/>
      <point x="180" y="645"/>
      <point x="313" y="645" type="curve"/>
      <point x="444" y="645"/>
      <point x="477" y="515"/>
      <point x="477" y="363" type="curve"/>
      <point x="477" y="211"/>
      <point x="451" y="78"/>
      <point x="318" y="78" type="curve"/>
      <point x="186" y="78"/>
      <point x="155" y="207"/>
      <point x="155" y="360" type="curve"/>
      <point x="54" y="360"/>
      <point x="155" y="360"/>
      <point x="54" y="360" type="curve"/>
      <point x="54" y="155"/>
      <point x="129" y="-5"/>
      <point x="314" y="-5" type="curve"/>
      <point x="501" y="-5"/>
      <point x="578" y="156"/>
      <point x="578" y="363" type="curve"/>
      <point x="578" y="566"/>
      <point x="504" y="727"/>
      <point x="318" y="727" type="curve"/>
      <point x="132" y="727"/>
      <point x="54" y="566"/>
      <point x="54" y="360" type="curve"/>
      <point x="155" y="360"/>
      <point x="54" y="360"/>
    </contour>
  </outline>
</glyph>
<glyph name="Thorn" format="1">
  <advance width="529"/>
  <unicode hex="00DE"/>
  <outline>
    <contour>
      <point x="176" y="722" type="curve"/>
      <point x="137" y="722"/>
      <point x="96" y="722"/>
      <point x="55" y="722" type="curve"/>
      <point x="55" y="643"/>
      <point x="55" y="722"/>
      <point x="55" y="643" type="curve"/>
      <point x="176" y="643"/>
      <point x="55" y="643"/>
      <point x="176" y="643" type="curve"/>
      <point x="176" y="722"/>
      <point x="176" y="643"/>
    </contour>
    <contour>
      <point x="176" y="79" type="curve"/>
      <point x="55" y="79"/>
      <point x="176" y="79"/>
      <point x="55" y="79" type="curve"/>
      <point x="55" y="0"/>
      <point x="55" y="79"/>
      <point x="55" y="0" type="curve"/>
      <point x="96" y="0"/>
      <point x="137" y="0"/>
      <point x="176" y="0" type="curve"/>
      <point x="176" y="79"/>
      <point x="176" y="0"/>
    </contour>
    <contour>
      <point x="176" y="0" type="curve"/>
      <point x="216" y="0"/>
      <point x="176" y="0"/>
      <point x="295" y="0" type="curve"/>
      <point x="295" y="79"/>
      <point x="295" y="0"/>
      <point x="295" y="79" type="curve"/>
      <point x="176" y="79"/>
      <point x="295" y="79"/>
      <point x="176" y="79" type="curve"/>
      <point x="176" y="0"/>
      <point x="176" y="79"/>
    </contour>
    <contour>
      <point x="162" y="214" type="curve"/>
      <point x="205" y="186"/>
      <point x="251" y="167"/>
      <point x="306" y="167" type="curve"/>
      <point x="423" y="169"/>
      <point x="492" y="253"/>
      <point x="492" y="384" type="curve"/>
      <point x="492" y="507"/>
      <point x="413" y="596"/>
      <point x="278" y="596" type="curve"/>
      <point x="245" y="596"/>
      <point x="212" y="596"/>
      <point x="179" y="596" type="curve"/>
      <point x="179" y="517"/>
      <point x="179" y="596"/>
      <point x="179" y="517" type="curve"/>
      <point x="207" y="517"/>
      <point x="236" y="517"/>
      <point x="265" y="517" type="curve"/>
      <point x="349" y="517"/>
      <point x="391" y="457"/>
      <point x="391" y="380" type="curve"/>
      <point x="391" y="305"/>
      <point x="364" y="244"/>
      <point x="295" y="244" type="curve"/>
      <point x="254" y="244"/>
      <point x="228" y="258"/>
      <point x="194" y="280" type="curve"/>
      <point x="163" y="216"/>
      <point x="194" y="279"/>
    </contour>
    <contour>
      <point x="226" y="0" type="curve"/>
      <point x="226" y="241"/>
      <point x="226" y="481"/>
      <point x="226" y="722" type="curve"/>
      <point x="125" y="722"/>
      <point x="226" y="722"/>
      <point x="125" y="722" type="curve"/>
      <point x="125" y="481"/>
      <point x="125" y="241"/>
      <point x="125" y="0" type="curve"/>
      <point x="226" y="0"/>
      <point x="125" y="0"/>
    </contour>
    <contour>
      <point x="176" y="643" type="curve"/>
      <point x="216" y="643"/>
      <point x="176" y="643"/>
      <point x="295" y="643" type="curve"/>
      <point x="295" y="722"/>
      <point x="295" y="643"/>
      <point x="295" y="722" type="curve"/>
      <point x="176" y="722"/>
      <point x="295" y="722"/>
      <point x="176" y="722" type="curve"/>
      <point x="176" y="643"/>
      <point x="176" y="722"/>
    </contour>
  </outline>
</glyph>
<glyph name="aacute" format="1">
  <advance width="494"/>
  <unicode hex="00E1"/>
  <outline>
    <contour>
      <point x="72" y="462" type="curve"/>
      <point x="72" y="347"/>
      <point x="72" y="466"/>
      <point x="72" y="351" type="curve"/>
      <point x="152" y="351"/>
      <point x="72" y="351"/>
      <point x="152" y="351" type="curve"/>
      <point x="152" y="466"/>
      <point x="152" y="347"/>
      <point x="152" y="462" type="curve"/>
      <point x="72" y="462"/>
      <point x="152" y="462"/>
    </contour>
    <contour>
      <point x="407" y="0" type="curve"/>
      <point x="407" y="125"/>
      <point x="407" y="252"/>
      <point x="407" y="377" type="curve"/>
      <point x="407" y="487"/>
      <point x="343" y="538"/>
      <point x="239" y="538" type="curve"/>
      <point x="163" y="538"/>
      <point x="110" y="504"/>
      <point x="72" y="462" type="curve"/>
      <point x="112" y="396"/>
      <point x="72" y="462"/>
      <point x="112" y="396" type="curve"/>
      <point x="136" y="423"/>
      <point x="172" y="456"/>
      <point x="225" y="456" type="curve"/>
      <point x="281" y="456"/>
      <point x="306" y="422"/>
      <point x="306" y="363" type="curve"/>
      <point x="306" y="242"/>
      <point x="306" y="121"/>
      <point x="306" y="0" type="curve"/>
      <point x="407" y="0"/>
      <point x="306" y="0"/>
    </contour>
    <contour>
      <point x="358" y="0" type="curve"/>
      <point x="398" y="0"/>
      <point x="436" y="0"/>
      <point x="476" y="0" type="curve"/>
      <point x="476" y="79"/>
      <point x="476" y="0"/>
      <point x="476" y="79" type="curve"/>
      <point x="355" y="79"/>
      <point x="479" y="79"/>
      <point x="358" y="79" type="curve"/>
      <point x="358" y="0"/>
      <point x="358" y="79"/>
    </contour>
    <contour>
      <point x="353" y="340" type="curve"/>
      <point x="297" y="330"/>
      <point x="265" y="327"/>
      <point x="208" y="317" type="curve"/>
      <point x="111" y="301"/>
      <point x="49" y="254"/>
      <point x="49" y="156" type="curve"/>
      <point x="49" y="57"/>
      <point x="95" y="-5"/>
      <point x="192" y="-5" type="curve"/>
      <point x="293" y="-5"/>
      <point x="332" y="79"/>
      <point x="383" y="152" type="curve"/>
      <point x="331" y="197"/>
      <point x="383" y="152"/>
      <point x="331" y="197" type="curve"/>
      <point x="306" y="133"/>
      <point x="279" y="74"/>
      <point x="216" y="74" type="curve"/>
      <point x="163" y="74"/>
      <point x="147" y="108"/>
      <point x="147" y="161" type="curve"/>
      <point x="147" y="206"/>
      <point x="173" y="239"/>
      <point x="210" y="246" type="curve"/>
      <point x="271" y="257"/>
      <point x="297" y="262"/>
      <point x="358" y="272" type="curve"/>
      <point x="353" y="340"/>
      <point x="358" y="272"/>
    </contour>
    <contour>
      <point x="286" y="631" type="line"/>
      <point x="392" y="797" type="line"/>
      <point x="269" y="797" type="line"/>
      <point x="191" y="631" type="line"/>
    </contour>
  </outline>
</glyph>
<glyph name="ccedilla" format="1">
  <advance width="458"/>
  <unicode hex="00E7"/>
  <outline>
    <contour>
      <point x="324" y="470" type="curve"/>
      <point x="324" y="350"/>
      <point x="324" y="474"/>
      <point x="324" y="354" type="curve"/>
      <point x="404" y="354"/>
      <point x="324" y="354"/>
      <point x="404" y="354" type="curve"/>
      <point x="404" y="474"/>
      <point x="404" y="350"/>
      <point x="404" y="470" type="curve"/>
      <point x="324" y="470"/>
      <point x="404" y="470"/>
    </contour>
    <contour>
      <point x="404" y="470" type="curve"/>
      <point x="366" y="508"/>
      <point x="315" y="538"/>
      <point x="259" y="538" type="curve"/>
      <point x="112" y="538"/>
      <point x="47" y="430"/>
      <point x="47" y="267" type="curve"/>
      <point x="47" y="104"/>
      <point x="109" y="-5"/>
      <point x="257" y="-5" type="curve"/>
      <point x="321" y="-5"/>
      <point x="380" y="28"/>
      <point x="414" y="93" type="curve"/>
      <point x="346" y="140"/>
      <point x="414" y="93"/>
      <point x="346" y="140" type="curve"/>
      <point x="327" y="110"/>
      <point x="299" y="77"/>
      <point x="262" y="77" type="curve"/>
      <point x="171" y="77"/>
      <point x="147" y="160"/>
      <point x="147" y="267" type="curve"/>
      <point x="147" y="374"/>
      <point x="170" y="456"/>
      <point x="258" y="456" type="curve"/>
      <point x="291" y="456"/>
      <point x="322" y="437"/>
      <point x="344" y="415" type="curve"/>
      <point x="404" y="470"/>
      <point x="344" y="415"/>
    </contour>
    <contour>
      <point x="208" y="57" type="curve"/>
      <point x="198" y="34"/>
      <point x="169" y="-38"/>
      <point x="159" y="-61" type="curve"/>
      <point x="228" y="-124"/>
      <point x="159" y="-61"/>
      <point x="228" y="-124" type="curve"/>
      <point x="239" y="-97"/>
      <point x="274" y="-24"/>
      <point x="286" y="2" type="curve"/>
      <point x="208" y="57"/>
      <point x="286" y="2"/>
    </contour>
    <contour>
      <point x="228" y="-124" type="curve"/>
      <point x="234" y="-118"/>
      <point x="239" y="-114"/>
      <point x="248" y="-114" type="curve"/>
      <point x="261" y="-114"/>
      <point x="267" y="-125"/>
      <point x="267" y="-142" type="curve"/>
      <point x="267" y="-162"/>
      <point x="254" y="-173"/>
      <point x="234" y="-173" type="curve"/>
      <point x="216" y="-173"/>
      <point x="201" y="-169"/>
      <point x="186" y="-158" type="curve"/>
      <point x="148" y="-215"/>
      <point x="186" y="-158"/>
      <point x="148" y="-215" type="curve"/>
      <point x="173" y="-234"/>
      <point x="198" y="-241"/>
      <point x="230" y="-241" type="curve"/>
      <point x="291" y="-241"/>
      <point x="331" y="-205"/>
      <point x="331" y="-141" type="curve"/>
      <point x="331" y="-80"/>
      <point x="297" y="-39"/>
      <point x="238" y="-39" type="curve"/>
      <point x="208" y="-39"/>
      <point x="186" y="-45"/>
      <point x="159" y="-61" type="curve"/>
      <point x="228" y="-124"/>
      <point x="159" y="-61"/>
    </contour>
  </outline>
</glyph>
<glyph name="igrave" format="1">
  <advance width="294"/>
  <unicode hex="00EC"/>
  <outline>
    <contour>
      <point x="155" y="79" type="curve"/>
      <point x="24" y="79"/>
      <point x="158" y="79"/>
      <point x="27" y="79" type="curve"/>
      <point x="26" y="0"/>
      <point x="27" y="79"/>
      <point x="26" y="0" type="curve"/>
      <point x="70" y="0"/>
      <point x="111" y="0"/>
      <point x="155" y="0" type="curve"/>
      <point x="155" y="79"/>
      <point x="155" y="0"/>
    </contour>
    <contour>
      <point x="155" y="0" type="curve"/>
      <point x="196" y="0"/>
      <point x="234" y="0"/>
      <point x="276" y="0" type="curve"/>
      <point x="276" y="79"/>
      <point x="276" y="0"/>
      <point x="276" y="79" type="curve"/>
      <point x="152" y="79"/>
      <point x="279" y="79"/>
      <point x="155" y="79" type="curve"/>
      <point x="155" y="0"/>
      <point x="155" y="79"/>
    </contour>
    <contour>
      <point x="155" y="533" type="curve"/>
      <point x="111" y="533"/>
      <point x="70" y="533"/>
      <point x="27" y="533" type="curve"/>
      <point x="26" y="454"/>
      <point x="27" y="533"/>
      <point x="26" y="454" type="curve"/>
      <point x="158" y="454"/>
      <point x="23" y="454"/>
      <point x="155" y="454" type="curve"/>
      <point x="155" y="533"/>
      <point x="155" y="454"/>
    </contour>
    <contour>
      <point x="208" y="0" type="curve"/>
      <point x="208" y="178"/>
      <point x="208" y="355"/>
      <point x="208" y="533" type="curve"/>
      <point x="102" y="533"/>
      <point x="208" y="533"/>
      <point x="102" y="533" type="curve"/>
      <point x="102" y="355"/>
      <point x="102" y="178"/>
      <point x="102" y="0" type="curve"/>
      <point x="208" y="0"/>
      <point x="102" y="0"/>
    </contour>
    <contour>
      <point x="205" y="632" type="line"/>
      <point x="127" y="798" type="line"/>
      <point x="4" y="798" type="line"/>
      <point x="110" y="632" type="line"/>
    </contour>
  </outline>
</glyph>
<glyph name="iacute" format="1">
  <advance width="297"/>
  <unicode hex="00ED"/>
  <outline>
    <contour>
      <point x="158" y="79" type="curve"/>
      <point x="26" y="79"/>
      <point x="161" y="79"/>
      <point x="29" y="79" type="curve"/>
      <point x="29" y="0"/>
      <point x="29" y="79"/>
      <point x="29" y="0" type="curve"/>
      <point x="73" y="0"/>
      <point x="114" y="0"/>
      <point x="158" y="0" type="curve"/>
      <point x="158" y="79"/>
      <point x="158" y="0"/>
    </contour>
    <contour>
      <point x="158" y="0" type="curve"/>
      <point x="198" y="0"/>
      <point x="237" y="0"/>
      <point x="279" y="0" type="curve"/>
      <point x="279" y="79"/>
      <point x="279" y="0"/>
      <point x="279" y="79" type="curve"/>
      <point x="154" y="79"/>
      <point x="282" y="79"/>
      <point x="158" y="79" type="curve"/>
      <point x="158" y="0"/>
      <point x="158" y="79"/>
    </contour>
    <contour>
      <point x="158" y="533" type="curve"/>
      <point x="114" y="533"/>
      <point x="73" y="533"/>
      <point x="29" y="533" type="curve"/>
      <point x="29" y="454"/>
      <point x="29" y="533"/>
      <point x="29" y="454" type="curve"/>
      <point x="161" y="454"/>
      <point x="26" y="454"/>
      <point x="158" y="454" type="curve"/>
      <point x="158" y="533"/>
      <point x="158" y="454"/>
    </contour>
    <contour>
      <point x="211" y="0" type="curve"/>
      <point x="211" y="178"/>
      <point x="211" y="355"/>
      <point x="211" y="533" type="curve"/>
      <point x="105" y="533"/>
      <point x="211" y="533"/>
      <point x="105" y="533" type="curve"/>
      <point x="105" y="355"/>
      <point x="105" y="178"/>
      <point x="105" y="0" type="curve"/>
      <point x="211" y="0"/>
      <point x="105" y="0"/>
    </contour>
    <contour>
      <point x="204" y="631" type="line"/>
      <point x="310" y="797" type="line"/>
      <point x="186" y="797" type="line"/>
      <point x="108" y="631" type="line"/>
    </contour>
  </outline>
</glyph>
<glyph name="ntilde" format="1">
  <advance width="561"/>
  <unicode hex="00F1"/>
  <outline>
    <contour>
      <point x="187" y="290" type="curve"/>
      <point x="199" y="376"/>
      <point x="241" y="456"/>
      <point x="302" y="456" type="curve"/>
      <point x="367" y="456"/>
      <point x="379" y="395"/>
      <point x="379" y="320" type="curve"/>
      <point x="379" y="213"/>
      <point x="379" y="107"/>
      <point x="379" y="0" type="curve"/>
      <point x="479" y="0"/>
      <point x="379" y="0"/>
      <point x="479" y="0" type="curve"/>
      <point x="479" y="109"/>
      <point x="479" y="219"/>
      <point x="479" y="328" type="curve"/>
      <point x="479" y="448"/>
      <point x="450" y="538"/>
      <point x="337" y="538" type="curve"/>
      <point x="246" y="538"/>
      <point x="176" y="461"/>
      <point x="157" y="337" type="curve"/>
      <point x="188" y="292"/>
      <point x="155" y="335"/>
    </contour>
    <contour>
      <point x="428" y="0" type="curve"/>
      <point x="471" y="0"/>
      <point x="512" y="0"/>
      <point x="556" y="0" type="curve"/>
      <point x="556" y="79"/>
      <point x="556" y="0"/>
      <point x="556" y="79" type="curve"/>
      <point x="425" y="79"/>
      <point x="559" y="79"/>
      <point x="428" y="79" type="curve"/>
      <point x="428" y="0"/>
      <point x="428" y="79"/>
    </contour>
    <contour>
      <point x="157" y="79" type="curve"/>
      <point x="25" y="79"/>
      <point x="160" y="79"/>
      <point x="28" y="79" type="curve"/>
      <point x="28" y="0"/>
      <point x="28" y="79"/>
      <point x="28" y="0" type="curve"/>
      <point x="72" y="0"/>
      <point x="113" y="0"/>
      <point x="157" y="0" type="curve"/>
      <point x="157" y="79"/>
      <point x="157" y="0"/>
    </contour>
    <contour>
      <point x="157" y="0" type="curve"/>
      <point x="197" y="0"/>
      <point x="151" y="0"/>
      <point x="271" y="0" type="curve"/>
      <point x="271" y="79"/>
      <point x="271" y="0"/>
      <point x="271" y="79" type="curve"/>
      <point x="151" y="79"/>
      <point x="277" y="79"/>
      <point x="157" y="79" type="curve"/>
      <point x="157" y="0"/>
      <point x="157" y="79"/>
    </contour>
    <contour>
      <point x="207" y="0" type="curve"/>
      <point x="207" y="178"/>
      <point x="207" y="355"/>
      <point x="207" y="533" type="curve"/>
      <point x="106" y="533"/>
      <point x="207" y="533"/>
      <point x="106" y="533" type="curve"/>
      <point x="106" y="355"/>
      <point x="106" y="178"/>
      <point x="106" y="0" type="curve"/>
      <point x="207" y="0"/>
      <point x="106" y="0"/>
    </contour>
    <contour>
      <point x="157" y="533" type="curve"/>
      <point x="113" y="533"/>
      <point x="72" y="533"/>
      <point x="28" y="533" type="curve"/>
      <point x="28" y="454"/>
      <point x="28" y="533"/>
      <point x="28" y="454" type="curve"/>
      <point x="160" y="454"/>
      <point x="25" y="454"/>
      <point x="157" y="454" type="curve"/>
      <point x="157" y="533"/>
      <point x="157" y="454"/>
    </contour>
    <contour>
      <point x="398" y="800" type="curve"/>
      <point x="383" y="759"/>
      <point x="374" y="736"/>
      <point x="353" y="736" type="curve"/>
      <point x="326" y="736"/>
      <point x="314" y="748"/>
      <point x="296" y="767" type="curve"/>
      <point x="273" y="790"/>
      <point x="259" y="804"/>
      <point x="228" y="804" type="curve"/>
      <point x="163" y="804"/>
      <point x="137" y="740"/>
      <point x="121" y="676" type="curve"/>
      <point x="195" y="635"/>
      <point x="121" y="677"/>
      <point x="195" y="635" type="curve"/>
      <point x="211" y="680"/>
      <point x="223" y="701"/>
      <point x="249" y="701" type="curve"/>
      <point x="272" y="701"/>
      <point x="282" y="689"/>
      <point x="296" y="673" type="curve"/>
      <point x="322" y="646"/>
      <point x="339" y="630"/>
      <point x="375" y="630" type="curve"/>
      <point x="439" y="630"/>
      <point x="457" y="693"/>
      <point x="479" y="760" type="curve"/>
      <point x="398" y="800"/>
      <point x="479" y="759"/>
    </contour>
  </outline>
</glyph>
<glyph name="ograve" format="1">
  <advance width="509"/>
  <unicode hex="00F2"/>
  <outline>
    <contour>
      <point x="141" y="266" type="curve"/>
      <point x="141" y="367"/>
      <point x="162" y="456"/>
      <point x="250" y="456" type="curve"/>
      <point x="340" y="456"/>
      <point x="362" y="367"/>
      <point x="362" y="265" type="curve"/>
      <point x="362" y="162"/>
      <point x="343" y="77"/>
      <point x="257" y="77" type="curve"/>
      <point x="160" y="78"/>
      <point x="141" y="162"/>
      <point x="141" y="266" type="curve"/>
      <point x="132" y="266"/>
      <point x="55" y="266"/>
      <point x="47" y="266" type="curve"/>
      <point x="47" y="109"/>
      <point x="108" y="-5"/>
      <point x="253" y="-5" type="curve"/>
      <point x="399" y="-5"/>
      <point x="463" y="107"/>
      <point x="463" y="265" type="curve"/>
      <point x="463" y="423"/>
      <point x="401" y="538"/>
      <point x="255" y="538" type="curve"/>
      <point x="109" y="538"/>
      <point x="47" y="423"/>
      <point x="47" y="266" type="curve"/>
      <point x="55" y="266"/>
      <point x="132" y="266"/>
    </contour>
    <contour>
      <point x="302" y="632" type="line"/>
      <point x="224" y="798" type="line"/>
      <point x="100" y="798" type="line"/>
      <point x="206" y="632" type="line"/>
    </contour>
  </outline>
</glyph>
<glyph name="udieresis" format="1">
  <advance width="560"/>
  <unicode hex="00FC"/>
  <outline>
    <contour>
      <point x="411" y="533" type="curve"/>
      <point x="367" y="533"/>
      <point x="326" y="533"/>
      <point x="283" y="533" type="curve"/>
      <point x="283" y="454"/>
      <point x="283" y="533"/>
      <point x="283" y="454" type="curve"/>
      <point x="415" y="454"/>
      <point x="279" y="454"/>
      <point x="411" y="454" type="curve"/>
      <point x="411" y="533"/>
      <point x="411" y="454"/>
    </contour>
    <contour>
      <point x="144" y="533" type="curve"/>
      <point x="100" y="533"/>
      <point x="58" y="533"/>
      <point x="15" y="533" type="curve"/>
      <point x="15" y="454"/>
      <point x="15" y="533"/>
      <point x="15" y="454" type="curve"/>
      <point x="147" y="454"/>
      <point x="12" y="454"/>
      <point x="144" y="454" type="curve"/>
      <point x="144" y="533"/>
      <point x="144" y="454"/>
    </contour>
    <contour>
      <point x="411" y="0" type="curve"/>
      <point x="453" y="0"/>
      <point x="491" y="0"/>
      <point x="532" y="0" type="curve"/>
      <point x="532" y="79"/>
      <point x="532" y="0"/>
      <point x="532" y="79" type="curve"/>
      <point x="408" y="79"/>
      <point x="535" y="79"/>
      <point x="411" y="79" type="curve"/>
      <point x="411" y="0"/>
      <point x="411" y="79"/>
    </contour>
    <contour>
      <point x="461" y="0" type="curve"/>
      <point x="461" y="178"/>
      <point x="461" y="355"/>
      <point x="461" y="533" type="curve"/>
      <point x="361" y="533"/>
      <point x="461" y="533"/>
      <point x="361" y="533" type="curve"/>
      <point x="361" y="355"/>
      <point x="361" y="178"/>
      <point x="361" y="0" type="curve"/>
      <point x="461" y="0"/>
      <point x="361" y="0"/>
    </contour>
    <contour>
      <point x="380" y="208" type="curve"/>
      <point x="359" y="149"/>
      <point x="326" y="78"/>
      <point x="271" y="78" type="curve"/>
      <point x="207" y="78"/>
      <point x="194" y="135"/>
      <point x="194" y="208" type="curve"/>
      <point x="194" y="316"/>
      <point x="194" y="424"/>
      <point x="194" y="533" type="curve"/>
      <point x="93" y="533"/>
      <point x="194" y="533"/>
      <point x="93" y="533" type="curve"/>
      <point x="93" y="423"/>
      <point x="93" y="313"/>
      <point x="93" y="204" type="curve"/>
      <point x="93" y="81"/>
      <point x="134" y="-5"/>
      <point x="257" y="-5" type="curve"/>
      <point x="341" y="-5"/>
      <point x="390" y="79"/>
      <point x="418" y="174" type="curve"/>
      <point x="379" y="207"/>
      <point x="418" y="175"/>
    </contour>
    <contour>
      <point x="233" y="679" type="curve"/>
      <point x="233" y="713"/>
      <point x="210" y="731"/>
      <point x="178" y="731" type="curve"/>
      <point x="146" y="731"/>
      <point x="125" y="712"/>
      <point x="125" y="679" type="curve"/>
      <point x="233" y="679"/>
      <point x="125" y="679"/>
      <point x="233" y="679" type="curve"/>
      <point x="233" y="643"/>
      <point x="210" y="627"/>
      <point x="178" y="627" type="curve"/>
      <point x="145" y="627"/>
      <point x="125" y="644"/>
      <point x="125" y="679" type="curve"/>
      <point x="233" y="679"/>
      <point x="125" y="679"/>
    </contour>
    <contour>
      <point x="391" y="679" type="curve"/>
      <point x="391" y="713"/>
      <point x="368" y="731"/>
      <point x="337" y="731" type="curve"/>
      <point x="305" y="731"/>
      <point x="284" y="712"/>
      <point x="284" y="679" type="curve"/>
      <point x="391" y="679"/>
      <point x="284" y="679"/>
      <point x="391" y="679" type="curve"/>
      <point x="391" y="643"/>
      <point x="369" y="627"/>
      <point x="337" y="627" type="curve"/>
      <point x="304" y="627"/>
      <point x="284" y="644"/>
      <point x="284" y="679" type="curve"/>
      <point x="391" y="679"/>
      <point x="284" y="679"/>
    </contour>
  </outline>
</glyph>
<glyph name="thorn" format="1">
  <advance width="525"/>
  <unicode hex="00FE"/>
  <outline>
    <contour>
      <point x="121" y="-221" type="curve"/>
      <point x="-11" y="-221"/>
      <point x="124" y="-221"/>
      <point x="-8" y="-221" type="curve"/>
      <point x="-8" y="-300"/>
      <point x="-8" y="-221"/>
      <point x="-8" y="-300" type="curve"/>
      <point x="36" y="-300"/>
      <point x="77" y="-300"/>
      <point x="121" y="-300" type="curve"/>
      <point x="121" y="-221"/>
      <point x="121" y="-300"/>
    </contour>
    <contour>
      <point x="121" y="-300" type="curve"/>
      <point x="162" y="-300"/>
      <point x="200" y="-300"/>
      <point x="242" y="-300" type="curve"/>
      <point x="242" y="-221"/>
      <point x="242" y="-300"/>
      <point x="242" y="-221" type="curve"/>
      <point x="117" y="-221"/>
      <point x="245" y="-221"/>
      <point x="121" y="-221" type="curve"/>
      <point x="121" y="-300"/>
      <point x="121" y="-221"/>
    </contour>
    <contour>
      <point x="122" y="768" type="curve"/>
      <point x="78" y="768"/>
      <point x="37" y="768"/>
      <point x="-7" y="768" type="curve"/>
      <point x="-7" y="689"/>
      <point x="-7" y="768"/>
      <point x="-7" y="689" type="curve"/>
      <point x="125" y="689"/>
      <point x="-10" y="689"/>
      <point x="122" y="689" type="curve"/>
      <point x="122" y="768"/>
      <point x="122" y="689"/>
    </contour>
    <contour>
      <point x="146" y="373" type="curve"/>
      <point x="168" y="409"/>
      <point x="212" y="457"/>
      <point x="272" y="457" type="curve"/>
      <point x="361" y="457"/>
      <point x="378" y="367"/>
      <point x="378" y="266" type="curve"/>
      <point x="379" y="165"/>
      <point x="361" y="74"/>
      <point x="274" y="74" type="curve"/>
      <point x="220" y="74"/>
      <point x="186" y="104"/>
      <point x="153" y="148" type="curve"/>
      <point x="116" y="105"/>
      <point x="153" y="148"/>
      <point x="116" y="105" type="curve"/>
      <point x="163" y="38"/>
      <point x="212" y="-5"/>
      <point x="290" y="-5" type="curve"/>
      <point x="433" y="-5"/>
      <point x="479" y="122"/>
      <point x="479" y="271" type="curve"/>
      <point x="479" y="414"/>
      <point x="431" y="539"/>
      <point x="290" y="539" type="curve"/>
      <point x="212" y="539"/>
      <point x="154" y="481"/>
      <point x="122" y="428" type="curve"/>
      <point x="146" y="373"/>
      <point x="122" y="428"/>
    </contour>
    <contour>
      <point x="171" y="-300" type="curve"/>
      <point x="171" y="-22"/>
      <point x="171" y="490"/>
      <point x="171" y="768" type="curve"/>
      <point x="71" y="768"/>
      <point x="171" y="768"/>
      <point x="71" y="768" type="curve"/>
      <point x="71" y="490"/>
      <point x="71" y="-22"/>
      <point x="71" y="-300" type="curve"/>
      <point x="171" y="-300"/>
      <point x="71" y="-300"/>
    </contour>
  </outline>
</glyph>
<glyph name="aogonek" format="1">
  <advance width="494"/>
  <unicode hex="0105"/>
  <outline>
    <contour>
      <point x="72" y="462" type="curve"/>
      <point x="72" y="347"/>
      <point x="72" y="466"/>
      <point x="72" y="351" type="curve"/>
      <point x="151" y="351"/>
      <point x="72" y="351"/>
      <point x="151" y="351" type="curve"/>
      <point x="151" y="466"/>
      <point x="151" y="347"/>
      <point x="151" y="462" type="curve"/>
      <point x="72" y="462"/>
      <point x="151" y="462"/>
    </contour>
    <contour>
      <point x="406" y="0" type="curve"/>
      <point x="406" y="125"/>
      <point x="406" y="252"/>
      <point x="406" y="377" type="curve"/>
      <point x="406" y="487"/>
      <point x="343" y="538"/>
      <point x="238" y="538" type="curve"/>
      <point x="162" y="538"/>
      <point x="109" y="504"/>
      <point x="72" y="462" type="curve"/>
      <point x="111" y="396"/>
      <point x="72" y="462"/>
      <point x="111" y="396" type="curve"/>
      <point x="136" y="423"/>
      <point x="171" y="456"/>
      <point x="225" y="456" type="curve"/>
      <point x="280" y="456"/>
      <point x="305" y="422"/>
      <point x="305" y="363" type="curve"/>
      <point x="305" y="242"/>
      <point x="305" y="121"/>
      <point x="305" y="0" type="curve"/>
      <point x="406" y="0"/>
      <point x="305" y="0"/>
    </contour>
    <contour>
      <point x="357" y="0" type="curve"/>
      <point x="397" y="0"/>
      <point x="435" y="0"/>
      <point x="475" y="0" type="curve"/>
      <point x="475" y="79"/>
      <point x="475" y="0"/>
      <point x="475" y="79" type="curve"/>
      <point x="354" y="79"/>
      <point x="479" y="79"/>
      <point x="357" y="79" type="curve"/>
      <point x="357" y="0"/>
      <point x="357" y="79"/>
    </contour>
    <contour>
      <point x="352" y="340" type="curve"/>
      <point x="296" y="330"/>
      <point x="264" y="327"/>
      <point x="207" y="317" type="curve"/>
      <point x="110" y="301"/>
      <point x="49" y="254"/>
      <point x="49" y="156" type="curve"/>
      <point x="49" y="57"/>
      <point x="95" y="-5"/>
      <point x="192" y="-5" type="curve"/>
      <point x="292" y="-5"/>
      <point x="331" y="79"/>
      <point x="382" y="152" type="curve"/>
      <point x="330" y="197"/>
      <point x="382" y="152"/>
      <point x="330" y="197" type="curve"/>
      <point x="306" y="133"/>
      <point x="279" y="74"/>
      <point x="215" y="74" type="curve"/>
      <point x="163" y="74"/>
      <point x="146" y="108"/>
      <point x="146" y="161" type="curve"/>
      <point x="146" y="206"/>
      <point x="172" y="239"/>
      <point x="210" y="246" type="curve"/>
      <point x="271" y="257"/>
      <point x="297" y="262"/>
      <point x="357" y="272" type="curve"/>
      <point x="352" y="340"/>
      <point x="357" y="272"/>
    </contour>
    <contour>
      <point x="377" y="57" type="curve"/>
      <point x="320" y="25"/>
      <point x="273" y="-5"/>
      <point x="273" y="-69" type="curve"/>
      <point x="273" y="-136"/>
      <point x="310" y="-185"/>
      <point x="375" y="-185" type="curve"/>
      <point x="408" y="-185"/>
      <point x="430" y="-173"/>
      <point x="456" y="-152" type="curve"/>
      <point x="412" y="-94"/>
      <point x="453" y="-149"/>
      <point x="409" y="-91" type="curve"/>
      <point x="400" y="-98"/>
      <point x="391" y="-106"/>
      <point x="380" y="-106" type="curve"/>
      <point x="362" y="-106"/>
      <point x="353" y="-89"/>
      <point x="353" y="-69" type="curve"/>
      <point x="353" y="-35"/>
      <point x="384" y="-17"/>
      <point x="413" y="2" type="curve"/>
      <point x="379" y="53"/>
      <point x="411" y="5"/>
    </contour>
  </outline>
</glyph>
<glyph name="gbreve" format="1">
  <advance width="474"/>
  <unicode hex="011F"/>
  <outline>
    <contour>
      <point x="335" y="452" type="curve"/>
      <point x="444" y="517" type="line"/>
      <point x="439" y="524"/>
      <point x="406" y="582"/>
      <point x="401" y="589" type="curve"/>
      <point x="280" y="515" type="line"/>
      <point x="335" y="452"/>
      <point x="280" y="515"/>
    </contour>
    <contour>
      <point x="166" y="344" type="curve"/>
      <point x="166" y="405"/>
      <point x="189" y="459"/>
      <point x="244" y="459" type="curve"/>
      <point x="300" y="459"/>
      <point x="319" y="405"/>
      <point x="319" y="344" type="curve"/>
      <point x="319" y="287"/>
      <point x="299" y="236"/>
      <point x="244" y="236" type="curve"/>
      <point x="192" y="236"/>
      <point x="166" y="285"/>
      <point x="166" y="344" type="curve"/>
      <point x="65" y="340"/>
      <point x="166" y="344"/>
      <point x="65" y="340" type="curve"/>
      <point x="65" y="233"/>
      <point x="133" y="157"/>
      <point x="239" y="157" type="curve"/>
      <point x="349" y="157"/>
      <point x="420" y="235"/>
      <point x="420" y="347" type="curve"/>
      <point x="420" y="458"/>
      <point x="352" y="537"/>
      <point x="244" y="537" type="curve"/>
      <point x="132" y="537"/>
      <point x="65" y="454"/>
      <point x="65" y="340" type="curve"/>
      <point x="166" y="344"/>
      <point x="65" y="340"/>
    </contour>
    <contour>
      <point x="146" y="240" type="curve"/>
      <point x="99" y="207"/>
      <point x="68" y="169"/>
      <point x="68" y="111" type="curve"/>
      <point x="68" y="25"/>
      <point x="140" y="-17"/>
      <point x="231" y="-27" type="curve"/>
      <point x="303" y="-34"/>
      <point x="364" y="-58"/>
      <point x="364" y="-128" type="curve"/>
      <point x="364" y="-193"/>
      <point x="311" y="-226"/>
      <point x="242" y="-226" type="curve"/>
      <point x="177" y="-226"/>
      <point x="134" y="-181"/>
      <point x="134" y="-115" type="curve"/>
      <point x="134" y="-62"/>
      <point x="150" y="-17"/>
      <point x="194" y="6" type="curve"/>
      <point x="144" y="54"/>
      <point x="194" y="6"/>
      <point x="144" y="54" type="curve"/>
      <point x="74" y="18"/>
      <point x="33" y="-38"/>
      <point x="33" y="-118" type="curve"/>
      <point x="33" y="-235"/>
      <point x="119" y="-305"/>
      <point x="238" y="-305" type="curve"/>
      <point x="362" y="-305"/>
      <point x="458" y="-239"/>
      <point x="456" y="-120" type="curve"/>
      <point x="456" y="-11"/>
      <point x="363" y="37"/>
      <point x="250" y="49" type="curve"/>
      <point x="204" y="53"/>
      <point x="169" y="75"/>
      <point x="169" y="119" type="curve"/>
      <point x="169" y="149"/>
      <point x="176" y="169"/>
      <point x="199" y="188" type="curve"/>
      <point x="146" y="240"/>
      <point x="199" y="188"/>
    </contour>
    <contour>
      <point x="293" y="777" type="curve"/>
      <point x="293" y="738"/>
      <point x="282" y="706"/>
      <point x="244" y="706" type="curve"/>
      <point x="207" y="706"/>
      <point x="195" y="737"/>
      <point x="195" y="778" type="curve"/>
      <point x="105" y="778"/>
      <point x="195" y="778"/>
      <point x="105" y="778" type="curve"/>
      <point x="105" y="690"/>
      <point x="153" y="634"/>
      <point x="241" y="634" type="curve"/>
      <point x="330" y="634"/>
      <point x="383" y="687"/>
      <point x="383" y="777" type="curve"/>
      <point x="293" y="777"/>
      <point x="383" y="777"/>
    </contour>
  </outline>
</glyph>
<glyph name="Gcommaaccent" format="1">
  <advance width="634"/>
  <unicode hex="0122"/>
  <outline>
    <contour>
      <point x="479" y="644" type="curve"/>
      <point x="479" y="511"/>
      <point x="479" y="647"/>
      <point x="479" y="515" type="curve"/>
      <point x="559" y="515"/>
      <point x="479" y="515"/>
      <point x="559" y="515" type="curve"/>
      <point x="559" y="647"/>
      <point x="559" y="511"/>
      <point x="559" y="644" type="curve"/>
      <point x="479" y="644"/>
      <point x="559" y="644"/>
    </contour>
    <contour>
      <point x="544" y="352" type="curve"/>
      <point x="491" y="352"/>
      <point x="437" y="352"/>
      <point x="383" y="352" type="curve"/>
      <point x="383" y="273"/>
      <point x="383" y="352"/>
      <point x="383" y="273" type="curve"/>
      <point x="437" y="273"/>
      <point x="491" y="273"/>
      <point x="544" y="273" type="curve"/>
      <point x="544" y="352"/>
      <point x="544" y="273"/>
    </contour>
    <contour>
      <point x="571" y="78" type="curve"/>
      <point x="571" y="170"/>
      <point x="571" y="261"/>
      <point x="571" y="352" type="curve"/>
      <point x="479" y="352"/>
      <point x="571" y="352"/>
      <point x="479" y="352" type="curve"/>
      <point x="479" y="261"/>
      <point x="479" y="170"/>
      <point x="479" y="78" type="curve"/>
      <point x="571" y="78"/>
      <point x="479" y="78"/>
    </contour>
    <contour>
      <point x="559" y="644" type="curve"/>
      <point x="491" y="700"/>
      <point x="423" y="727"/>
      <point x="335" y="727" type="curve"/>
      <point x="139" y="727"/>
      <point x="53" y="576"/>
      <point x="53" y="362" type="curve"/>
      <point x="53" y="144"/>
      <point x="144" y="-5"/>
      <point x="343" y="-5" type="curve"/>
      <point x="437" y="-5"/>
      <point x="495" y="24"/>
      <point x="571" y="78" type="curve"/>
      <point x="520" y="139"/>
      <point x="571" y="78"/>
      <point x="520" y="139" type="curve"/>
      <point x="468" y="99"/>
      <point x="415" y="78"/>
      <point x="343" y="78" type="curve"/>
      <point x="198" y="78"/>
      <point x="154" y="204"/>
      <point x="154" y="370" type="curve"/>
      <point x="154" y="524"/>
      <point x="199" y="644"/>
      <point x="335" y="644" type="curve"/>
      <point x="404" y="644"/>
      <point x="455" y="621"/>
      <point x="508" y="577" type="curve"/>
      <point x="559" y="644"/>
      <point x="508" y="577"/>
    </contour>
    <contour>
      <point x="266" y="-328" type="line"/>
      <point x="337" y="-319"/>
      <point x="385" y="-264"/>
      <point x="385" y="-179" type="curve"/>
      <point x="385" y="-114"/>
      <point x="362" y="-79"/>
      <point x="325" y="-79" type="curve"/>
      <point x="293" y="-79"/>
      <point x="271" y="-97"/>
      <point x="271" y="-131" type="curve"/>
      <point x="271" y="-159"/>
      <point x="286" y="-181"/>
      <point x="315" y="-183" type="curve"/>
      <point x="315" y="-207"/>
      <point x="310" y="-255"/>
      <point x="260" y="-271" type="curve"/>
    </contour>
  </outline>
</glyph>
<glyph name="imacron" format="1">
  <advance width="306"/>
  <unicode hex="012B"/>
  <outline>
    <contour>
      <point x="163" y="79" type="curve"/>
      <point x="31" y="79"/>
      <point x="166" y="79"/>
      <point x="35" y="79" type="curve"/>
      <point x="34" y="0"/>
      <point x="35" y="79"/>
      <point x="34" y="0" type="curve"/>
      <point x="78" y="0"/>
      <point x="119" y="0"/>
      <point x="163" y="0" type="curve"/>
      <point x="163" y="79"/>
      <point x="163" y="0"/>
    </contour>
    <contour>
      <point x="163" y="0" type="curve"/>
      <point x="204" y="0"/>
      <point x="242" y="0"/>
      <point x="284" y="0" type="curve"/>
      <point x="284" y="79"/>
      <point x="284" y="0"/>
      <point x="284" y="79" type="curve"/>
      <point x="160" y="79"/>
      <point x="287" y="79"/>
      <point x="163" y="79" type="curve"/>
      <point x="163" y="0"/>
      <point x="163" y="79"/>
    </contour>
    <contour>
      <point x="163" y="533" type="curve"/>
      <point x="119" y="533"/>
      <point x="78" y="533"/>
      <point x="35" y="533" type="curve"/>
      <point x="34" y="454"/>
      <point x="35" y="533"/>
      <point x="34" y="454" type="curve"/>
      <point x="166" y="454"/>
      <point x="31" y="454"/>
      <point x="163" y="454" type="curve"/>
      <point x="163" y="533"/>
      <point x="163" y="454"/>
    </contour>
    <contour>
      <point x="216" y="0" type="curve"/>
      <point x="216" y="178"/>
      <point x="216" y="355"/>
      <point x="216" y="533" type="curve"/>
      <point x="110" y="533"/>
      <point x="216" y="533"/>
      <point x="110" y="533" type="curve"/>
      <point x="110" y="355"/>
      <point x="110" y="178"/>
      <point x="110" y="0" type="curve"/>
      <point x="216" y="0"/>
      <point x="110" y="0"/>
    </contour>
    <contour>
      <point x="245" y="710" type="curve"/>
      <point x="191" y="710"/>
      <point x="135" y="710"/>
      <point x="81" y="710" type="curve"/>
      <point x="81" y="632"/>
      <point x="81" y="710"/>
      <point x="81" y="632" type="curve"/>
      <point x="135" y="632"/>
      <point x="191" y="632"/>
      <point x="245" y="632" type="curve"/>
      <point x="245" y="710"/>
      <point x="245" y="632"/>
    </contour>
  </outline>
</glyph>
<glyph name="lcommaaccent" format="1">
  <advance width="293"/>
  <unicode hex="013C"/>
  <outline>
    <contour>
      <point x="147" y="79" type="curve"/>
      <point x="15" y="79"/>
      <point x="147" y="79"/>
      <point x="15" y="79" type="curve"/>
      <point x="15" y="0"/>
      <point x="15" y="79"/>
      <point x="15" y="0" type="curve"/>
      <point x="59" y="0"/>
      <point x="103" y="0"/>
      <point x="147" y="0" type="curve"/>
      <point x="147" y="79"/>
      <point x="147" y="-1"/>
    </contour>
    <contour>
      <point x="148" y="800" type="curve"/>
      <point x="104" y="800"/>
      <point x="60" y="800"/>
      <point x="17" y="800" type="curve"/>
      <point x="16" y="721"/>
      <point x="17" y="800"/>
      <point x="16" y="721" type="curve"/>
      <point x="148" y="721"/>
      <point x="16" y="721"/>
      <point x="148" y="721" type="curve"/>
      <point x="148" y="799"/>
      <point x="148" y="721"/>
    </contour>
    <contour>
      <point x="147" y="0" type="curve"/>
      <point x="191" y="0"/>
      <point x="235" y="0"/>
      <point x="279" y="0" type="curve"/>
      <point x="279" y="79"/>
      <point x="279" y="0"/>
      <point x="279" y="79" type="curve"/>
      <point x="147" y="79"/>
      <point x="279" y="79"/>
      <point x="147" y="79" type="curve"/>
      <point x="147" y="-1"/>
      <point x="147" y="79"/>
    </contour>
    <contour>
      <point x="196" y="0" type="curve"/>
      <point x="196" y="267"/>
      <point x="196" y="533"/>
      <point x="196" y="800" type="curve"/>
      <point x="96" y="800"/>
      <point x="196" y="800"/>
      <point x="96" y="800" type="curve"/>
      <point x="96" y="533"/>
      <point x="96" y="267"/>
      <point x="96" y="0" type="curve"/>
      <point x="196" y="0"/>
      <point x="96" y="0"/>
    </contour>
    <contour>
      <point x="83" y="-326" type="line"/>
      <point x="154" y="-318"/>
      <point x="202" y="-263"/>
      <point x="202" y="-177" type="curve"/>
      <point x="202" y="-113"/>
      <point x="179" y="-77"/>
      <point x="143" y="-77" type="curve"/>
      <point x="110" y="-77"/>
      <point x="89" y="-96"/>
      <point x="89" y="-130" type="curve"/>
      <point x="89" y="-158"/>
      <point x="104" y="-180"/>
      <point x="133" y="-181" type="curve"/>
      <point x="133" y="-206"/>
      <point x="128" y="-254"/>
      <point x="78" y="-270" type="curve"/>
    </contour>
  </outline>
</glyph>
<glyph name="Lcaron" format="1">
  <advance width="513"/>
  <unicode hex="013D"/>
  <outline>
    <contour>
      <point x="476" y="39" type="curve"/>
      <point x="476" y="159"/>
      <point x="476" y="36"/>
      <point x="476" y="156" type="curve"/>
      <point x="396" y="156"/>
      <point x="476" y="156"/>
      <point x="396" y="156" type="curve"/>
      <point x="396" y="36"/>
      <point x="396" y="159"/>
      <point x="396" y="39" type="curve"/>
      <point x="476" y="39"/>
      <point x="396" y="39"/>
    </contour>
    <contour>
      <point x="167" y="79" type="curve"/>
      <point x="32" y="79"/>
      <point x="174" y="79"/>
      <point x="39" y="79" type="curve"/>
      <point x="38" y="0"/>
      <point x="39" y="79"/>
      <point x="38" y="0" type="curve"/>
      <point x="84" y="0"/>
      <point x="122" y="0"/>
      <point x="167" y="0" type="curve"/>
      <point x="167" y="79"/>
      <point x="167" y="0"/>
    </contour>
    <contour>
      <point x="167" y="722" type="curve"/>
      <point x="122" y="722"/>
      <point x="84" y="722"/>
      <point x="39" y="722" type="curve"/>
      <point x="38" y="643"/>
      <point x="39" y="722"/>
      <point x="38" y="643" type="curve"/>
      <point x="174" y="643"/>
      <point x="31" y="643"/>
      <point x="167" y="643" type="curve"/>
      <point x="167" y="722"/>
      <point x="167" y="643"/>
    </contour>
    <contour>
      <point x="167" y="643" type="curve"/>
      <point x="302" y="643"/>
      <point x="160" y="643"/>
      <point x="295" y="643" type="curve"/>
      <point x="295" y="722"/>
      <point x="295" y="643"/>
      <point x="295" y="722" type="curve"/>
      <point x="250" y="722"/>
      <point x="212" y="722"/>
      <point x="167" y="722" type="curve"/>
      <point x="167" y="643"/>
      <point x="167" y="722"/>
    </contour>
    <contour>
      <point x="218" y="0" type="curve"/>
      <point x="218" y="241"/>
      <point x="218" y="481"/>
      <point x="218" y="722" type="curve"/>
      <point x="117" y="722"/>
      <point x="218" y="722"/>
      <point x="117" y="722" type="curve"/>
      <point x="117" y="481"/>
      <point x="117" y="241"/>
      <point x="117" y="0" type="curve"/>
      <point x="218" y="0"/>
      <point x="117" y="0"/>
    </contour>
    <contour>
      <point x="167" y="0" type="curve"/>
      <point x="270" y="0"/>
      <point x="373" y="0"/>
      <point x="476" y="0" type="curve"/>
      <point x="476" y="79"/>
      <point x="476" y="0"/>
      <point x="476" y="79" type="curve"/>
      <point x="373" y="79"/>
      <point x="270" y="79"/>
      <point x="167" y="79" type="curve"/>
      <point x="167" y="0"/>
      <point x="167" y="79"/>
    </contour>
    <contour>
      <point x="418" y="520" type="line"/>
      <point x="489" y="529"/>
      <point x="537" y="583"/>
      <point x="537" y="669" type="curve"/>
      <point x="537" y="733"/>
      <point x="514" y="769"/>
      <point x="477" y="769" type="curve"/>
      <point x="444" y="769"/>
      <point x="423" y="751"/>
      <point x="423" y="716" type="curve"/>
      <point x="423" y="688"/>
      <point x="438" y="667"/>
      <point x="467" y="665" type="curve"/>
      <point x="467" y="640"/>
      <point x="462" y="592"/>
      <point x="412" y="576" type="curve"/>
    </contour>
  </outline>
</glyph>
<glyph name="Lslash" format="1">
  <advance width="500"/>
  <unicode hex="0141"/>
  <outline>
    <contour>
      <point x="72" y="222" type="curve"/>
      <point x="144" y="281"/>
      <point x="215" y="342"/>
      <point x="286" y="401" type="curve"/>
      <point x="286" y="490"/>
      <point x="286" y="401"/>
      <point x="286" y="490" type="curve"/>
      <point x="215" y="431"/>
      <point x="144" y="370"/>
      <point x="72" y="311" type="curve"/>
      <point x="72" y="222"/>
      <point x="72" y="311"/>
    </contour>
    <contour>
      <point x="475" y="39" type="curve"/>
      <point x="475" y="159"/>
      <point x="475" y="36"/>
      <point x="475" y="156" type="curve"/>
      <point x="395" y="156"/>
      <point x="475" y="156"/>
      <point x="395" y="156" type="curve"/>
      <point x="395" y="36"/>
      <point x="395" y="159"/>
      <point x="395" y="39" type="curve"/>
      <point x="475" y="39"/>
      <point x="395" y="39"/>
    </contour>
    <contour>
      <point x="166" y="79" type="curve"/>
      <point x="31" y="79"/>
      <point x="174" y="79"/>
      <point x="38" y="79" type="curve"/>
      <point x="38" y="0"/>
      <point x="38" y="79"/>
      <point x="38" y="0" type="curve"/>
      <point x="83" y="0"/>
      <point x="121" y="0"/>
      <point x="166" y="0" type="curve"/>
      <point x="166" y="79"/>
      <point x="166" y="0"/>
    </contour>
    <contour>
      <point x="166" y="722" type="curve"/>
      <point x="121" y="722"/>
      <point x="83" y="722"/>
      <point x="38" y="722" type="curve"/>
      <point x="38" y="643"/>
      <point x="38" y="722"/>
      <point x="38" y="643" type="curve"/>
      <point x="174" y="643"/>
      <point x="31" y="643"/>
      <point x="166" y="643" type="curve"/>
      <point x="166" y="722"/>
      <point x="166" y="643"/>
    </contour>
    <contour>
      <point x="166" y="643" type="curve"/>
      <point x="302" y="643"/>
      <point x="159" y="643"/>
      <point x="295" y="643" type="curve"/>
      <point x="295" y="722"/>
      <point x="295" y="643"/>
      <point x="295" y="722" type="curve"/>
      <point x="249" y="722"/>
      <point x="211" y="722"/>
      <point x="166" y="722" type="curve"/>
      <point x="166" y="643"/>
      <point x="166" y="722"/>
    </contour>
    <contour>
      <point x="217" y="0" type="curve"/>
      <point x="217" y="241"/>
      <point x="217" y="481"/>
      <point x="217" y="722" type="curve"/>
      <point x="117" y="722"/>
      <point x="217" y="722"/>
      <point x="117" y="722" type="curve"/>
      <point x="117" y="481"/>
      <point x="117" y="241"/>
      <point x="117" y="0" type="curve"/>
      <point x="217" y="0"/>
      <point x="117" y="0"/>
    </contour>
    <contour>
      <point x="166" y="0" type="curve"/>
      <point x="269" y="0"/>
      <point x="372" y="0"/>
      <point x="475" y="0" type="curve"/>
      <point x="475" y="79"/>
      <point x="475" y="0"/>
      <point x="475" y="79" type="curve"/>
      <point x="372" y="79"/>
      <point x="269" y="79"/>
      <point x="166" y="79" type="curve"/>
      <point x="166" y="0"/>
      <point x="166" y="79"/>
    </contour>
  </outline>
</glyph>
<glyph name="ncommaaccent" format="1">
  <advance width="561"/>
  <unicode hex="0146"/>
  <outline>
    <contour>
      <point x="187" y="290" type="curve"/>
      <point x="199" y="376"/>
      <point x="241" y="456"/>
      <point x="302" y="456" type="curve"/>
      <point x="367" y="456"/>
      <point x="379" y="395"/>
      <point x="379" y="320" type="curve"/>
      <point x="379" y="213"/>
      <point x="379" y="107"/>
      <point x="379" y="0" type="curve"/>
      <point x="479" y="0"/>
      <point x="379" y="0"/>
      <point x="479" y="0" type="curve"/>
      <point x="479" y="109"/>
      <point x="479" y="219"/>
      <point x="479" y="328" type="curve"/>
      <point x="479" y="448"/>
      <point x="450" y="538"/>
      <point x="337" y="538" type="curve"/>
      <point x="246" y="538"/>
      <point x="176" y="461"/>
      <point x="157" y="337" type="curve"/>
      <point x="188" y="292"/>
      <point x="155" y="335"/>
    </contour>
    <contour>
      <point x="428" y="0" type="curve"/>
      <point x="471" y="0"/>
      <point x="512" y="0"/>
      <point x="556" y="0" type="curve"/>
      <point x="556" y="79"/>
      <point x="556" y="0"/>
      <point x="556" y="79" type="curve"/>
      <point x="425" y="79"/>
      <point x="559" y="79"/>
      <point x="428" y="79" type="curve"/>
      <point x="428" y="0"/>
      <point x="428" y="79"/>
    </contour>
    <contour>
      <point x="157" y="79" type="curve"/>
      <point x="25" y="79"/>
      <point x="160" y="79"/>
      <point x="28" y="79" type="curve"/>
      <point x="28" y="0"/>
      <point x="28" y="79"/>
      <point x="28" y="0" type="curve"/>
      <point x="72" y="0"/>
      <point x="113" y="0"/>
      <point x="157" y="0" type="curve"/>
      <point x="157" y="79"/>
      <point x="157" y="0"/>
    </contour>
    <contour>
      <point x="157" y="0" type="curve"/>
      <point x="197" y="0"/>
      <point x="151" y="0"/>
      <point x="271" y="0" type="curve"/>
      <point x="271" y="79"/>
      <point x="271" y="0"/>
      <point x="271" y="79" type="curve"/>
      <point x="151" y="79"/>
      <point x="277" y="79"/>
      <point x="157" y="79" type="curve"/>
      <point x="157" y="0"/>
      <point x="157" y="79"/>
    </contour>
    <contour>
      <point x="207" y="0" type="curve"/>
      <point x="207" y="178"/>
      <point x="207" y="355"/>
      <point x="207" y="533" type="curve"/>
      <point x="106" y="533"/>
      <point x="207" y="533"/>
      <point x="106" y="533" type="curve"/>
      <point x="106" y="355"/>
      <point x="106" y="178"/>
      <point x="106" y="0" type="curve"/>
      <point x="207" y="0"/>
      <point x="106" y="0"/>
    </contour>
    <contour>
      <point x="157" y="533" type="curve"/>
      <point x="113" y="533"/>
      <point x="72" y="533"/>
      <point x="28" y="533" type="curve"/>
      <point x="28" y="454"/>
      <point x="28" y="533"/>
      <point x="28" y="454" type="curve"/>
      <point x="160" y="454"/>
      <point x="25" y="454"/>
      <point x="157" y="454" type="curve"/>
      <point x="157" y="533"/>
      <point x="157" y="454"/>
    </contour>
    <contour>
      <point x="232" y="-325" type="line"/>
      <point x="303" y="-316"/>
      <point x="351" y="-262"/>
      <point x="351" y="-176" type="curve"/>
      <point x="351" y="-112"/>
      <point x="328" y="-76"/>
      <point x="291" y="-76" type="curve"/>
      <point x="258" y="-76"/>
      <point x="237" y="-94"/>
      <point x="237" y="-129" type="curve"/>
      <point x="237" y="-157"/>
      <point x="252" y="-178"/>
      <point x="281" y="-180" type="curve"/>
      <point x="281" y="-205"/>
      <point x="276" y="-253"/>
      <point x="226" y="-269" type="curve"/>
    </contour>
  </outline>
</glyph>
<glyph name="Ohungarumlaut" format="1">
  <advance width="632"/>
  <unicode hex="0150"/>
  <outline>
    <contour>
      <point x="155" y="360" type="curve"/>
      <point x="155" y="512"/>
      <point x="180" y="645"/>
      <point x="313" y="645" type="curve"/>
      <point x="444" y="645"/>
      <point x="477" y="515"/>
      <point x="477" y="363" type="curve"/>
      <point x="477" y="211"/>
      <point x="451" y="78"/>
      <point x="318" y="78" type="curve"/>
      <point x="186" y="78"/>
      <point x="155" y="207"/>
      <point x="155" y="360" type="curve"/>
      <point x="54" y="360"/>
      <point x="155" y="360"/>
      <point x="54" y="360" type="curve"/>
      <point x="54" y="155"/>
      <point x="129" y="-5"/>
      <point x="314" y="-5" type="curve"/>
      <point x="501" y="-5"/>
      <point x="578" y="156"/>
      <point x="578" y="363" type="curve"/>
      <point x="578" y="566"/>
      <point x="504" y="727"/>
      <point x="318" y="727" type="curve"/>
      <point x="132" y="727"/>
      <point x="54" y="566"/>
      <point x="54" y="360" type="curve"/>
      <point x="155" y="360"/>
      <point x="54" y="360"/>
    </contour>
    <contour>
      <point x="266" y="805" type="line"/>
      <point x="372" y="971" type="line"/>
      <point x="248" y="971" type="line"/>
      <point x="171" y="805" type="line"/>
    </contour>
    <contour>
      <point x="433" y="805" type="line"/>
      <point x="539" y="971" type="line"/>
      <point x="415" y="971" type="line"/>
      <point x="338" y="805" type="line"/>
    </contour>
  </outline>
</glyph>
<glyph name="ohungarumlaut" format="1">
  <advance width="511"/>
  <unicode hex="0151"/>
  <outline>
    <contour>
      <point x="141" y="266" type="curve"/>
      <point x="141" y="367"/>
      <point x="162" y="456"/>
      <point x="250" y="456" type="curve"/>
      <point x="340" y="456"/>
      <point x="362" y="367"/>
      <point x="362" y="265" type="curve"/>
      <point x="362" y="162"/>
      <point x="343" y="77"/>
      <point x="257" y="77" type="curve"/>
      <point x="160" y="78"/>
      <point x="141" y="162"/>
      <point x="141" y="266" type="curve"/>
      <point x="132" y="266"/>
      <point x="55" y="266"/>
      <point x="47" y="266" type="curve"/>
      <point x="47" y="109"/>
      <point x="108" y="-5"/>
      <point x="253" y="-5" type="curve"/>
      <point x="399" y="-5"/>
      <point x="463" y="107"/>
      <point x="463" y="265" type="curve"/>
      <point x="463" y="423"/>
      <point x="401" y="538"/>
      <point x="255" y="538" type="curve"/>
      <point x="109" y="538"/>
      <point x="47" y="423"/>
      <point x="47" y="266" type="curve"/>
      <point x="55" y="266"/>
      <point x="132" y="266"/>
    </contour>
    <contour>
      <point x="203" y="641" type="line"/>
      <point x="309" y="807" type="line"/>
      <point x="185" y="807" type="line"/>
      <point x="107" y="641" type="line"/>
    </contour>
    <contour>
      <point x="370" y="641" type="line"/>
      <point x="476" y="807" type="line"/>
      <point x="352" y="807" type="line"/>
      <point x="274" y="641" type="line"/>
    </contour>
  </outline>
</glyph>
<glyph name="oe" format="1">
  <advance width="789"/>
  <unicode hex="0153"/>
  <outline>
    <contour>
      <point x="141" y="266" type="curve"/>
      <point x="141" y="367"/>
      <point x="162" y="456"/>
      <point x="250" y="456" type="curve"/>
      <point x="340" y="456"/>
      <point x="362" y="367"/>
      <point x="362" y="265" type="curve"/>
      <point x="362" y="162"/>
      <point x="343" y="77"/>
      <point x="257" y="77" type="curve"/>
      <point x="160" y="78"/>
      <point x="141" y="162"/>
      <point x="141" y="266" type="curve"/>
      <point x="132" y="266"/>
      <point x="55" y="266"/>
      <point x="47" y="266" type="curve"/>
      <point x="47" y="109"/>
      <point x="108" y="-5"/>
      <point x="253" y="-5" type="curve"/>
      <point x="399" y="-5"/>
      <point x="463" y="107"/>
      <point x="463" y="265" type="curve"/>
      <point x="463" y="423"/>
      <point x="401" y="538"/>
      <point x="255" y="538" type="curve"/>
      <point x="109" y="538"/>
      <point x="47" y="423"/>
      <point x="47" y="266" type="curve"/>
      <point x="55" y="266"/>
      <point x="132" y="266"/>
    </contour>
    <contour>
      <point x="416" y="243" type="curve"/>
      <point x="512" y="243"/>
      <point x="607" y="243"/>
      <point x="703" y="243" type="curve"/>
      <point x="744" y="243"/>
      <point x="703" y="243"/>
      <point x="744" y="243" type="curve"/>
      <point x="744" y="275"/>
      <point x="744" y="243"/>
      <point x="744" y="275" type="curve"/>
      <point x="744" y="282"/>
      <point x="744" y="289"/>
      <point x="744" y="296" type="curve"/>
      <point x="744" y="440"/>
      <point x="691" y="538"/>
      <point x="562" y="538" type="curve"/>
      <point x="422" y="538"/>
      <point x="365" y="433"/>
      <point x="365" y="279" type="curve"/>
      <point x="365" y="112"/>
      <point x="426" y="-5"/>
      <point x="576" y="-5" type="curve"/>
      <point x="642" y="-5"/>
      <point x="683" y="23"/>
      <point x="730" y="74" type="curve"/>
      <point x="668" y="129"/>
      <point x="730" y="74"/>
      <point x="668" y="129" type="curve"/>
      <point x="642" y="98"/>
      <point x="616" y="78"/>
      <point x="576" y="78" type="curve"/>
      <point x="482" y="78"/>
      <point x="465" y="167"/>
      <point x="465" y="279" type="curve"/>
      <point x="465" y="377"/>
      <point x="475" y="456"/>
      <point x="557" y="456" type="curve"/>
      <point x="630" y="456"/>
      <point x="648" y="390"/>
      <point x="648" y="304" type="curve"/>
      <point x="648" y="294"/>
      <point x="648" y="285"/>
      <point x="648" y="275" type="curve"/>
      <point x="657" y="284"/>
      <point x="666" y="291"/>
      <point x="675" y="300" type="curve"/>
      <point x="683" y="308"/>
      <point x="695" y="308"/>
      <point x="703" y="318" type="curve"/>
      <point x="607" y="318"/>
      <point x="512" y="318"/>
      <point x="416" y="318" type="curve"/>
      <point x="416" y="239"/>
      <point x="416" y="321"/>
    </contour>
  </outline>
</glyph>
<glyph name="rcommaaccent" format="1">
  <advance width="375"/>
  <unicode hex="0157"/>
  <outline>
    <contour>
      <point x="171" y="0" type="curve"/>
      <point x="212" y="0"/>
      <point x="251" y="0"/>
      <point x="292" y="0" type="curve"/>
      <point x="292" y="79"/>
      <point x="292" y="0"/>
      <point x="292" y="79" type="curve"/>
      <point x="168" y="79"/>
      <point x="295" y="79"/>
      <point x="171" y="79" type="curve"/>
      <point x="171" y="0"/>
      <point x="171" y="79"/>
    </contour>
    <contour>
      <point x="171" y="79" type="curve"/>
      <point x="40" y="79"/>
      <point x="174" y="79"/>
      <point x="43" y="79" type="curve"/>
      <point x="42" y="0"/>
      <point x="43" y="79"/>
      <point x="42" y="0" type="curve"/>
      <point x="86" y="0"/>
      <point x="127" y="0"/>
      <point x="171" y="0" type="curve"/>
      <point x="171" y="79"/>
      <point x="171" y="0"/>
    </contour>
    <contour>
      <point x="170" y="533" type="curve"/>
      <point x="127" y="533"/>
      <point x="86" y="533"/>
      <point x="42" y="533" type="curve"/>
      <point x="42" y="454"/>
      <point x="42" y="533"/>
      <point x="42" y="454" type="curve"/>
      <point x="174" y="454"/>
      <point x="39" y="454"/>
      <point x="170" y="454" type="curve"/>
      <point x="170" y="533"/>
      <point x="170" y="454"/>
    </contour>
    <contour>
      <point x="221" y="0" type="curve"/>
      <point x="221" y="178"/>
      <point x="221" y="355"/>
      <point x="221" y="533" type="curve"/>
      <point x="120" y="533"/>
      <point x="221" y="533"/>
      <point x="120" y="533" type="curve"/>
      <point x="120" y="355"/>
      <point x="120" y="178"/>
      <point x="120" y="0" type="curve"/>
      <point x="221" y="0"/>
      <point x="120" y="0"/>
    </contour>
    <contour>
      <point x="200" y="315" type="curve"/>
      <point x="225" y="419"/>
      <point x="285" y="456"/>
      <point x="354" y="456" type="curve"/>
      <point x="354" y="540"/>
      <point x="354" y="454"/>
      <point x="354" y="538" type="curve"/>
      <point x="263" y="538"/>
      <point x="193" y="460"/>
      <point x="163" y="357" type="curve"/>
      <point x="199" y="317"/>
      <point x="166" y="353"/>
    </contour>
    <contour>
      <point x="111" y="-326" type="line"/>
      <point x="182" y="-318"/>
      <point x="230" y="-263"/>
      <point x="230" y="-177" type="curve"/>
      <point x="230" y="-113"/>
      <point x="207" y="-77"/>
      <point x="170" y="-77" type="curve"/>
      <point x="138" y="-77"/>
      <point x="116" y="-96"/>
      <point x="116" y="-130" type="curve"/>
      <point x="116" y="-158"/>
      <point x="131" y="-180"/>
      <point x="160" y="-181" type="curve"/>
      <point x="160" y="-206"/>
      <point x="155" y="-254"/>
      <point x="105" y="-270" type="curve"/>
    </contour>
  </outline>
</glyph>
<glyph name="scaron" format="1">
  <advance width="410"/>
  <unicode hex="0161"/>
  <outline>
    <contour>
      <point x="45" y="48" type="curve"/>
      <point x="96" y="16"/>
      <point x="147" y="-5"/>
      <point x="204" y="-5" type="curve"/>
      <point x="307" y="-5"/>
      <point x="369" y="51"/>
      <point x="369" y="151" type="curve"/>
      <point x="368" y="243"/>
      <point x="306" y="280"/>
      <point x="218" y="313" type="curve" smooth="yes"/>
      <point x="175" y="331"/>
      <point x="147" y="356"/>
      <point x="147" y="400" type="curve"/>
      <point x="147" y="431"/>
      <point x="165" y="456"/>
      <point x="200" y="456" type="curve"/>
      <point x="233" y="456"/>
      <point x="265" y="440"/>
      <point x="287" y="421" type="curve"/>
      <point x="331" y="488"/>
      <point x="290" y="426"/>
      <point x="333" y="493" type="curve"/>
      <point x="301" y="518"/>
      <point x="251" y="538"/>
      <point x="202" y="538" type="curve"/>
      <point x="112" y="538"/>
      <point x="56" y="487"/>
      <point x="56" y="400" type="curve"/>
      <point x="56" y="314"/>
      <point x="104" y="269"/>
      <point x="186" y="238" type="curve" smooth="yes"/>
      <point x="235" y="219"/>
      <point x="273" y="196"/>
      <point x="273" y="145" type="curve"/>
      <point x="273" y="106"/>
      <point x="248" y="79"/>
      <point x="211" y="79" type="curve"/>
      <point x="168" y="79"/>
      <point x="133" y="95"/>
      <point x="96" y="118" type="curve"/>
      <point x="45" y="48"/>
      <point x="96" y="118"/>
    </contour>
    <contour>
      <point x="253" y="493" type="curve"/>
      <point x="253" y="365"/>
      <point x="253" y="496"/>
      <point x="253" y="368" type="curve"/>
      <point x="333" y="368"/>
      <point x="253" y="368"/>
      <point x="333" y="368" type="curve"/>
      <point x="333" y="496"/>
      <point x="333" y="365"/>
      <point x="333" y="493" type="curve"/>
      <point x="258" y="493"/>
      <point x="328" y="493"/>
    </contour>
    <contour>
      <point x="125" y="48" type="curve"/>
      <point x="125" y="178"/>
      <point x="125" y="44"/>
      <point x="125" y="174" type="curve"/>
      <point x="45" y="174"/>
      <point x="125" y="174"/>
      <point x="45" y="174" type="curve"/>
      <point x="45" y="44"/>
      <point x="45" y="178"/>
      <point x="45" y="48" type="curve"/>
      <point x="125" y="48"/>
      <point x="45" y="48"/>
    </contour>
    <contour>
      <point x="269" y="798" type="line"/>
      <point x="164" y="632" type="line"/>
      <point x="287" y="632" type="line"/>
      <point x="365" y="798" type="line"/>
    </contour>
    <contour>
      <point x="47" y="798" type="line"/>
      <point x="125" y="632" type="line"/>
      <point x="248" y="632" type="line"/>
      <point x="143" y="798" type="line"/>
    </contour>
  </outline>
</glyph>
<glyph name="tcommaaccent" format="1">
  <advance width="324"/>
  <unicode hex="0163"/>
  <outline>
    <contour>
      <point x="15" y="453" type="curve"/>
      <point x="302" y="453" type="line"/>
      <point x="302" y="532"/>
      <point x="302" y="453"/>
      <point x="302" y="532" type="curve"/>
      <point x="15" y="532" type="line"/>
      <point x="15" y="453"/>
      <point x="15" y="532"/>
    </contour>
    <contour>
      <point x="267" y="97" type="curve"/>
      <point x="251" y="85"/>
      <point x="240" y="78"/>
      <point x="221" y="78" type="curve"/>
      <point x="181" y="78"/>
      <point x="178" y="116"/>
      <point x="178" y="164" type="curve"/>
      <point x="178" y="680" type="line"/>
      <point x="86" y="622"/>
      <point x="169" y="672"/>
      <point x="77" y="614" type="curve"/>
      <point x="77" y="160" type="line"/>
      <point x="77" y="59"/>
      <point x="116" y="-6"/>
      <point x="207" y="-6" type="curve"/>
      <point x="247" y="-6"/>
      <point x="274" y="7"/>
      <point x="308" y="29" type="curve"/>
      <point x="267" y="97"/>
      <point x="308" y="29"/>
    </contour>
    <contour>
      <point x="137" y="-323" type="line"/>
      <point x="208" y="-315"/>
      <point x="256" y="-260"/>
      <point x="256" y="-174" type="curve"/>
      <point x="256" y="-110"/>
      <point x="233" y="-74"/>
      <point x="197" y="-74" type="curve"/>
      <point x="164" y="-74"/>
      <point x="143" y="-92"/>
      <point x="143" y="-127" type="curve"/>
      <point x="143" y="-155"/>
      <point x="158" y="-176"/>
      <point x="187" y="-178" type="curve"/>
      <point x="187" y="-203"/>
      <point x="182" y="-251"/>
      <point x="132" y="-267" type="curve"/>
    </contour>
  </outline>
</glyph>
<glyph name="Tcaron" format="1">
  <advance width="515"/>
  <unicode hex="0164"/>
  <outline>
    <contour>
      <point x="31" y="682" type="curve"/>
      <point x="31" y="562"/>
      <point x="31" y="686"/>
      <point x="31" y="566" type="curve"/>
      <point x="110" y="566"/>
      <point x="31" y="566"/>
      <point x="110" y="566" type="curve"/>
      <point x="110" y="686"/>
      <point x="110" y="562"/>
      <point x="110" y="682" type="curve"/>
      <point x="31" y="682"/>
      <point x="110" y="682"/>
    </contour>
    <contour>
      <point x="405" y="682" type="curve"/>
      <point x="405" y="562"/>
      <point x="405" y="686"/>
      <point x="405" y="566" type="curve"/>
      <point x="485" y="566"/>
      <point x="405" y="566"/>
      <point x="485" y="566" type="curve"/>
      <point x="485" y="686"/>
      <point x="485" y="562"/>
      <point x="485" y="682" type="curve"/>
      <point x="405" y="682"/>
      <point x="485" y="682"/>
    </contour>
    <contour>
      <point x="257" y="0" type="curve"/>
      <point x="301" y="0"/>
      <point x="342" y="0"/>
      <point x="385" y="0" type="curve"/>
      <point x="385" y="79"/>
      <point x="385" y="0"/>
      <point x="385" y="79" type="curve"/>
      <point x="253" y="79"/>
      <point x="389" y="79"/>
      <point x="257" y="79" type="curve"/>
      <point x="257" y="0"/>
      <point x="257" y="79"/>
    </contour>
    <contour>
      <point x="257" y="79" type="curve"/>
      <point x="125" y="79"/>
      <point x="260" y="79"/>
      <point x="128" y="79" type="curve"/>
      <point x="128" y="0"/>
      <point x="128" y="79"/>
      <point x="128" y="0" type="curve"/>
      <point x="172" y="0"/>
      <point x="213" y="0"/>
      <point x="257" y="0" type="curve"/>
      <point x="257" y="79"/>
      <point x="257" y="0"/>
    </contour>
    <contour>
      <point x="308" y="0" type="curve"/>
      <point x="308" y="237"/>
      <point x="308" y="473"/>
      <point x="308" y="710" type="curve"/>
      <point x="207" y="710"/>
      <point x="308" y="710"/>
      <point x="207" y="710" type="curve"/>
      <point x="207" y="473"/>
      <point x="207" y="237"/>
      <point x="207" y="0" type="curve"/>
      <point x="308" y="0"/>
      <point x="207" y="0"/>
    </contour>
    <contour>
      <point x="31" y="638" type="curve"/>
      <point x="181" y="638"/>
      <point x="333" y="638"/>
      <point x="485" y="638" type="curve"/>
      <point x="485" y="725"/>
      <point x="485" y="635"/>
      <point x="485" y="722" type="curve"/>
      <point x="333" y="722"/>
      <point x="181" y="722"/>
      <point x="31" y="722" type="curve"/>
      <point x="31" y="635"/>
      <point x="31" y="725"/>
    </contour>
    <contour>
      <point x="321" y="963" type="line"/>
      <point x="215" y="797" type="line"/>
      <point x="339" y="797" type="line"/>
      <point x="416" y="963" type="line"/>
    </contour>
    <contour>
      <point x="99" y="963" type="line"/>
      <point x="176" y="797" type="line"/>
      <point x="300" y="797" type="line"/>
      <point x="194" y="963" type="line"/>
    </contour>
  </outline>
</glyph>
<glyph name="tcaron" format="1">
  <advance width="352"/>
  <unicode hex="0165"/>
  <outline>
    <contour>
      <point x="15" y="453" type="curve"/>
      <point x="302" y="453" type="line"/>
      <point x="302" y="532"/>
      <point x="302" y="453"/>
      <point x="302" y="532" type="curve"/>
      <point x="15" y="532" type="line"/>
      <point x="15" y="453"/>
      <point x="15" y="532"/>
    </contour>
    <contour>
      <point x="267" y="97" type="curve"/>
      <point x="251" y="85"/>
      <point x="240" y="78"/>
      <point x="221" y="78" type="curve"/>
      <point x="181" y="78"/>
      <point x="178" y="116"/>
      <point x="178" y="164" type="curve"/>
      <point x="178" y="680" type="line"/>
      <point x="86" y="622"/>
      <point x="169" y="672"/>
      <point x="77" y="614" type="curve"/>
      <point x="77" y="160" type="line"/>
      <point x="77" y="59"/>
      <point x="116" y="-6"/>
      <point x="207" y="-6" type="curve"/>
      <point x="247" y="-6"/>
      <point x="274" y="7"/>
      <point x="308" y="29" type="curve"/>
      <point x="267" y="97"/>
      <point x="308" y="29"/>
    </contour>
    <contour>
      <point x="341" y="620" type="line"/>
      <point x="412" y="629"/>
      <point x="460" y="683"/>
      <point x="460" y="769" type="curve"/>
      <point x="460" y="834"/>
      <point x="437" y="869"/>
      <point x="400" y="869" type="curve"/>
      <point x="368" y="869"/>
      <point x="346" y="851"/>
      <point x="346" y="816" type="curve"/>
      <point x="346" y="788"/>
      <point x="361" y="767"/>
      <point x="390" y="765" type="curve"/>
      <point x="390" y="740"/>
      <point x="385" y="692"/>
      <point x="335" y="677" type="curve"/>
    </contour>
  </outline>
</glyph>
<glyph name="Uring" format="1">
  <advance width="688"/>
  <unicode hex="016E"/>
  <outline>
    <contour>
      <point x="528" y="643" type="curve"/>
      <point x="658" y="643"/>
      <point x="525" y="643"/>
      <point x="655" y="643" type="curve"/>
      <point x="655" y="722"/>
      <point x="655" y="643"/>
      <point x="655" y="722" type="curve"/>
      <point x="612" y="722"/>
      <point x="571" y="722"/>
      <point x="528" y="722" type="curve"/>
      <point x="528" y="643"/>
      <point x="528" y="722"/>
    </contour>
    <contour>
      <point x="528" y="722" type="curve"/>
      <point x="485" y="722"/>
      <point x="444" y="722"/>
      <point x="402" y="722" type="curve"/>
      <point x="402" y="643"/>
      <point x="402" y="722"/>
      <point x="402" y="643" type="curve"/>
      <point x="531" y="643"/>
      <point x="399" y="643"/>
      <point x="528" y="643" type="curve"/>
      <point x="528" y="722"/>
      <point x="528" y="643"/>
    </contour>
    <contour>
      <point x="162" y="722" type="curve"/>
      <point x="119" y="722"/>
      <point x="78" y="722"/>
      <point x="36" y="722" type="curve"/>
      <point x="36" y="643"/>
      <point x="36" y="722"/>
      <point x="36" y="643" type="curve"/>
      <point x="165" y="643"/>
      <point x="32" y="643"/>
      <point x="162" y="643" type="curve"/>
      <point x="162" y="722"/>
      <point x="162" y="643"/>
    </contour>
    <contour>
      <point x="162" y="643" type="curve"/>
      <point x="291" y="643"/>
      <point x="159" y="643"/>
      <point x="288" y="643" type="curve"/>
      <point x="288" y="722"/>
      <point x="288" y="643"/>
      <point x="288" y="722" type="curve"/>
      <point x="245" y="722"/>
      <point x="205" y="722"/>
      <point x="162" y="722" type="curve"/>
      <point x="162" y="643"/>
      <point x="162" y="722"/>
    </contour>
    <contour>
      <point x="114" y="691" type="curve"/>
      <point x="114" y="552"/>
      <point x="114" y="412"/>
      <point x="114" y="272" type="curve"/>
      <point x="114" y="98"/>
      <point x="178" y="-5"/>
      <point x="342" y="-5" type="curve"/>
      <point x="508" y="-5"/>
      <point x="574" y="100"/>
      <point x="574" y="277" type="curve"/>
      <point x="574" y="415"/>
      <point x="574" y="554"/>
      <point x="574" y="691" type="curve"/>
      <point x="483" y="691"/>
      <point x="574" y="691"/>
      <point x="482" y="691" type="curve"/>
      <point x="482" y="548"/>
      <point x="482" y="409"/>
      <point x="482" y="266" type="curve"/>
      <point x="482" y="157"/>
      <point x="446" y="82"/>
      <point x="349" y="82" type="curve"/>
      <point x="237" y="82"/>
      <point x="206" y="164"/>
      <point x="206" y="288" type="curve"/>
      <point x="206" y="423"/>
      <point x="206" y="558"/>
      <point x="206" y="691" type="curve"/>
      <point x="115" y="691"/>
      <point x="206" y="691"/>
    </contour>
    <contour>
      <point x="224" y="931" type="curve"/>
      <point x="224" y="850"/>
      <point x="268" y="794"/>
      <point x="347" y="794" type="curve"/>
      <point x="426" y="794"/>
      <point x="471" y="849"/>
      <point x="471" y="931" type="curve"/>
      <point x="471" y="1012"/>
      <point x="425" y="1067"/>
      <point x="345" y="1067" type="curve"/>
      <point x="267" y="1067"/>
      <point x="224" y="1012"/>
      <point x="224" y="931" type="curve"/>
      <point x="313" y="931"/>
      <point x="217" y="931"/>
      <point x="306" y="931" type="curve"/>
      <point x="306" y="964"/>
      <point x="311" y="995"/>
      <point x="345" y="995" type="curve"/>
      <point x="378" y="995"/>
      <point x="385" y="965"/>
      <point x="385" y="931" type="curve"/>
      <point x="385" y="898"/>
      <point x="380" y="867"/>
      <point x="347" y="867" type="curve"/>
      <point x="313" y="867"/>
      <point x="306" y="898"/>
      <point x="306" y="931" type="curve"/>
      <point x="217" y="931"/>
      <point x="313" y="931"/>
    </contour>
  </outline>
</glyph>
<glyph name="Uhungarumlaut" format="1">
  <advance width="688"/>
  <unicode hex="0170"/>
  <outline>
    <contour>
      <point x="528" y="643" type="curve"/>
      <point x="658" y="643"/>
      <point x="525" y="643"/>
      <point x="655" y="643" type="curve"/>
      <point x="655" y="722"/>
      <point x="655" y="643"/>
      <point x="655" y="722" type="curve"/>
      <point x="612" y="722"/>
      <point x="571" y="722"/>
      <point x="528" y="722" type="curve"/>
      <point x="528" y="643"/>
      <point x="528" y="722"/>
    </contour>
    <contour>
      <point x="528" y="722" type="curve"/>
      <point x="485" y="722"/>
      <point x="444" y="722"/>
      <point x="402" y="722" type="curve"/>
      <point x="402" y="643"/>
      <point x="402" y="722"/>
      <point x="402" y="643" type="curve"/>
      <point x="531" y="643"/>
      <point x="399" y="643"/>
      <point x="528" y="643" type="curve"/>
      <point x="528" y="722"/>
      <point x="528" y="643"/>
    </contour>
    <contour>
      <point x="162" y="722" type="curve"/>
      <point x="119" y="722"/>
      <point x="78" y="722"/>
      <point x="36" y="722" type="curve"/>
      <point x="36" y="643"/>
      <point x="36" y="722"/>
      <point x="36" y="643" type="curve"/>
      <point x="165" y="643"/>
      <point x="32" y="643"/>
      <point x="162" y="643" type="curve"/>
      <point x="162" y="722"/>
      <point x="162" y="643"/>
    </contour>
    <contour>
      <point x="162" y="643" type="curve"/>
      <point x="291" y="643"/>
      <point x="159" y="643"/>
      <point x="288" y="643" type="curve"/>
      <point x="288" y="722"/>
      <point x="288" y="643"/>
      <point x="288" y="722" type="curve"/>
      <point x="245" y="722"/>
      <point x="205" y="722"/>
      <point x="162" y="722" type="curve"/>
      <point x="162" y="643"/>
      <point x="162" y="722"/>
    </contour>
    <contour>
      <point x="114" y="691" type="curve"/>
      <point x="114" y="552"/>
      <point x="114" y="412"/>
      <point x="114" y="272" type="curve"/>
      <point x="114" y="98"/>
      <point x="178" y="-5"/>
      <point x="342" y="-5" type="curve"/>
      <point x="508" y="-5"/>
      <point x="574" y="100"/>
      <point x="574" y="277" type="curve"/>
      <point x="574" y="415"/>
      <point x="574" y="554"/>
      <point x="574" y="691" type="curve"/>
      <point x="483" y="691"/>
      <point x="574" y="691"/>
      <point x="482" y="691" type="curve"/>
      <point x="482" y="548"/>
      <point x="482" y="409"/>
      <point x="482" y="266" type="curve"/>
      <point x="482" y="157"/>
      <point x="446" y="82"/>
      <point x="349" y="82" type="curve"/>
      <point x="237" y="82"/>
      <point x="206" y="164"/>
      <point x="206" y="288" type="curve"/>
      <point x="206" y="423"/>
      <point x="206" y="558"/>
      <point x="206" y="691" type="curve"/>
      <point x="115" y="691"/>
      <point x="206" y="691"/>
    </contour>
    <contour>
      <point x="297" y="805" type="line"/>
      <point x="403" y="971" type="line"/>
      <point x="279" y="971" type="line"/>
      <point x="202" y="805" type="line"/>
    </contour>
    <contour>
      <point x="464" y="805" type="line"/>
      <point x="570" y="971" type="line"/>
      <point x="446" y="971" type="line"/>
      <point x="369" y="805" type="line"/>
    </contour>
  </outline>
</glyph>
<glyph name="Zacute" format="1">
  <advance width="560"/>
  <unicode hex="0179"/>
  <outline>
    <contour>
      <point x="62" y="683" type="curve"/>
      <point x="62" y="563"/>
      <point x="62" y="686"/>
      <point x="62" y="566" type="curve"/>
      <point x="142" y="566"/>
      <point x="62" y="566"/>
      <point x="142" y="566" type="curve"/>
      <point x="142" y="686"/>
      <point x="142" y="563"/>
      <point x="142" y="683" type="curve"/>
      <point x="62" y="683"/>
      <point x="142" y="683"/>
    </contour>
    <contour>
      <point x="515" y="39" type="curve"/>
      <point x="515" y="159"/>
      <point x="515" y="36"/>
      <point x="515" y="156" type="curve"/>
      <point x="435" y="156"/>
      <point x="515" y="156"/>
      <point x="435" y="156" type="curve"/>
      <point x="435" y="36"/>
      <point x="435" y="159"/>
      <point x="435" y="39" type="curve"/>
      <point x="515" y="39"/>
      <point x="435" y="39"/>
    </contour>
    <contour>
      <point x="62" y="643" type="curve"/>
      <point x="180" y="643"/>
      <point x="333" y="643"/>
      <point x="452" y="643" type="curve"/>
      <point x="443" y="651"/>
      <point x="430" y="650"/>
      <point x="422" y="658" type="curve"/>
      <point x="415" y="664"/>
      <point x="417" y="677"/>
      <point x="409" y="684" type="curve"/>
      <point x="404" y="676"/>
      <point x="393" y="681"/>
      <point x="388" y="673" type="curve"/>
      <point x="35" y="79" type="line"/>
      <point x="35" y="38"/>
      <point x="35" y="79"/>
      <point x="35" y="38" type="curve"/>
      <point x="35" y="0"/>
      <point x="35" y="38"/>
      <point x="35" y="0" type="curve"/>
      <point x="71" y="0"/>
      <point x="35" y="0"/>
      <point x="71" y="0" type="curve"/>
      <point x="495" y="0"/>
      <point x="373" y="0"/>
      <point x="515" y="0" type="curve"/>
      <point x="515" y="79"/>
      <point x="515" y="0"/>
      <point x="515" y="79" type="curve"/>
      <point x="373" y="79"/>
      <point x="212" y="79"/>
      <point x="71" y="79" type="curve"/>
      <point x="78" y="73"/>
      <point x="89" y="73"/>
      <point x="97" y="67" type="curve"/>
      <point x="105" y="59"/>
      <point x="104" y="46"/>
      <point x="112" y="38" type="curve"/>
      <point x="117" y="46"/>
      <point x="129" y="41"/>
      <point x="134" y="49" type="curve"/>
      <point x="492" y="643" type="line"/>
      <point x="492" y="684"/>
      <point x="492" y="643"/>
      <point x="492" y="684" type="curve"/>
      <point x="492" y="722"/>
      <point x="492" y="684"/>
      <point x="492" y="722" type="curve"/>
      <point x="452" y="722"/>
      <point x="492" y="722"/>
      <point x="452" y="722" type="curve"/>
      <point x="333" y="722"/>
      <point x="180" y="722"/>
      <point x="62" y="722" type="curve"/>
      <point x="62" y="643"/>
      <point x="62" y="722"/>
    </contour>
    <contour>
      <point x="325" y="795" type="line"/>
      <point x="430" y="961" type="line"/>
      <point x="307" y="961" type="line"/>
      <point x="229" y="795" type="line"/>
    </contour>
  </outline>
</glyph>
<glyph name="circumflex" format="1">
  <advance width="496"/>
  <unicode hex="02C6"/>
  <outline>
    <contour>
      <point x="246" y="591" type="move" name="_top"/>
    </contour>
    <contour>
      <point x="183" y="591" type="line"/>
      <point x="288" y="757" type="line"/>
      <point x="165" y="757" type="line"/>
      <point x="87" y="591" type="line"/>
    </contour>
    <contour>
      <point x="405" y="591" type="line"/>
      <point x="327" y="757" type="line"/>
      <point x="204" y="757" type="line"/>
      <point x="309" y="591" type="line"/>
    </contour>
  </outline>
</glyph>
<glyph name="caron" format="1">
  <advance width="431"/>
  <unicode hex="02C7"/>
  <outline>
    <contour>
      <point x="190" y="591" type="move" name="_top"/>
    </contour>
    <contour>
      <point x="253" y="757" type="line"/>
      <point x="148" y="591" type="line"/>
      <point x="271" y="591" type="line"/>
      <point x="349" y="757" type="line"/>
    </contour>
    <contour>
      <point x="31" y="757" type="line"/>
      <point x="109" y="591" type="line"/>
      <point x="232" y="591" type="line"/>
      <point x="127" y="757" type="line"/>
    </contour>
  </outline>
</glyph>
<glyph name="breve" format="1">
  <advance width="317"/>
  <unicode hex="02D8"/>
  <outline>
    <contour>
      <point x="115" y="566" type="move" name="_top"/>
    </contour>
    <contour>
      <point x="165" y="711" type="curve"/>
      <point x="165" y="672"/>
      <point x="153" y="641"/>
      <point x="116" y="641" type="curve"/>
      <point x="79" y="641"/>
      <point x="67" y="671"/>
      <point x="67" y="712" type="curve"/>
      <point x="-23" y="712"/>
      <point x="67" y="712"/>
      <point x="-23" y="712" type="curve"/>
      <point x="-23" y="624"/>
      <point x="25" y="568"/>
      <point x="113" y="568" type="curve"/>
      <point x="202" y="568"/>
      <point x="255" y="621"/>
      <point x="255" y="711" type="curve"/>
      <point x="165" y="711"/>
      <point x="255" y="711"/>
    </contour>
  </outline>
</glyph>
<glyph name="dotaccent" format="1">
  <advance width="435"/>
  <unicode hex="02D9"/>
  <outline>
    <contour>
      <point x="213" y="620" type="move" name="_top"/>
    </contour>
    <contour>
      <point x="267" y="670" type="curve"/>
      <point x="267" y="704"/>
      <point x="245" y="722"/>
      <point x="213" y="722" type="curve"/>
      <point x="180" y="722"/>
      <point x="159" y="703"/>
      <point x="159" y="670" type="curve"/>
      <point x="267" y="670"/>
      <point x="159" y="670"/>
      <point x="267" y="670" type="curve"/>
      <point x="267" y="634"/>
      <point x="245" y="618"/>
      <point x="213" y="618" type="curve"/>
      <point x="180" y="618"/>
      <point x="159" y="635"/>
      <point x="159" y="670" type="curve"/>
      <point x="267" y="670"/>
      <point x="159" y="670"/>
    </contour>
  </outline>
</glyph>
<glyph name="ring" format="1">
  <advance width="328"/>
  <unicode hex="02DA"/>
  <outline>
    <contour>
      <point x="110" y="505" type="move" name="_top"/>
    </contour>
    <contour>
      <point x="-13" y="640" type="curve"/>
      <point x="-13" y="558"/>
      <point x="31" y="503"/>
      <point x="109" y="503" type="curve"/>
      <point x="189" y="503"/>
      <point x="234" y="557"/>
      <point x="234" y="640" type="curve"/>
      <point x="234" y="721"/>
      <point x="188" y="776"/>
      <point x="107" y="776" type="curve"/>
      <point x="29" y="776"/>
      <point x="-13" y="720"/>
      <point x="-13" y="640" type="curve"/>
      <point x="76" y="640"/>
      <point x="-21" y="640"/>
      <point x="69" y="640" type="curve"/>
      <point x="69" y="672"/>
      <point x="73" y="704"/>
      <point x="107" y="704" type="curve"/>
      <point x="141" y="704"/>
      <point x="148" y="673"/>
      <point x="148" y="640" type="curve"/>
      <point x="148" y="606"/>
      <point x="143" y="575"/>
      <point x="109" y="575" type="curve"/>
      <point x="76" y="575"/>
      <point x="69" y="606"/>
      <point x="69" y="640" type="curve"/>
      <point x="-21" y="640"/>
      <point x="76" y="640"/>
    </contour>
  </outline>
</glyph>
<glyph name="ogonek" format="1">
  <advance width="243"/>
  <unicode hex="02DB"/>
  <outline>
    <contour>
      <point x="134" y="9" type="move" name="_bottom"/>
    </contour>
    <contour>
      <point x="106" y="64" type="curve"/>
      <point x="49" y="32"/>
      <point x="2" y="2"/>
      <point x="2" y="-62" type="curve"/>
      <point x="2" y="-130"/>
      <point x="39" y="-178"/>
      <point x="105" y="-178" type="curve"/>
      <point x="137" y="-178"/>
      <point x="159" y="-166"/>
      <point x="185" y="-146" type="curve"/>
      <point x="142" y="-87"/>
      <point x="182" y="-143"/>
      <point x="138" y="-84" type="curve"/>
      <point x="130" y="-92"/>
      <point x="121" y="-100"/>
      <point x="110" y="-100" type="curve"/>
      <point x="92" y="-100"/>
      <point x="83" y="-82"/>
      <point x="83" y="-62" type="curve"/>
      <point x="83" y="-28"/>
      <point x="113" y="-10"/>
      <point x="143" y="9" type="curve"/>
      <point x="108" y="60"/>
      <point x="140" y="12"/>
    </contour>
  </outline>
</glyph>
<glyph name="tilde" format="1">
  <advance width="466"/>
  <unicode hex="02DC"/>
  <outline>
    <contour>
      <point x="155" y="558" type="move" name="_top"/>
    </contour>
    <contour>
      <point x="259" y="725" type="curve"/>
      <point x="244" y="685"/>
      <point x="234" y="662"/>
      <point x="213" y="662" type="curve"/>
      <point x="186" y="662"/>
      <point x="174" y="674"/>
      <point x="157" y="693" type="curve"/>
      <point x="133" y="716"/>
      <point x="119" y="730"/>
      <point x="88" y="730" type="curve"/>
      <point x="24" y="730"/>
      <point x="-2" y="666"/>
      <point x="-19" y="602" type="curve"/>
      <point x="56" y="561"/>
      <point x="-19" y="603"/>
      <point x="56" y="561" type="curve"/>
      <point x="71" y="606"/>
      <point x="83" y="627"/>
      <point x="110" y="627" type="curve"/>
      <point x="132" y="627"/>
      <point x="142" y="615"/>
      <point x="156" y="599" type="curve"/>
      <point x="182" y="572"/>
      <point x="199" y="556"/>
      <point x="235" y="556" type="curve"/>
      <point x="300" y="556"/>
      <point x="317" y="619"/>
      <point x="339" y="686" type="curve"/>
      <point x="259" y="725"/>
      <point x="339" y="685"/>
    </contour>
  </outline>
</glyph>
<glyph name="hungarumlaut" format="1">
  <advance width="473"/>
  <unicode hex="02DD"/>
  <outline>
    <contour>
      <point x="195" y="645" type="move" name="_top"/>
    </contour>
    <contour>
      <point x="145" y="654" type="line"/>
      <point x="251" y="820" type="line"/>
      <point x="127" y="820" type="line"/>
      <point x="50" y="654" type="line"/>
    </contour>
    <contour>
      <point x="312" y="654" type="line"/>
      <point x="418" y="820" type="line"/>
      <point x="294" y="820" type="line"/>
      <point x="217" y="654" type="line"/>
    </contour>
  </outline>
</glyph>
